<svg width="185" height="77" viewBox="0 0 185 77" fill="none" xmlns="http://www.w3.org/2000/svg">
<path fill-rule="evenodd" clip-rule="evenodd" d="M22.336 24.3121C20.4587 23.2881 18.2613 22.7761 15.744 22.7761C12.8 22.7761 10.1333 23.5228 7.744 25.0161C5.35467 26.5094 3.456 28.6428 2.048 31.4161C0.682667 34.1894 0 37.4108 0 41.0801C0 44.7494 0.682667 47.9921 2.048 50.8081C3.456 53.5814 5.35467 55.7361 7.744 57.2721C10.1333 58.7654 12.8 59.5121 15.744 59.5121C18.2613 59.5121 20.4587 59.0001 22.336 57.9761C24.2133 56.9094 25.6853 55.5441 26.752 53.8801V58.9361C26.752 61.7948 26.0693 63.8641 24.704 65.1441C23.3813 66.4668 21.5893 67.1281 19.328 67.1281C17.4507 67.1281 15.872 66.7228 14.592 65.9121C13.312 65.1441 12.5013 64.0774 12.16 62.7121H1.344C1.81333 66.9788 3.69067 70.3494 6.976 72.8241C10.2613 75.3414 14.5493 76.6001 19.84 76.6001C23.808 76.6001 27.1147 75.8108 29.76 74.2321C32.448 72.6534 34.432 70.5201 35.712 67.8321C37.0347 65.1868 37.696 62.2214 37.696 58.9361V23.2881H26.752V28.3441C25.728 26.6801 24.256 25.3361 22.336 24.3121ZM24.448 34.6801C25.984 36.2588 26.752 38.4134 26.752 41.1441C26.752 43.8748 25.984 46.0294 24.448 47.6081C22.9547 49.1868 21.12 49.9761 18.944 49.9761C16.768 49.9761 14.912 49.1868 13.376 47.6081C11.8827 45.9868 11.136 43.8108 11.136 41.0801C11.136 38.3494 11.8827 36.2161 13.376 34.6801C14.912 33.1014 16.768 32.3121 18.944 32.3121C21.12 32.3121 22.9547 33.1014 24.448 34.6801ZM46.3815 17.9121C47.6188 19.0214 49.1975 19.5761 51.1175 19.5761C52.9948 19.5761 54.5308 19.0214 55.7255 17.9121C56.9628 16.7601 57.5815 15.3521 57.5815 13.6881C57.5815 11.9814 56.9628 10.5734 55.7255 9.46408C54.5308 8.31208 52.9948 7.73608 51.1175 7.73608C49.1975 7.73608 47.6188 8.31208 46.3815 9.46408C45.1868 10.5734 44.5895 11.9814 44.5895 13.6881C44.5895 15.3521 45.1868 16.7601 46.3815 17.9121ZM45.6135 59.0001H56.5575V23.2881H45.6135V59.0001ZM64.3605 31.4161C62.9952 34.1894 62.3125 37.4108 62.3125 41.0801C62.3125 44.7494 62.9952 47.9921 64.3605 50.8081C65.7685 53.5814 67.6672 55.7361 70.0565 57.2721C72.4458 58.7654 75.1125 59.5121 78.0565 59.5121C80.5738 59.5121 82.7712 59.0001 84.6485 57.9761C86.5685 56.9521 88.0405 55.5868 89.0645 53.8801V59.0001H100.008V21.7926L94.716 16.5001L89.856 11.6401H89.0645V28.2161C87.9552 26.5521 86.4192 25.2294 84.4565 24.2481C82.5365 23.2668 80.4032 22.7761 78.0565 22.7761C75.1125 22.7761 72.4458 23.5228 70.0565 25.0161C67.6672 26.5094 65.7685 28.6428 64.3605 31.4161ZM86.7605 34.6801C88.2965 36.2588 89.0645 38.4134 89.0645 41.1441C89.0645 43.8748 88.2965 46.0294 86.7605 47.6081C85.2672 49.1868 83.4325 49.9761 81.2565 49.9761C79.0805 49.9761 77.2245 49.1868 75.6885 47.6081C74.1952 45.9868 73.4485 43.8108 73.4485 41.0801C73.4485 38.3494 74.1952 36.2161 75.6885 34.6801C77.2245 33.1014 79.0805 32.3121 81.2565 32.3121C83.4325 32.3121 85.2672 33.1014 86.7605 34.6801ZM105.59 58.5681C106.054 58.9841 106.646 59.1921 107.366 59.1921C108.07 59.1921 108.646 58.9841 109.094 58.5681C109.558 58.1361 109.79 57.6081 109.79 56.9841C109.79 56.3441 109.558 55.8081 109.094 55.3761C108.646 54.9441 108.07 54.7281 107.366 54.7281C106.646 54.7281 106.054 54.9441 105.59 55.3761C105.142 55.8081 104.918 56.3441 104.918 56.9841C104.918 57.6081 105.142 58.1361 105.59 58.5681ZM119.779 45.9921C119.075 45.6081 118.251 45.4161 117.307 45.4161C116.203 45.4161 115.203 45.6961 114.307 46.2561C113.411 46.8161 112.699 47.6161 112.171 48.6561C111.659 49.6961 111.403 50.9041 111.403 52.2801C111.403 53.6561 111.659 54.8721 112.171 55.9281C112.699 56.9681 113.411 57.7761 114.307 58.3521C115.203 58.9121 116.203 59.1921 117.307 59.1921C118.251 59.1921 119.075 59.0001 119.779 58.6161C120.483 58.2161 121.035 57.7041 121.435 57.0801V58.9761C121.435 60.0481 121.179 60.8241 120.667 61.3041C120.171 61.8001 119.499 62.0481 118.651 62.0481C117.947 62.0481 117.355 61.8961 116.875 61.5921C116.395 61.3041 116.091 60.9041 115.963 60.3921H111.907C112.083 61.9921 112.787 63.2561 114.019 64.1841C115.251 65.1281 116.859 65.6001 118.843 65.6001C120.331 65.6001 121.571 65.3041 122.563 64.7121C123.571 64.1201 124.315 63.3201 124.795 62.3121C125.291 61.3201 125.539 60.2081 125.539 58.9761V45.6081H121.435V47.5041C121.051 46.8801 120.499 46.3761 119.779 45.9921ZM120.571 49.8801C121.147 50.4721 121.435 51.2801 121.435 52.3041C121.435 53.3281 121.147 54.1361 120.571 54.7281C120.011 55.3201 119.323 55.6161 118.507 55.6161C117.691 55.6161 116.995 55.3201 116.419 54.7281C115.859 54.1201 115.579 53.3041 115.579 52.2801C115.579 51.2561 115.859 50.4561 116.419 49.8801C116.995 49.2881 117.691 48.9921 118.507 48.9921C119.323 48.9921 120.011 49.2881 120.571 49.8801ZM134.413 46.1121C133.693 46.5281 133.092 47.1041 132.613 47.8401V45.6081H128.508V59.0001H132.613V52.7841C132.613 51.6801 132.868 50.9121 133.38 50.4801C133.893 50.0321 134.661 49.8081 135.684 49.8081H136.812V45.4641C135.932 45.4641 135.133 45.6801 134.413 46.1121ZM141.318 58.3521C142.374 58.9121 143.558 59.1921 144.87 59.1921C146.182 59.1921 147.366 58.9121 148.422 58.3521C149.494 57.7921 150.334 56.9921 150.942 55.9521C151.566 54.8961 151.878 53.6801 151.878 52.3041C151.878 50.9281 151.574 49.7201 150.966 48.6801C150.358 47.6241 149.526 46.8161 148.47 46.2561C147.414 45.6961 146.23 45.4161 144.918 45.4161C143.606 45.4161 142.422 45.6961 141.366 46.2561C140.31 46.8161 139.478 47.6241 138.87 48.6801C138.262 49.7201 137.958 50.9281 137.958 52.3041C137.958 53.6961 138.254 54.9121 138.846 55.9521C139.454 56.9921 140.278 57.7921 141.318 58.3521ZM146.862 54.7761C146.318 55.3521 145.654 55.6401 144.87 55.6401C144.086 55.6401 143.43 55.3521 142.902 54.7761C142.39 54.2001 142.134 53.3761 142.134 52.3041C142.134 51.2161 142.398 50.3921 142.926 49.8321C143.454 49.2561 144.118 48.9681 144.918 48.9681C145.702 48.9681 146.358 49.2561 146.886 49.8321C147.43 50.4081 147.702 51.2321 147.702 52.3041C147.702 53.3761 147.422 54.2001 146.862 54.7761ZM167.279 59.0001V45.6081H163.175V52.8801C163.175 53.7761 162.943 54.4721 162.479 54.9681C162.015 55.4641 161.383 55.7121 160.583 55.7121C159.799 55.7121 159.175 55.4641 158.711 54.9681C158.247 54.4721 158.015 53.7761 158.015 52.8801V45.6081H153.935V53.4321C153.935 54.6001 154.151 55.6161 154.583 56.4801C155.015 57.3441 155.623 58.0081 156.407 58.4721C157.191 58.9201 158.095 59.1441 159.119 59.1441C159.983 59.1441 160.767 58.9681 161.471 58.6161C162.191 58.2481 162.759 57.7681 163.175 57.1761V59.0001H167.279ZM175.987 45.9921C175.283 46.3761 174.731 46.8801 174.331 47.5041V45.6081H170.227V65.3841H174.331V57.1281C174.731 57.7361 175.283 58.2321 175.987 58.6161C176.707 59.0001 177.531 59.1921 178.459 59.1921C179.563 59.1921 180.563 58.9121 181.459 58.3521C182.355 57.7761 183.059 56.9681 183.571 55.9281C184.099 54.8721 184.363 53.6561 184.363 52.2801C184.363 50.9041 184.099 49.6961 183.571 48.6561C183.059 47.6161 182.355 46.8161 181.459 46.2561C180.563 45.6961 179.563 45.4161 178.459 45.4161C177.515 45.4161 176.691 45.6081 175.987 45.9921ZM179.323 49.8801C179.899 50.4561 180.187 51.2561 180.187 52.2801C180.187 53.3041 179.899 54.1201 179.323 54.7281C178.747 55.3201 178.051 55.6161 177.235 55.6161C176.419 55.6161 175.723 55.3201 175.147 54.7281C174.587 54.1361 174.307 53.3281 174.307 52.3041C174.307 51.2801 174.587 50.4721 175.147 49.8801C175.723 49.2881 176.419 48.9921 177.235 48.9921C178.067 48.9921 178.763 49.2881 179.323 49.8801Z" fill="white"/>
<path fill-rule="evenodd" clip-rule="evenodd" d="M111.216 32V0H79.2158L89.2158 10H101.208V21.992L111.216 32Z" fill="#FAFF09"/>
</svg>
