<svg width="384" height="336" viewBox="0 0 384 336" fill="none" xmlns="http://www.w3.org/2000/svg">
<rect x="9.5" y="53.5" width="321" height="273" stroke="#4F4F4F" stroke-width="15"/>
<path d="M0.93934 10.9393C0.353553 11.5251 0.353553 12.4749 0.93934 13.0607L10.4853 22.6066C11.0711 23.1924 12.0208 23.1924 12.6066 22.6066C13.1924 22.0208 13.1924 21.0711 12.6066 20.4853L4.12132 12L12.6066 3.51472C13.1924 2.92893 13.1924 1.97918 12.6066 1.3934C12.0208 0.807611 11.0711 0.807611 10.4853 1.3934L0.93934 10.9393ZM339.061 13.0606C339.646 12.4748 339.646 11.5251 339.061 10.9393L329.515 1.39337C328.929 0.807583 327.979 0.807583 327.393 1.39337C326.808 1.97916 326.808 2.9289 327.393 3.51469L335.879 12L327.393 20.4853C326.808 21.071 326.808 22.0208 327.393 22.6066C327.979 23.1924 328.929 23.1924 329.515 22.6066L339.061 13.0606ZM2 13.5L338 13.5L338 10.5L2 10.5L2 13.5Z" fill="#4F4F4F"/>
<path d="M373.061 44.9393C372.475 44.3536 371.525 44.3536 370.939 44.9393L361.393 54.4853C360.808 55.0711 360.808 56.0208 361.393 56.6066C361.979 57.1924 362.929 57.1924 363.515 56.6066L372 48.1213L380.485 56.6066C381.071 57.1924 382.021 57.1924 382.607 56.6066C383.192 56.0208 383.192 55.0711 382.607 54.4853L373.061 44.9393ZM370.939 335.061C371.525 335.646 372.475 335.646 373.061 335.061L382.607 325.515C383.192 324.929 383.192 323.979 382.607 323.393C382.021 322.808 381.071 322.808 380.485 323.393L372 331.879L363.515 323.393C362.929 322.808 361.979 322.808 361.393 323.393C360.808 323.979 360.808 324.929 361.393 325.515L370.939 335.061ZM370.5 46L370.5 334L373.5 334L373.5 46L370.5 46Z" fill="#4F4F4F"/>
</svg>
