<svg width="49" height="55" viewBox="0 0 49 55" fill="none" xmlns="http://www.w3.org/2000/svg">
<path d="M28.3099 15.9085H42.1365H42.1367V16.1585C42.8451 16.1578 43.5408 16.3643 44.1519 16.7566L44.287 16.5463C46.7339 18.1176 48.25 20.9312 48.25 23.9017C48.25 25.7309 47.7129 27.4925 46.7377 28.9449C46.9353 29.7042 47.0341 30.4907 47.0456 31.2812L47.0457 31.2848C47.0456 33.1139 46.5085 34.8756 45.5333 36.328C45.7309 37.0867 45.8295 37.8684 45.8295 38.6615C45.8295 40.4906 45.2924 42.2522 44.3172 43.7047C44.5147 44.4633 44.6134 45.2451 44.6134 46.0381C44.6134 49.4439 42.7622 52.5282 39.8697 53.8789C39.3478 54.1266 38.7826 54.25 38.2064 54.25H2.88C1.68125 54.25 0.75 53.1966 0.75 51.942V28.5322C0.75 27.2776 1.68125 26.2242 2.88 26.2242H10.2816L15.2806 6.41204C16.1158 3.09264 18.9079 0.750297 22.0907 0.750047C22.0909 0.750047 22.0911 0.750047 22.0912 0.750047V1.00005C22.9477 0.996559 23.7958 1.18538 24.5829 1.55484C25.3701 1.9243 26.0797 2.46655 26.6679 3.14809L28.3099 15.9085ZM28.3099 15.9085L28.6508 8.26564L28.6508 8.26526C28.7356 6.29443 28.0991 4.41769 26.857 2.98454L28.3099 15.9085ZM41.0255 27.8353L41.1597 27.7078L42.4452 26.487C42.4454 26.4868 42.4456 26.4866 42.4458 26.4864C43.1232 25.8342 43.52 24.897 43.52 23.9017C43.52 22.7841 42.9432 21.7 42.0005 21.039H23.607H23.3457L23.3572 20.778L23.9212 8.01837L23.9213 8.0179C23.953 7.32837 23.673 6.68526 23.1549 6.26136L23.1546 6.2611C22.8512 6.01197 22.4684 5.88717 22.0745 5.88698C21.5718 5.89085 21.081 6.07375 20.6766 6.41254C20.2716 6.75186 19.9753 7.22954 19.8368 7.77553C19.8367 7.7756 19.8367 7.77567 19.8367 7.77574L13.9987 30.93V49.1131H38.088C39.1655 48.5554 39.8716 47.3643 39.8716 46.0317V46.0304C39.8746 45.4554 39.7438 44.89 39.4926 44.3877L39.7163 44.2759L39.4926 44.3877L38.676 42.7542L38.5932 42.5886L38.7275 42.4611L40.0137 41.2395L41.0255 27.8353ZM41.0255 27.8353L41.1083 28.0009M41.0255 27.8353L41.1083 28.0009M41.1083 28.0009L41.9249 29.6344C42.176 30.1367 42.3068 30.7021 42.3039 31.2771V31.2784M41.1083 28.0009L42.3039 31.2784M42.3039 31.2784C42.3039 32.2745 41.9066 33.2175 41.2302 33.8625L42.3039 31.2784ZM39.8094 35.212L39.9436 35.0845L41.2299 33.8629L39.8094 35.212ZM39.8094 35.212L39.8921 35.3775M39.8094 35.212L39.8921 35.3775M39.8921 35.3775L40.7088 37.0111L40.9324 36.8993M39.8921 35.3775L40.9324 36.8993M40.9324 36.8993L40.7088 37.0111C40.9599 37.5134 41.0907 38.0788 41.0877 38.6537V38.655M40.9324 36.8993L41.0877 38.655M41.0877 38.655C41.0877 39.6511 40.6904 40.5942 40.0141 41.2392L41.0877 38.655ZM13.9987 49.3631H13.7487V49.1131L13.9987 49.3631ZM5.48 49.1195V31.3547H9.73875V49.1195H5.48Z" fill="black" stroke="white" stroke-width="0.5"/>
</svg>
