<svg width="48" height="56" viewBox="0 0 48 56" fill="none" xmlns="http://www.w3.org/2000/svg">
<path fill-rule="evenodd" clip-rule="evenodd" d="M0 2C0 1.46957 0.210714 0.960859 0.585787 0.585786C0.96086 0.210714 1.46957 0 2 0H46C46.5304 0 47.0391 0.210714 47.4142 0.585786C47.7893 0.960859 48 1.46957 48 2C48 2.53043 47.7893 3.03914 47.4142 3.41421C47.0391 3.78929 46.5304 4 46 4H42V8C42.0008 11.3961 41.0409 14.7232 39.231 17.5969C37.4211 20.4706 34.8352 22.7736 31.772 24.24C30.612 24.796 30 25.748 30 26.6V29.4C30 30.252 30.616 31.204 31.772 31.76C34.8352 33.2264 37.4211 35.5294 39.231 38.4031C41.0409 41.2768 42.0008 44.6039 42 48V52H46C46.5304 52 47.0391 52.2107 47.4142 52.5858C47.7893 52.9609 48 53.4696 48 54C48 54.5304 47.7893 55.0391 47.4142 55.4142C47.0391 55.7893 46.5304 56 46 56H2C1.46957 56 0.96086 55.7893 0.585787 55.4142C0.210714 55.0391 0 54.5304 0 54C0 53.4696 0.210714 52.9609 0.585787 52.5858C0.96086 52.2107 1.46957 52 2 52H6V48C5.99918 44.6039 6.95914 41.2768 8.769 38.4031C10.5789 35.5294 13.1648 33.2264 16.228 31.76C17.388 31.204 18 30.252 18 29.4V26.6C18 25.748 17.384 24.796 16.228 24.24C13.1648 22.7736 10.5789 20.4706 8.769 17.5969C6.95914 14.7232 5.99918 11.3961 6 8V4H2C1.46957 4 0.96086 3.78929 0.585787 3.41421C0.210714 3.03914 0 2.53043 0 2ZM10 4V8C9.99927 10.6417 10.746 13.2297 12.1538 15.4649C13.5616 17.7002 15.5732 19.4916 17.956 20.632C20.088 21.656 22 23.796 22 26.596V29.404C22 32.204 20.088 34.344 17.956 35.368C15.5732 36.5084 13.5616 38.2998 12.1538 40.5351C10.746 42.7703 9.99927 45.3583 10 48V52H38V48C38.0007 45.3583 37.254 42.7703 35.8462 40.5351C34.4384 38.2998 32.4268 36.5084 30.044 35.368C27.912 34.344 26 32.208 26 29.404V26.596C26 23.796 27.912 21.656 30.044 20.632C32.4268 19.4916 34.4384 17.7002 35.8462 15.4649C37.254 13.2297 38.0007 10.6417 38 8V4H10Z" fill="black"/>
</svg>
