<svg width="48" height="63" viewBox="0 0 48 63" fill="none" xmlns="http://www.w3.org/2000/svg">
<path d="M12.7254 45.325C10.4254 45.325 8.22539 44.525 6.52539 43.125L0.525391 55.925L10.0254 52.525L13.5254 62.025L19.6254 49.025C18.6254 48.525 17.8254 47.925 17.0254 47.125C15.8254 45.925 14.3254 45.325 12.7254 45.325Z" fill="black"/>
<path d="M40.4246 43.9248C38.9246 44.8248 37.2246 45.3248 35.3246 45.3248C33.7246 45.3248 32.2246 45.9248 31.1246 47.1248C30.0246 48.2248 28.7246 49.0248 27.2246 49.5248L33.0246 62.0248L36.5246 52.5248L46.0246 56.0248L40.4246 43.9248Z" fill="black"/>
<path d="M24.0254 8.0249C15.2254 8.0249 8.02539 15.2249 8.02539 24.0249C8.02539 32.8249 15.2254 40.0249 24.0254 40.0249C32.8254 40.0249 40.0254 32.8249 40.0254 24.0249C40.0254 15.2249 32.8254 8.0249 24.0254 8.0249ZM31.0254 33.7249L24.0254 30.0249L17.0254 33.7249L18.3254 25.9249L12.6254 20.4249L20.4254 19.3249L23.9254 12.2249L27.4254 19.3249L35.2254 20.4249L29.5254 25.9249L31.0254 33.7249Z" fill="black"/>
<path d="M35.325 43.325C39.725 43.325 43.325 39.725 43.325 35.325C43.325 33.225 44.125 31.125 45.625 29.625C48.725 26.525 48.725 21.425 45.625 18.325C44.125 16.825 43.325 14.825 43.325 12.625C43.325 8.225 39.725 4.625 35.325 4.625C33.225 4.625 31.125 3.825 29.625 2.325C26.525 -0.775 21.425 -0.775 18.325 2.325C16.825 3.825 14.825 4.625 12.625 4.625C8.225 4.625 4.625 8.225 4.625 12.625C4.625 14.725 3.825 16.825 2.325 18.325C-0.775 21.525 -0.775 26.525 2.325 29.725C3.825 31.225 4.625 33.225 4.625 35.425C4.625 39.825 8.225 43.425 12.625 43.425C14.725 43.425 16.825 44.225 18.325 45.725C21.425 48.825 26.525 48.825 29.625 45.725C31.225 44.225 33.225 43.325 35.325 43.325ZM24.025 42.025C14.125 42.025 6.025 33.925 6.025 24.025C6.025 14.125 14.125 6.025 24.025 6.025C33.925 6.025 42.025 14.125 42.025 24.025C42.025 33.925 33.925 42.025 24.025 42.025Z" fill="black"/>
</svg>
