<svg width="53" height="56" viewBox="0 0 53 56" fill="none" xmlns="http://www.w3.org/2000/svg">
<path d="M47.4208 0H19.5259C16.4491 0 13.9469 2.50218 13.9469 5.57899V21.1611L0.816727 34.2913C0.42673 34.6814 0.161152 35.1784 0.053568 35.7194C-0.054016 36.2604 0.00122445 36.8212 0.212306 37.3308C0.423387 37.8405 0.780831 38.2761 1.23945 38.5826C1.69807 38.8891 2.23728 39.0528 2.7889 39.0529V53.0004C2.7889 53.7402 3.08279 54.4497 3.60592 54.9729C4.12905 55.496 4.83857 55.7899 5.57839 55.7899H50.2103C50.9501 55.7899 51.6596 55.496 52.1828 54.9729C52.7059 54.4497 52.9998 53.7402 52.9998 53.0004V5.57899C52.9998 2.50218 50.4976 0 47.4208 0ZM25.1049 50.2109H8.36789V34.6288L16.7364 26.2603L25.1049 34.6288V50.2109ZM47.4208 50.2109H30.6838V39.0529C31.2361 39.0541 31.7762 38.8913 32.2357 38.585C32.6952 38.2787 33.0533 37.8428 33.2646 37.3326C33.4759 36.8224 33.5309 36.2609 33.4225 35.7194C33.3142 35.1779 33.0474 34.6808 32.656 34.2913L19.5259 21.1611V5.57899H47.4208V50.2109Z" fill="black"/>
<path d="M25.1052 11.1577H30.6842V16.7367H25.1052V11.1577ZM36.2632 11.1577H41.8422V16.7367H36.2632V11.1577ZM36.2632 22.4022H41.8422V27.8947H36.2632V22.4022ZM36.2632 33.4737H41.8422V39.0527H36.2632V33.4737ZM13.9473 36.2632H19.5263V41.8421H13.9473V36.2632Z" fill="black"/>
</svg>
