<svg width="134" height="113" viewBox="0 0 134 113" fill="none" xmlns="http://www.w3.org/2000/svg">
<path d="M8.24184 109.71L6.60338 111.444C6.2814 111.785 6.29568 112.321 6.63669 112.644C6.80165 112.801 7.01101 112.878 7.22355 112.878C7.4472 112.878 7.67401 112.792 7.84214 112.611L9.48059 110.885C9.80416 110.538 9.78989 110.004 9.44728 109.677C9.1031 109.355 8.56541 109.366 8.24184 109.71Z" fill="black"/>
<path d="M25.4485 94.0161L28.9411 90.3268C29.2663 89.9873 29.2504 89.4481 28.9078 89.1245C28.5684 88.8009 28.0275 88.8168 27.7087 89.1578L24.2145 92.8439C23.891 93.1881 23.9036 93.7258 24.2478 94.051C24.4128 94.2064 24.6222 94.2825 24.8347 94.2825C25.0599 94.2841 25.2836 94.1906 25.4485 94.0161Z" fill="black"/>
<path d="M38.8274 77.4131L37.1889 79.1404C36.8669 79.4862 36.8828 80.0255 37.2206 80.349C37.3888 80.5029 37.5981 80.5806 37.8091 80.5806C38.0343 80.5806 38.258 80.4886 38.4261 80.3141L40.063 78.5821C40.3865 78.2395 40.3723 77.7034 40.0312 77.3798C39.6902 77.0531 39.1509 77.0689 38.8274 77.4131Z" fill="black"/>
<path d="M124.257 109.711C123.935 109.367 123.393 109.354 123.052 109.677C122.714 110.004 122.695 110.537 123.02 110.881L124.659 112.612C124.824 112.788 125.049 112.878 125.276 112.878C125.487 112.878 125.698 112.804 125.858 112.645C126.202 112.321 126.218 111.785 125.894 111.44L124.257 109.711Z" fill="black"/>
<path d="M117.769 102.858C117.447 102.517 116.911 102.503 116.567 102.825C116.226 103.149 116.21 103.686 116.535 104.027L120.029 107.718C120.191 107.896 120.419 107.986 120.646 107.986C120.854 107.986 121.065 107.907 121.228 107.752C121.569 107.43 121.585 106.89 121.262 106.551L117.769 102.858Z" fill="black"/>
<path d="M108.287 92.8442L104.793 89.158C104.471 88.8154 103.931 88.7996 103.587 89.1247C103.249 89.4483 103.23 89.9876 103.555 90.327L107.05 94.0163C107.216 94.1908 107.443 94.2843 107.67 94.2843C107.881 94.2843 108.092 94.2066 108.255 94.0528C108.593 93.726 108.612 93.1883 108.287 92.8442Z" fill="black"/>
<path d="M94.6915 80.5798C94.9024 80.5798 95.1134 80.5005 95.2736 80.345C95.6146 80.0199 95.6304 79.4854 95.3101 79.1396L93.6684 77.4107C93.3464 77.0681 92.8072 77.0523 92.4662 77.379C92.1251 77.7026 92.1125 78.2387 92.4328 78.5765L94.0713 80.3101C94.2394 80.4878 94.4647 80.5798 94.6915 80.5798Z" fill="black"/>
<path d="M8.29983 100.146C8.29983 99.6752 7.91917 99.293 7.44968 99.293H2.68182C2.21075 99.293 1.83008 99.6752 1.83008 100.146C1.83008 100.614 2.21075 100.998 2.68182 100.998H7.44968C7.91917 100.998 8.29983 100.614 8.29983 100.146Z" fill="black"/>
<path d="M25.1546 99.2932H20.4565L22.4598 97.182C22.7818 96.8394 22.7675 96.3002 22.4249 95.9766C22.0855 95.6546 21.5462 95.6657 21.2242 96.0099L17.7284 99.6992C17.4033 100.042 17.4191 100.581 17.7601 100.903C17.9283 101.059 18.1376 101.135 18.3486 101.135C18.5722 101.135 18.799 101.046 18.964 100.868L19.5572 100.242C19.608 100.664 19.9537 100.998 20.3899 100.998H25.1562C25.6257 100.998 26.0095 100.614 26.0095 100.146C26.0079 99.6754 25.6241 99.2932 25.1546 99.2932Z" fill="black"/>
<path d="M95.977 99.293H91.2123C90.7381 99.293 90.3574 99.6752 90.3574 100.146C90.3574 100.614 90.7381 100.998 91.2123 100.998H95.977C96.4481 100.998 96.8288 100.614 96.8288 100.146C96.8288 99.6752 96.4513 99.293 95.977 99.293Z" fill="black"/>
<path d="M104.831 99.293H100.063C99.5923 99.293 99.2148 99.6752 99.2148 100.146C99.2148 100.614 99.5923 100.998 100.063 100.998H104.831C105.302 100.998 105.683 100.614 105.683 100.146C105.683 99.6752 105.302 99.293 104.831 99.293Z" fill="black"/>
<path d="M87.1274 99.293H82.3627C81.8885 99.293 81.5078 99.6752 81.5078 100.146C81.5078 100.614 81.8885 100.998 82.3627 100.998H87.1274C87.5953 100.998 87.9792 100.614 87.9792 100.146C87.9792 99.6752 87.5953 99.293 87.1274 99.293Z" fill="black"/>
<path d="M69.4208 99.293H64.6545C64.1802 99.293 63.8027 99.6752 63.8027 100.146C63.8027 100.614 64.1802 100.998 64.6545 100.998H69.4208C69.8918 100.998 70.2741 100.614 70.2741 100.146C70.2741 99.6752 69.8918 99.293 69.4208 99.293Z" fill="black"/>
<path d="M78.2739 99.293H73.506C73.035 99.293 72.6543 99.6752 72.6543 100.146C72.6543 100.614 73.035 100.998 73.506 100.998H78.2739C78.745 100.998 79.1256 100.614 79.1256 100.146C79.1256 99.6752 78.745 99.293 78.2739 99.293Z" fill="black"/>
<path d="M123.388 100.146C123.388 99.6752 123.011 99.293 122.54 99.293H117.772C117.301 99.293 116.92 99.6752 116.92 100.146C116.92 100.614 117.301 100.998 117.772 100.998H122.54C123.007 100.998 123.388 100.614 123.388 100.146Z" fill="black"/>
<path d="M51.7169 99.293H46.949C46.4748 99.293 46.0957 99.6752 46.0957 100.146C46.0957 100.614 46.4748 100.998 46.949 100.998H51.7169C52.1864 100.998 52.567 100.614 52.567 100.146C52.567 99.6752 52.1864 99.293 51.7169 99.293Z" fill="black"/>
<path d="M42.8618 99.293H38.0923C37.6229 99.293 37.2422 99.6752 37.2422 100.146C37.2422 100.614 37.6229 100.998 38.0923 100.998H42.8618C43.3313 100.998 43.7119 100.614 43.7119 100.146C43.7119 99.6752 43.3329 99.293 42.8618 99.293Z" fill="black"/>
<path d="M130.256 99.293H126.626C126.155 99.293 125.768 99.6752 125.768 100.146C125.768 100.614 126.155 100.998 126.626 100.998H130.256C130.724 100.998 131.111 100.614 131.111 100.146C131.111 99.6752 130.723 99.293 130.256 99.293Z" fill="black"/>
<path d="M34.0086 99.293H29.2408C28.7729 99.293 28.3906 99.6752 28.3906 100.146C28.3906 100.614 28.7729 100.998 29.2408 100.998H34.0086C34.4797 100.998 34.862 100.614 34.862 100.146C34.862 99.6752 34.4813 99.293 34.0086 99.293Z" fill="black"/>
<path d="M60.5688 99.293H55.801C55.3315 99.293 54.9492 99.6752 54.9492 100.146C54.9492 100.614 55.3299 100.998 55.801 100.998H60.5688C61.0383 100.998 61.4206 100.614 61.4206 100.146C61.4206 99.6752 61.0415 99.293 60.5688 99.293Z" fill="black"/>
<path d="M100.063 15.3732H104.831C105.302 15.3732 105.683 14.9957 105.683 14.523C105.683 14.0519 105.302 13.6729 104.831 13.6729H100.063C99.5923 13.6729 99.2148 14.0519 99.2148 14.523C99.2148 14.9941 99.5939 15.3732 100.063 15.3732Z" fill="black"/>
<path d="M73.506 15.3732H78.2739C78.745 15.3732 79.1256 14.9957 79.1256 14.523C79.1256 14.0519 78.745 13.6729 78.2739 13.6729H73.506C73.035 13.6729 72.6543 14.0519 72.6543 14.523C72.6543 14.9941 73.035 15.3732 73.506 15.3732Z" fill="black"/>
<path d="M82.3627 15.3732H87.1274C87.5953 15.3732 87.9792 14.9957 87.9792 14.523C87.9792 14.0519 87.5953 13.6729 87.1274 13.6729H82.3627C81.8885 13.6729 81.5078 14.0519 81.5078 14.523C81.5078 14.9941 81.8885 15.3732 82.3627 15.3732Z" fill="black"/>
<path d="M91.2123 15.3732H95.977C96.4481 15.3732 96.8288 14.9957 96.8288 14.523C96.8288 14.0519 96.4513 13.6729 95.977 13.6729H91.2123C90.7381 13.6729 90.3574 14.0519 90.3574 14.523C90.3574 14.9941 90.7381 15.3732 91.2123 15.3732Z" fill="black"/>
<path d="M108.917 15.3735H113.688C113.853 15.3735 113.997 15.3132 114.13 15.2323C114.283 15.3957 114.498 15.5004 114.744 15.5004C115.212 15.5004 115.593 15.1213 115.593 14.6487V9.88397C115.593 9.41131 115.212 9.03223 114.744 9.03223C114.273 9.03223 113.896 9.41131 113.896 9.88397V13.7144C113.828 13.697 113.763 13.6732 113.688 13.6732H108.917C108.449 13.6732 108.068 14.0523 108.068 14.5234C108.068 14.9944 108.451 15.3735 108.917 15.3735Z" fill="black"/>
<path d="M55.801 15.3732H60.5688C61.0383 15.3732 61.419 14.9957 61.4206 14.523C61.4206 14.0519 61.0415 13.6729 60.5688 13.6729H55.801C55.3315 13.6729 54.9492 14.0519 54.9492 14.523C54.9508 14.9941 55.3315 15.3732 55.801 15.3732Z" fill="black"/>
<path d="M46.949 15.3732H51.7169C52.1864 15.3732 52.567 14.9957 52.567 14.523C52.567 14.0519 52.1864 13.6729 51.7169 13.6729H46.949C46.4748 13.6729 46.0957 14.0519 46.0957 14.523C46.0957 14.9941 46.4748 15.3732 46.949 15.3732Z" fill="black"/>
<path d="M20.3885 15.3732H25.1548C25.6242 15.3732 26.0081 14.9957 26.0081 14.523C26.0081 14.0519 25.6242 13.6729 25.1548 13.6729H20.3885C19.9174 13.6729 19.5352 14.0519 19.5352 14.523C19.5352 14.9941 19.9174 15.3732 20.3885 15.3732Z" fill="black"/>
<path d="M11.5369 15.3735H15.9194C16.0462 15.4465 16.1842 15.5004 16.3413 15.5004C16.8107 15.5004 17.193 15.1213 17.193 14.6487V9.88397C17.193 9.41131 16.8123 9.03223 16.3413 9.03223C15.8702 9.03223 15.4895 9.41131 15.4895 9.88397V13.6732H11.5369C11.0674 13.6732 10.6836 14.0523 10.6836 14.5234C10.6836 14.9944 11.0674 15.3735 11.5369 15.3735Z" fill="black"/>
<path d="M2.68182 15.3732H7.44968C7.91917 15.3732 8.29983 14.9957 8.29983 14.523C8.29983 14.0519 7.91917 13.6729 7.44968 13.6729H2.68182C2.21075 13.6729 1.83008 14.0519 1.83008 14.523C1.83008 14.9941 2.21075 15.3732 2.68182 15.3732Z" fill="black"/>
<path d="M29.2408 15.3732H34.0086C34.4797 15.3732 34.862 14.9957 34.862 14.523C34.862 14.0519 34.4813 13.6729 34.0086 13.6729H29.2408C28.7729 13.6729 28.3906 14.0519 28.3906 14.523C28.3906 14.9941 28.7729 15.3732 29.2408 15.3732Z" fill="black"/>
<path d="M117.772 15.3732H122.54C123.007 15.3732 123.388 14.9957 123.388 14.523C123.388 14.0519 123.011 13.6729 122.54 13.6729H117.772C117.301 13.6729 116.92 14.0519 116.92 14.523C116.92 14.9941 117.302 15.3732 117.772 15.3732Z" fill="black"/>
<path d="M38.0923 15.3732H42.8618C43.3313 15.3732 43.7104 14.9957 43.7119 14.523C43.7119 14.0519 43.3329 13.6729 42.8618 13.6729H38.0923C37.6229 13.6729 37.2422 14.0519 37.2422 14.523C37.2422 14.9941 37.6229 15.3732 38.0923 15.3732Z" fill="black"/>
<path d="M126.626 15.3732H130.256C130.724 15.3732 131.111 14.9957 131.111 14.523C131.111 14.0519 130.724 13.6729 130.256 13.6729H126.626C126.155 13.6729 125.768 14.0519 125.768 14.523C125.768 14.9941 126.156 15.3732 126.626 15.3732Z" fill="black"/>
<path d="M82.3156 83.9769C82.7867 83.9769 83.1706 83.5947 83.1706 83.1268C83.1706 82.6541 82.7899 82.2734 82.3188 82.2734H77.551C77.0799 82.2734 76.6992 82.6541 76.6992 83.1268C76.6992 83.5947 77.0799 83.9769 77.551 83.9769H82.3156Z" fill="black"/>
<path d="M91.1692 83.9769C91.6402 83.9769 92.0209 83.5947 92.0209 83.1268C92.0209 82.6541 91.6402 82.2734 91.1692 82.2734H86.4013C85.9334 82.2734 85.5527 82.6541 85.5527 83.1268C85.5527 83.5947 85.9334 83.9769 86.4013 83.9769H91.1692Z" fill="black"/>
<path d="M55.7599 83.9769C56.2325 83.9769 56.61 83.5947 56.61 83.1268C56.61 82.6541 56.2325 82.2734 55.7599 82.2734H50.992C50.5225 82.2734 50.1387 82.6541 50.1387 83.1268C50.1387 83.5947 50.5209 83.9769 50.992 83.9769H55.7599Z" fill="black"/>
<path d="M73.4621 83.9769C73.9364 83.9769 74.317 83.5947 74.317 83.1268C74.317 82.6541 73.9364 82.2734 73.4621 82.2734H68.6974C68.2264 82.2734 67.8457 82.6541 67.8457 83.1268C67.8457 83.5947 68.2264 83.9769 68.6974 83.9769H73.4621Z" fill="black"/>
<path d="M46.9051 83.9769C47.3746 83.9769 47.7553 83.5947 47.7553 83.1268C47.7553 82.6541 47.3746 82.2734 46.9051 82.2734H42.1373C41.6662 82.2734 41.2871 82.6541 41.2871 83.1268C41.2871 83.5947 41.6662 83.9769 42.1373 83.9769H46.9051Z" fill="black"/>
<path d="M64.6134 83.9769C65.0797 83.9769 65.4651 83.5947 65.4651 83.1268C65.4651 82.6541 65.0813 82.2734 64.6134 82.2734H59.8455C59.3729 82.2734 58.9922 82.6541 58.9922 83.1268C58.9922 83.5947 59.3729 83.9769 59.8455 83.9769H64.6134Z" fill="black"/>
<path d="M16.3413 97.5566C15.8718 97.5566 15.4895 97.9421 15.4895 98.41V99.2934H11.5369C11.0674 99.2934 10.6836 99.6757 10.6836 100.147C10.6836 100.615 11.0658 100.999 11.5369 100.999H15.4895V102.62C15.2199 102.575 14.936 102.645 14.7329 102.857L11.2403 106.55C10.912 106.889 10.9294 107.429 11.2736 107.751C11.4386 107.908 11.648 107.985 11.8573 107.985C12.0825 107.985 12.3078 107.895 12.4759 107.717L15.9685 104.026C15.986 104.007 15.9923 103.984 16.0082 103.961C16.1097 104.004 16.2223 104.03 16.3397 104.03C16.8092 104.03 17.1914 103.647 17.1914 103.178V98.4084C17.1914 97.9421 16.8107 97.5566 16.3413 97.5566Z" fill="black"/>
<path d="M16.34 106.41C15.8705 106.41 15.4883 106.792 15.4883 107.262V112.031C15.4883 112.504 15.8705 112.88 16.34 112.88C16.8095 112.88 17.1918 112.504 17.1918 112.031V107.262C17.1902 106.792 16.8095 106.41 16.34 106.41Z" fill="black"/>
<path d="M16.34 26.7383C15.8705 26.7383 15.4883 27.1142 15.4883 27.5853V32.3563C15.4883 32.8242 15.8705 33.2065 16.34 33.2065C16.8095 33.2065 17.1918 32.8242 17.1918 32.3563V27.5853C17.1902 27.1142 16.8095 26.7383 16.34 26.7383Z" fill="black"/>
<path d="M16.34 88.7061C15.8705 88.7061 15.4883 89.0867 15.4883 89.5594V94.3257C15.4883 94.7967 15.8705 95.1774 16.34 95.1774C16.8095 95.1774 17.1918 94.7967 17.1918 94.3257V89.5594C17.1902 89.0867 16.8095 88.7061 16.34 88.7061Z" fill="black"/>
<path d="M16.34 6.64969C16.8095 6.64969 17.1918 6.26585 17.1918 5.79636V1.0285C17.1918 0.559011 16.8111 0.176758 16.34 0.176758C15.8689 0.176758 15.4883 0.559011 15.4883 1.0285V5.79636C15.4883 6.26585 15.8689 6.64969 16.34 6.64969Z" fill="black"/>
<path d="M17.1898 18.7361C17.1898 18.2619 16.8091 17.8828 16.3381 17.8828C15.867 17.8828 15.4863 18.2619 15.4863 18.7361V23.5024C15.4863 23.9751 15.8686 24.3557 16.3381 24.3557C16.8076 24.3557 17.1898 23.9751 17.1898 23.5024V18.7361Z" fill="black"/>
<path d="M16.34 62.1455C15.8705 62.1455 15.4883 62.5262 15.4883 62.9988V67.7667C15.4883 68.2394 15.8705 68.62 16.34 68.62C16.8095 68.62 17.1918 68.2394 17.1918 67.7667V62.9988C17.1902 62.5262 16.8095 62.1455 16.34 62.1455Z" fill="black"/>
<path d="M16.34 53.291C15.8705 53.291 15.4883 53.6749 15.4883 54.1459V58.9122C15.4883 59.3849 15.8705 59.7639 16.34 59.7639C16.8095 59.7639 17.1918 59.3849 17.1918 58.9122V54.1459C17.1902 53.6749 16.8095 53.291 16.34 53.291Z" fill="black"/>
<path d="M16.34 79.8516C15.8705 79.8516 15.4883 80.2354 15.4883 80.7033V85.4727C15.4883 85.9422 15.8705 86.3229 16.34 86.3229C16.8095 86.3229 17.1918 85.9422 17.1918 85.4727V80.7033C17.1902 80.2354 16.8095 79.8516 16.34 79.8516Z" fill="black"/>
<path d="M16.34 44.4424C15.8705 44.4424 15.4883 44.823 15.4883 45.2957V50.062C15.4883 50.5315 15.8705 50.9121 16.34 50.9121C16.8095 50.9121 17.1918 50.5315 17.1918 50.062V45.2957C17.1902 44.823 16.8095 44.4424 16.34 44.4424Z" fill="black"/>
<path d="M16.34 71.001C15.8705 71.001 15.4883 71.3801 15.4883 71.8527V76.6174C15.4883 77.0869 15.8705 77.4691 16.34 77.4691C16.8095 77.4691 17.1918 77.0869 17.1918 76.6174V71.8527C17.1902 71.3801 16.8095 71.001 16.34 71.001Z" fill="black"/>
<path d="M114.745 53.291C114.274 53.291 113.896 53.6749 113.896 54.1459V58.9122C113.896 59.3849 114.274 59.7639 114.745 59.7639C115.213 59.7639 115.594 59.3849 115.594 58.9122V54.1459C115.594 53.6749 115.213 53.291 114.745 53.291Z" fill="black"/>
<path d="M114.745 44.4424C114.274 44.4424 113.896 44.823 113.896 45.2957V50.062C113.896 50.5315 114.274 50.9121 114.745 50.9121C115.213 50.9121 115.594 50.5315 115.594 50.062V45.2957C115.594 44.823 115.213 44.4424 114.745 44.4424Z" fill="black"/>
<path d="M113.896 18.7361V23.5024C113.896 23.9751 114.274 24.3557 114.745 24.3557C115.213 24.3557 115.594 23.9751 115.594 23.5024V18.7361C115.594 18.2619 115.213 17.8828 114.745 17.8828C114.274 17.8828 113.896 18.2619 113.896 18.7361Z" fill="black"/>
<path d="M114.745 6.64969C115.213 6.64969 115.594 6.26585 115.594 5.79636V1.0285C115.594 0.559011 115.213 0.176758 114.745 0.176758C114.274 0.176758 113.896 0.559011 113.896 1.0285V5.79636C113.896 6.26585 114.274 6.64969 114.745 6.64969Z" fill="black"/>
<path d="M114.745 106.41C114.274 106.41 113.896 106.792 113.896 107.262V112.031C113.896 112.504 114.274 112.88 114.745 112.88C115.213 112.88 115.594 112.504 115.594 112.031V107.262C115.594 106.792 115.213 106.41 114.745 106.41Z" fill="black"/>
<path d="M114.745 88.7061C114.274 88.7061 113.896 89.0867 113.896 89.5594V94.3257C113.896 94.7967 114.274 95.1774 114.745 95.1774C115.213 95.1774 115.594 94.7967 115.594 94.3257V89.5594C115.594 89.0867 115.213 88.7061 114.745 88.7061Z" fill="black"/>
<path d="M114.743 97.5564C114.272 97.5564 113.894 97.9418 113.894 98.4097V98.7682L111.28 96.0052C110.955 95.6658 110.419 95.6515 110.078 95.975C109.734 96.2986 109.718 96.8363 110.045 97.1805L112.046 99.2932H108.917C108.449 99.2932 108.068 99.6754 108.068 100.147C108.068 100.614 108.449 100.998 108.917 100.998H113.688C113.697 100.998 113.707 100.994 113.717 100.992C113.775 101.028 113.831 101.062 113.896 101.082V103.179C113.896 103.649 114.273 104.031 114.744 104.031C115.212 104.031 115.593 103.649 115.593 103.179V98.4097C115.591 97.9418 115.211 97.5564 114.743 97.5564Z" fill="black"/>
<path d="M114.745 79.8516C114.274 79.8516 113.896 80.2354 113.896 80.7033V85.4727C113.896 85.9422 114.274 86.3229 114.745 86.3229C115.213 86.3229 115.594 85.9422 115.594 85.4727V80.7033C115.594 80.2354 115.213 79.8516 114.745 79.8516Z" fill="black"/>
<path d="M114.745 62.1455C114.274 62.1455 113.896 62.5262 113.896 62.9988V67.7667C113.896 68.2394 114.274 68.62 114.745 68.62C115.213 68.62 115.594 68.2394 115.594 67.7667V62.9988C115.594 62.5262 115.213 62.1455 114.745 62.1455Z" fill="black"/>
<path d="M114.745 71.001C114.274 71.001 113.896 71.3801 113.896 71.8527V76.6174C113.896 77.0869 114.274 77.4691 114.745 77.4691C115.213 77.4691 115.594 77.0869 115.594 76.6174V71.8527C115.594 71.3801 115.213 71.001 114.745 71.001Z" fill="black"/>
<path d="M132.003 38.9349L115.768 32.9219V32.9172L115.452 32.8014C115.536 32.6697 115.595 32.5222 115.595 32.3557V27.5847C115.595 27.1136 115.214 26.7377 114.746 26.7377C114.275 26.7377 113.898 27.1136 113.898 27.5847V32.2304L68.4032 15.3732H69.4199C69.891 15.3732 70.2716 14.9957 70.2732 14.523C70.2732 14.0519 69.891 13.6729 69.4199 13.6729H64.6536C64.1794 13.6729 63.8019 14.0519 63.8019 14.523C63.8019 14.8149 63.9541 15.0559 64.1746 15.2098L64.1096 15.2352C64.1048 15.2399 64.0985 15.2399 64.0905 15.2399L17.3605 33.1583L16.6816 33.4184V33.4374C16.6816 33.577 16.7784 33.6737 16.9005 33.7261C16.7768 33.6753 16.6784 33.577 16.6784 33.4374V33.42L2.26384 38.9476C0.684075 39.5551 -0.105809 41.3267 0.501672 42.9065C1.10598 44.4879 2.87926 45.2793 4.45903 44.6703L15.4889 40.4417V41.2046C15.4889 41.6773 15.8711 42.0595 16.3406 42.0595C16.8101 42.0595 17.1923 41.6773 17.1923 41.2046V39.785L17.3621 39.72L18.3296 39.3536L17.7284 38.4305L18.3312 39.3536L18.3328 39.352L34.3588 63.9384C34.408 64.0177 34.4667 64.0843 34.5317 64.1414V63.3816C34.5317 63.2389 34.5761 63.1057 34.6539 62.9946C34.5777 63.1057 34.5333 63.2421 34.5333 63.3832V64.143V82.0978C34.4286 82.1343 34.3319 82.1945 34.2462 82.2723H33.2882C32.8187 82.2723 32.4365 82.6529 32.4365 83.1256C32.4365 83.4032 32.5792 83.6395 32.7886 83.7949L30.706 85.9949C30.384 86.3359 30.3983 86.872 30.7393 87.1987C30.9043 87.3557 31.1137 87.4303 31.3246 87.4303C31.5483 87.4303 31.7767 87.3399 31.9416 87.1638L34.96 83.9757H38.0561C38.524 83.9757 38.9094 83.5935 38.9094 83.1256C38.9094 82.6529 38.5256 82.2723 38.0561 82.2723H35.8958V64.143C35.8577 64.1747 35.8181 64.2096 35.7737 64.2397C35.715 64.2762 35.6484 64.2715 35.5865 64.2952C35.6484 64.2699 35.715 64.2762 35.7721 64.2397C35.8149 64.2112 35.8561 64.1779 35.8942 64.143V63.8559V64.143C36.0147 64.0335 36.1036 63.9035 36.1607 63.7591H36.1623C36.1623 63.7576 36.1623 63.7576 36.1623 63.756C36.2765 63.4578 36.2543 63.112 36.0671 62.8265C36.2558 63.1136 36.278 63.4578 36.1623 63.756L47.8027 59.3878V61.5338C47.8027 61.7733 47.9994 61.9684 48.2389 61.9684H52.1614C52.3993 61.9684 52.5944 61.7733 52.5944 61.5338V57.5939L54.558 56.858L55.1163 56.6454V56.5756C55.1163 56.4186 54.991 56.2965 54.8403 56.2965C54.9942 56.2965 55.1179 56.4186 55.1179 56.5756V56.6454L66.0526 52.5485L77.4171 56.7787V56.7802L77.4202 56.7818V61.6797H76.3988C76.2433 61.6797 76.1196 61.8035 76.1196 61.9621V66.4968C76.1196 66.6506 76.2433 66.7759 76.3988 66.7759H78.908C79.0635 66.7759 79.1872 66.6506 79.1872 66.4968V61.9621C79.1872 61.8035 79.0635 61.6797 78.908 61.6797H77.9786V56.988L77.9754 56.9864V56.5756C77.9785 56.417 77.8548 56.2965 77.6994 56.2949C77.6994 56.2949 77.6994 56.2949 77.7026 56.2949C77.858 56.2949 77.9786 56.417 77.9786 56.574V56.9864L79.8502 57.6843V56.2299L66.2889 51.1781C66.135 51.1194 65.9653 51.1226 65.8131 51.1781L52.5944 56.1363V54.4455C52.5944 54.2012 52.3977 54.0093 52.1614 54.0093H50.7101V52.8752L66.051 47.1224L81.882 53.0116V50.8339L66.4079 45.0747C66.1779 44.9891 65.9257 44.9891 65.6941 45.0747L50.7101 50.6912V46.0882L50.1597 46.296L50.7085 46.0867V46.0312C50.7085 45.7901 50.5118 45.5966 50.2739 45.5966C50.515 45.5966 50.7117 45.7916 50.7117 46.0296V46.0867L66.0526 40.3338L81.882 46.2278V50.8339V53.0116L82.7559 53.3415V51.1606V46.5562L86.994 48.1312V52.7372L87.676 52.9926V55.1719V56.2013H90.4422L92.2726 56.8818L99.3419 59.5147L100.441 57.7446L94.4836 55.5256V56.2029C94.4836 56.5788 94.1775 56.8833 93.8048 56.8833H93.8016C94.1759 56.8833 94.4836 56.5804 94.4836 56.2029V55.5288L93.8016 55.2734V56.2029V55.275L93.1196 55.0197V55.5209H88.615L89.8332 55.9745L88.6119 55.5209L88.3517 55.4257V53.2464V48.6387V45.8043H88.5468L88.55 45.8059H90.2408V45.8043H91.4558H91.5303H93.1196V47.5047L93.8016 47.7584V45.1239V47.7584V50.6642L94.4836 50.918V48.0106V45.1239C94.4836 44.7464 94.1775 44.4403 93.8016 44.4403H91.5335V40.9905L107.196 46.8226L104.219 51.6349L105.133 51.9775L104.181 54.5311L104.178 54.5295L105.133 51.9775L104.219 51.6349L104.216 51.6365L94.4821 48.0106V50.918L102.754 53.9998L100.44 57.7446L99.3435 59.5131L97.3482 62.7424L98.1967 63.0581C98.4315 63.1469 98.5774 63.3642 98.6123 63.6116C98.579 63.369 98.4331 63.1469 98.1936 63.0581L97.345 62.7424L97.3418 62.7456L84.6402 58.0142L84.4166 57.9286L84.6402 58.0127V54.4407C84.6402 54.1996 84.4451 54.0077 84.2072 54.0077H82.7543V54.4407V54.4439V54.8769H83.771V57.6859L84.2072 57.8493V59.299L84.6402 59.4639V59.4655L97.0072 64.07V64.0716L97.0135 64.0748C97.069 64.2191 97.1562 64.3444 97.2768 64.4507V64.4586C97.3196 64.4951 97.3672 64.5347 97.4195 64.5665C97.5861 64.6696 97.7701 64.7187 97.9556 64.7187C98.1793 64.7187 98.395 64.6331 98.5758 64.4951C98.3966 64.6363 98.1825 64.7203 97.9556 64.7203C97.7764 64.7203 97.5877 64.6712 97.4195 64.5665C97.3672 64.5347 97.3228 64.4967 97.2736 64.4586V81.6442V82.1612C97.2149 82.1945 97.1499 82.2215 97.1007 82.2707C97.0976 82.2707 97.0976 82.2723 97.0976 82.2723H95.2545C94.7802 82.2723 94.4059 82.6529 94.4059 83.1256C94.4059 83.5935 94.7802 83.9757 95.2545 83.9757H97.5433L100.56 87.1622C100.727 87.3399 100.953 87.4303 101.177 87.4303C101.388 87.4303 101.599 87.3542 101.762 87.1987C102.103 86.872 102.122 86.3359 101.796 85.9917L99.7131 83.7949C99.9208 83.6379 100.064 83.4032 100.064 83.1256C100.064 82.6529 99.6829 82.2723 99.2118 82.2723H98.6361V64.4586V63.6973C98.6361 63.6989 98.6393 63.6989 98.6393 63.7005V64.4586C98.7106 64.3952 98.7725 64.3206 98.8248 64.235L101.523 59.8747C101.405 59.9572 101.266 60.0001 101.126 60.0254C101.266 60.0001 101.402 59.9572 101.523 59.8747V59.8732C101.696 59.7621 101.832 59.5892 101.913 59.3846C101.938 59.3085 101.953 59.234 101.965 59.1578C102.005 58.8327 101.884 58.5139 101.653 58.2918C101.884 58.5139 102.01 58.8311 101.969 59.1578L113.893 39.8881V41.2046C113.893 41.6773 114.27 42.0595 114.741 42.0595C115.209 42.0595 115.59 41.6773 115.59 41.2046V39.3901L115.733 39.4424C115.733 39.4424 115.736 39.4424 115.736 39.444L129.865 44.6782C130.216 44.8098 130.577 44.8685 130.931 44.8685C132.176 44.8685 133.343 44.1056 133.803 42.8684C134.401 41.2887 133.592 39.5233 132.003 38.9349ZM78.6304 62.2365V66.2176H76.6795V62.2365H77.4234V62.2396H77.9817V61.9605V62.2365H78.6304ZM78.9096 61.9605V66.4952V61.9605ZM97.2578 64.1636L97.28 64.1715L97.2578 64.1636ZM100.96 60.0508C100.901 60.0508 100.839 60.0286 100.781 60.0175C100.839 60.0286 100.898 60.0508 100.96 60.0508ZM101.315 58.0729C101.429 58.1142 101.529 58.1744 101.615 58.2474C101.529 58.1744 101.431 58.1142 101.315 58.0729ZM115.765 36.8666V36.8698L115.595 37.1426V37.1378L115.765 36.8666V34.7951C115.765 34.6095 115.612 34.4573 115.424 34.4541C115.436 34.4541 115.446 34.4636 115.457 34.4636C115.627 34.489 115.766 34.6222 115.766 34.7951V36.8602L115.765 36.8666ZM115.42 34.4573C115.346 34.4573 115.278 34.4938 115.203 34.5112C115.278 34.4938 115.346 34.4557 115.424 34.4557L115.42 34.4573ZM115.593 38.4717C115.619 38.4575 115.646 38.4606 115.665 38.4416C115.646 38.4606 115.619 38.4606 115.593 38.4749V38.4717ZM115.768 33.4342C115.768 33.6214 115.615 33.7737 115.427 33.7737C115.238 33.7737 115.086 33.6214 115.086 33.4358V33.4342C115.086 33.623 115.238 33.7737 115.427 33.7737C115.612 33.7737 115.768 33.623 115.768 33.4342ZM17.1908 38.4733C17.2352 38.4432 17.2637 38.413 17.2923 38.3702C17.2653 38.4146 17.2368 38.4464 17.1908 38.4733ZM17.3605 33.4327V33.4358C17.3605 33.6214 17.2082 33.7737 17.0226 33.7737C17.2082 33.7737 17.3605 33.623 17.3605 33.4327ZM16.4611 34.6191C16.5801 34.5413 16.7086 34.4922 16.8386 34.4684C16.7086 34.4906 16.5801 34.5413 16.4611 34.6191C16.109 34.8506 15.9457 35.2614 16.0154 35.6516C16.0154 35.6516 16.0154 35.6516 16.0139 35.6516C15.9457 35.2614 16.109 34.8475 16.4611 34.6191ZM17.3621 37.8706V37.8674V37.8658V34.7951C17.3621 34.6222 17.2288 34.4938 17.0623 34.47C17.0623 34.47 17.0623 34.47 17.0639 34.47C17.2288 34.4938 17.3636 34.6222 17.3636 34.7983L17.3621 37.8706ZM24.0095 45.4538L24.6058 47.0463L25.2974 46.7877L24.6058 47.0494L24.0095 45.4538ZM28.0414 51.6777L28.2333 51.6063L28.0414 51.6777ZM28.9962 54.2329L30.1794 53.7872L28.6552 51.4477L25.5575 46.691L41.1458 40.8446V44.4419H41.1395V44.4435H38.6429C38.267 44.4435 37.9593 44.748 37.9593 45.1255V47.9567L28.652 51.4477L30.1763 53.7872L37.9593 50.8688V50.8704V55.4701L38.6414 55.2179L37.9593 55.4717V55.4733L32.5872 57.4892L33.7292 59.2419V59.2435L32.5872 57.4892L31.8575 57.7652C31.7259 57.8144 31.6101 57.8874 31.5149 57.9793C31.6117 57.8874 31.7275 57.8144 31.8591 57.762L32.5872 57.4876L30.1763 53.7872L28.9962 54.2329ZM42.5051 45.1255V45.5077C42.5035 45.614 42.4718 45.7155 42.429 45.8059H43.7058L44.2403 45.6045L43.7074 45.8059H44.0912V48.5705L44.7733 48.3152V48.3167L44.0912 48.5705V53.1734V53.1766V55.3575V55.5225H43.6503H39.325V54.9626L38.6445 55.2179L39.325 54.961V50.3581V47.4476L38.6445 47.7029L39.3234 47.4476V45.8043H39.325H41.214C41.1696 45.7139 41.1411 45.614 41.1411 45.5077V45.5061C41.1411 45.6124 41.1696 45.7139 41.214 45.8043H42.429C42.4734 45.7139 42.5051 45.614 42.5051 45.5061V45.1255H42.5035V44.4419H42.5051V45.1255ZM38.6429 50.6134L38.3019 50.7403L38.6429 50.6134ZM35.2122 64.4047C35.1456 64.4047 35.0821 64.3809 35.0171 64.3698C35.0821 64.3809 35.1456 64.4047 35.2122 64.4047ZM48.6751 59.0611V57.6082V54.8785H49.8377V54.4439V54.4487V54.8801H50.7101H51.7268V56.463V57.9191V61.0976H48.6767V59.0611L48.2405 59.226V59.2244L48.6751 59.0611ZM52.163 56.2996L52.3787 56.2188L52.163 56.2996ZM49.8377 51.0211V53.202V54.0061H48.2389C47.9994 54.0061 47.8027 54.2012 47.8027 54.4423V57.9333L35.8101 62.4284V62.43L33.7323 59.2419L40.0181 56.8849H38.6429C38.267 56.8849 37.9593 56.5788 37.9593 56.2045V56.2013C37.9593 56.5772 38.2654 56.8818 38.6429 56.8818H40.0149L41.831 56.2013H41.8326L40.0165 56.8818H44.7717C45.1476 56.8818 45.4505 56.5788 45.4505 56.2013V54.8452V52.6643L44.7717 52.9181L45.4505 52.6627V48.0614L49.8361 46.4166V46.4182V51.0211H49.8377ZM81.8836 46.0312C81.8836 45.9598 81.9296 45.909 81.9613 45.8503C81.9296 45.909 81.8836 45.9598 81.8836 46.0312ZM82.518 46.4642L82.7559 46.553L82.518 46.4642ZM87.676 48.3834H87.6729V45.4792H87.676V48.3834ZM87.676 44.4419C87.2986 44.4419 86.994 44.7464 86.994 45.1255V45.2238L87.3969 45.3761L86.994 45.2254V45.2286L66.5268 37.6041C66.2191 37.4899 65.8828 37.4899 65.5736 37.6041L45.4521 45.1509V45.1255C45.4521 44.748 45.1492 44.4419 44.7733 44.4419H42.5067V40.3354L66.0589 31.5039L90.1742 40.4845V40.4877V44.4419V44.4466V45.1255V44.4419H87.676ZM91.5319 37.3615V31.9782C91.5319 31.6039 91.2289 31.2962 90.8499 31.2962C90.4755 31.2962 90.171 31.6023 90.171 31.9782V36.8476L66.6458 28.0906C66.2619 27.9463 65.84 27.9463 65.4546 28.0906L42.5035 36.7V31.975C42.5035 31.5991 42.1974 31.2962 41.8199 31.2962C41.444 31.2962 41.1427 31.5975 41.1427 31.975V37.2092L23.6494 43.7678L25.5543 46.6894H25.5527L23.6494 43.7709L23.4115 43.8613V43.8582L23.6494 43.7678L20.2821 38.6018L66.0716 21.0451L112.508 38.2497L114.556 34.9363C114.653 34.7808 114.786 34.6619 114.933 34.5794C114.784 34.6603 114.654 34.7793 114.559 34.9347L112.508 38.2513V38.2529L109.027 43.8756L91.5319 37.3615ZM116.294 36.0133L116.083 36.3495L116.294 36.0101C116.366 35.8911 116.412 35.7627 116.434 35.631C116.415 35.7642 116.369 35.8927 116.294 36.0133Z" fill="black"/>
<path d="M45.4512 54.8488L49.8368 53.2024V51.0215L45.4512 52.6647V54.8488Z" fill="black"/>
<path d="M54.5607 61.6789H53.5377C53.3839 61.6789 53.2617 61.8026 53.2617 61.9612V66.4959C53.2617 66.6497 53.3839 66.775 53.5377 66.775H56.0485C56.2055 66.775 56.3293 66.6497 56.3293 66.4959V61.9612C56.3293 61.8026 56.2055 61.6789 56.0485 61.6789H55.1191V56.6445L54.5607 56.8571V61.6789ZM55.7725 66.2167H53.8169V62.2356H54.5607V62.2387H55.1191V62.2356H55.7725V66.2167Z" fill="black"/>
<path d="M84.2067 61.5324V59.304L83.7705 59.1438V61.0963H80.722V58.0081L80.2858 57.8447L80.722 58.0097V56.5568V54.8787H81.8798V54.8803H82.7538V54.4489V54.4441V54.0111V53.3433L81.8798 53.0166V54.0079H80.2826C80.0447 54.0079 79.8496 54.203 79.8496 54.4441V56.2317V57.6845L80.1684 57.8019L79.8496 57.6861V61.534C79.8496 61.7735 80.0447 61.9686 80.2858 61.9686H84.2082C84.4462 61.9686 84.6413 61.7735 84.6413 61.534V59.4689L84.2082 59.3087V61.5324H84.2067ZM80.2826 54.4441V56.3903V54.4441Z" fill="black"/>
<path d="M83.7715 59.1421L84.2077 59.3023V57.8526L83.7715 57.6924V59.1421Z" fill="black"/>
<path d="M86.994 56.206C86.994 56.5787 87.2969 56.8864 87.6728 56.8864H92.2725L90.4422 56.206H87.6728V56.2028V55.1718V52.9941L86.994 52.7419V52.7403L82.7559 51.1621V53.343L86.994 54.9212V56.206V56.206Z" fill="black"/>
<path d="M94.4848 50.9202L93.8027 50.668V55.274L94.4848 55.5262V50.9202Z" fill="black"/>
<path d="M93.8031 50.6658V47.76L93.1211 47.5078V50.4152V55.0196L93.8031 55.2734V50.6658Z" fill="black"/>
</svg>
