<svg width="136" height="112" viewBox="0 0 136 112" fill="none" xmlns="http://www.w3.org/2000/svg">
<path d="M61.849 21.7793L13.3594 49.4703H27.7852V85.0137H35.7107V56.509H56.2728V85.0137H95.9127V49.4703H110.34L61.849 21.7793ZM75.528 70.9239H62.0621V56.831H75.528V70.9239ZM90.5155 70.9239H77.048V56.831H90.5155V70.9239Z" fill="black"/>
<path d="M101.766 89.0723H21.937V93.091H16.8027V94.5862H22.0319V93.8378H25.2059V94.5862H30.4335V93.8378H33.6075V94.5862H38.8336V93.8378H42.009V94.5862H47.2351V93.8378H50.4091V94.5862H55.6367V93.8378H58.8106V94.5862H64.0399V93.8378H67.2122V94.5862H72.4414V93.8378H75.6138V94.5862H80.8415V93.8378H84.017V94.5862H89.243V93.8378H92.4185V94.5862H97.6446V93.8378H100.817V94.5862H106.048V93.091H101.766V89.0723Z" fill="black"/>
<path d="M55.6339 13.3496H50.4062V14.8448H55.6339V13.3496Z" fill="black"/>
<path d="M38.8331 13.3496H33.6055V14.8448H38.8331V13.3496Z" fill="black"/>
<path d="M64.0378 13.3496H58.8086V14.8448H64.0378V13.3496Z" fill="black"/>
<path d="M5.22765 13.3496H0V14.8448H5.22765V13.3496Z" fill="black"/>
<path d="M47.2355 13.3496H42.0078V14.8448H47.2355V13.3496Z" fill="black"/>
<path d="M106.048 13.3496H100.818V14.8448H106.048V13.3496Z" fill="black"/>
<path d="M131.25 13.3496H126.023V14.8448H131.25V13.3496Z" fill="black"/>
<path d="M72.4421 13.3496H67.2129V14.8448H72.4421V13.3496Z" fill="black"/>
<path d="M97.6441 13.3496H92.418V14.8448H97.6441V13.3496Z" fill="black"/>
<path d="M89.2417 13.3496H84.0156V14.8448H89.2417V13.3496Z" fill="black"/>
<path d="M80.8394 13.3496H75.6133V14.8448H80.8394V13.3496Z" fill="black"/>
<path d="M22.0304 13.3496H16.8027V14.8448H22.0304V13.3496Z" fill="black"/>
<path d="M5.22765 93.0908H0V94.586H5.22765V93.0908Z" fill="black"/>
<path d="M131.25 93.0908H126.023V94.586H131.25V93.0908Z" fill="black"/>
<path d="M13.6261 93.0908H8.39844V94.586H12.6101V99.3827H14.1037V94.155H13.6261V93.0908Z" fill="black"/>
<path d="M123.14 80.5615H121.648V85.7892H123.14V80.5615Z" fill="black"/>
<path d="M123.14 72.1582H121.648V77.3874H123.14V72.1582Z" fill="black"/>
<path d="M121.648 93.0911H117.621V94.5863H122.849V93.7321H123.14V88.9619H121.648V93.0911Z" fill="black"/>
<path d="M123.14 55.3574H121.648V60.5866H123.14V55.3574Z" fill="black"/>
<path d="M123.14 63.7588H121.648V68.9864H123.14V63.7588Z" fill="black"/>
<path d="M123.14 30.1504H121.648V35.3796H123.14V30.1504Z" fill="black"/>
<path d="M123.14 21.751H121.648V26.9786H123.14V21.751Z" fill="black"/>
<path d="M121.648 18.5788H123.14V13.3496H122.849H121.648H117.621V14.8448H121.648V18.5788Z" fill="black"/>
<path d="M123.14 38.5537H121.648V43.7814H123.14V38.5537Z" fill="black"/>
<path d="M28.3288 20.6603H29.8209V14.8445H30.4308V13.3493H29.8209V2.31836H28.3288V13.3493H25.2031V14.8445H28.3288V20.6603Z" fill="black"/>
<path d="M123.14 49.0452V46.9541H121.648V49.0452H115.832V50.5403H121.648V52.1849H123.14V50.5403H135.912V49.0452H123.14Z" fill="black"/>
<path d="M110.076 25.2051H108.584V30.4327H110.076V25.2051Z" fill="black"/>
<path d="M110.076 84.0156H108.584V89.2448H110.076V84.0156Z" fill="black"/>
<path d="M110.076 67.2129H108.584V72.4405H110.076V67.2129Z" fill="black"/>
<path d="M110.076 50.4092H108.584V55.6368H110.076V50.4092Z" fill="black"/>
<path d="M110.076 58.8096H108.584V64.0388H110.076V58.8096Z" fill="black"/>
<path d="M110.076 8.40137H108.584V13.629H109.219V14.8441H114.448V13.349H110.076V8.40137Z" fill="black"/>
<path d="M110.076 75.6133H108.584V80.8425H110.076V75.6133Z" fill="black"/>
<path d="M110.076 100.817H108.584V104.934H110.076V100.817Z" fill="black"/>
<path d="M110.076 16.8008H108.584V22.03H110.076V16.8008Z" fill="black"/>
<path d="M110.076 42.0078H108.584V47.237H110.076V42.0078Z" fill="black"/>
<path d="M110.076 92.418H108.584V97.6456H110.076V94.5868H114.448V93.0916H110.076V92.418Z" fill="black"/>
<path d="M110.076 33.6055H108.584V38.8347H110.076V33.6055Z" fill="black"/>
<path d="M110.076 0H108.584V5.22921H110.076V0Z" fill="black"/>
<path d="M14.103 35.3428H12.6094V40.572H14.103V35.3428Z" fill="black"/>
<path d="M14.103 1.73828H12.6094V6.96749H14.103V1.73828Z" fill="black"/>
<path d="M14.103 60.5488H12.6094V65.778H14.103V60.5488Z" fill="black"/>
<path d="M14.103 26.9424H12.6094V32.17H14.103V26.9424Z" fill="black"/>
<path d="M14.103 68.9502H12.6094V74.1778H14.103V68.9502Z" fill="black"/>
<path d="M14.103 77.3506H12.6094V82.5798H14.103V77.3506Z" fill="black"/>
<path d="M14.103 102.557H12.6094V106.673H14.103V102.557Z" fill="black"/>
<path d="M12.6101 15.3673H14.1037V10.1396H12.6101V13.3494H8.39844V14.8445H12.6101V15.3673Z" fill="black"/>
<path d="M14.103 85.7539H12.6094V90.9831H14.103V85.7539Z" fill="black"/>
<path d="M14.103 18.541H12.6094V23.7702H14.103V18.541Z" fill="black"/>
<path d="M14.103 52.1475H12.6094V57.3751H14.103V52.1475Z" fill="black"/>
<path d="M14.103 43.7461H12.6094V48.9753H14.103V43.7461Z" fill="black"/>
<path d="M56.1502 106.518H35.0405V102.57H33.5469V106.518V108.013V111.961H35.0405V108.013H56.1502V111.961H57.6439V102.57H56.1502V106.518Z" fill="black"/>
</svg>
