<svg width="82" height="82" viewBox="0 0 82 82" fill="none" xmlns="http://www.w3.org/2000/svg">
<path d="M1.03012 10.2244C4.4139 10.9009 7.03661 13.5236 7.71311 16.9073C7.83227 17.507 8.35758 17.9375 8.96873 17.9375C9.57989 17.9375 10.1052 17.507 10.2244 16.9073C10.9009 13.5236 13.5236 10.9009 16.9073 10.2244C17.5057 10.1052 17.9375 9.57989 17.9375 8.96873C17.9375 8.35758 17.5057 7.83227 16.9073 7.71311C13.5249 7.03533 10.9021 4.41262 10.2244 1.03012C10.1052 0.430499 9.57989 0 8.96873 0C8.35758 0 7.83227 0.430499 7.71311 1.03012C7.03533 4.41262 4.41262 7.03533 1.03012 7.71311C0.431781 7.83227 0 8.35758 0 8.96873C0 9.57989 0.431781 10.1052 1.03012 10.2244ZM8.96873 4.8854C9.94376 6.58561 11.3519 7.99371 13.0521 8.96873C11.3519 9.94376 9.94376 11.3519 8.96873 13.0521C7.99371 11.3519 6.58561 9.94376 4.8854 8.96873C6.58561 7.99371 7.99371 6.58561 8.96873 4.8854Z" fill="black"/>
<path d="M74.3124 19.2193C74.3124 17.1002 72.5878 15.3756 70.4686 15.3756H65.1079C65.2514 14.9733 65.3436 14.5453 65.3436 14.0943C65.3436 13.3884 65.9176 12.8131 66.6249 12.8131H76.8749V10.2506H66.6249C64.5057 10.2506 62.7811 11.9752 62.7811 14.0943C62.7811 14.8003 62.2071 15.3756 61.4999 15.3756H56.8707L61.4333 1.68674C61.6024 1.18193 61.4422 0.627151 61.031 0.290183C60.6222 -0.046785 60.0431 -0.09291 59.5832 0.168465L51.3704 4.86168L45.6445 0.281214C45.1768 -0.09291 44.5106 -0.09291 44.0429 0.281214L38.317 4.86168L30.1042 0.168465C29.6455 -0.0941912 29.0677 -0.046785 28.6564 0.290183C28.2451 0.627151 28.085 1.18193 28.2541 1.68674L32.8486 15.4691C32.3707 15.6562 32.0312 16.1136 32.0312 16.6568V17.6549C17.4314 23.0144 7.68749 36.9147 7.68749 52.5318V79.438H0V82.0005H8.96873H80.7186C81.4271 82.0005 81.9999 81.4265 81.9999 80.7192V52.5318C81.9999 37.1645 72.5545 23.4782 58.3429 17.9381H61.4999H70.4686C71.1759 17.9381 71.7499 18.5134 71.7499 19.2193C71.7499 21.3385 73.4744 23.0631 75.5936 23.0631H81.9999V20.5006H75.5936C74.8864 20.5006 74.3124 19.9253 74.3124 19.2193ZM37.8019 7.51898C38.2568 7.78036 38.8282 7.73551 39.2382 7.40752L44.8437 2.92315L50.4491 7.40752C50.8591 7.73423 51.4306 7.78036 51.8854 7.51898L57.9432 4.05833L54.1699 15.3756H35.5175L31.7455 4.05833L37.8019 7.51898ZM79.4374 52.5318V79.438H10.25V52.5318C10.25 37.7039 19.6825 24.5404 33.7237 19.7754C34.2452 19.5986 34.5937 19.1104 34.5937 18.5621V17.9381H55.0937V18.5621C55.0937 19.1104 55.4422 19.5986 55.9636 19.7754C70.0048 24.5404 79.4374 37.7039 79.4374 52.5318Z" fill="black"/>
<path d="M24.3438 51.2509C24.3438 62.5541 33.5405 71.7509 44.8437 71.7509C56.1469 71.7509 65.3437 62.5541 65.3437 51.2509C65.3437 39.9478 56.1469 30.751 44.8437 30.751C33.5405 30.751 24.3438 39.9478 24.3438 51.2509ZM62.7812 51.2509C62.7812 61.1422 54.7349 69.1884 44.8437 69.1884C34.9525 69.1884 26.9062 61.1422 26.9062 51.2509C26.9062 41.3597 34.9525 33.3135 44.8437 33.3135C54.7349 33.3135 62.7812 41.3597 62.7812 51.2509Z" fill="black"/>
<path d="M29.4688 51.251C29.4688 59.729 36.3657 66.6259 44.8437 66.6259C53.3217 66.6259 60.2187 59.729 60.2187 51.251C60.2187 42.7729 53.3217 35.876 44.8437 35.876C36.3657 35.876 29.4688 42.7729 29.4688 51.251ZM57.6562 51.251C57.6562 58.3158 51.9085 64.0634 44.8437 64.0634C37.7789 64.0634 32.0312 58.3158 32.0312 51.251C32.0312 44.1862 37.7789 38.4385 44.8437 38.4385C51.9085 38.4385 57.6562 44.1862 57.6562 51.251Z" fill="black"/>
<path d="M43.5625 41.001V43.5635H42.9219C40.4491 43.5635 38.4375 45.575 38.4375 48.0478C38.4375 50.5206 40.4491 52.5322 42.9219 52.5322H43.5625V56.376H39.7187V58.9384H43.5625V61.5009H46.125V58.9384H46.7656C49.2384 58.9384 51.25 56.9269 51.25 54.4541C51.25 51.9813 49.2384 49.9697 46.7656 49.9697H46.125V46.126H49.9687V43.5635H46.125V41.001H43.5625ZM46.7656 52.5322C47.8252 52.5322 48.6875 53.3945 48.6875 54.4541C48.6875 55.5137 47.8252 56.376 46.7656 56.376H46.125V52.5322H46.7656ZM43.5625 49.9697H42.9219C41.8623 49.9697 41 49.1074 41 48.0478C41 46.9882 41.8623 46.126 42.9219 46.126H43.5625V49.9697Z" fill="black"/>
<path d="M5.12499 23.0635C3.00581 23.0635 1.28125 24.788 1.28125 26.9072C1.28125 29.0264 3.00581 30.751 5.12499 30.751C7.24418 30.751 8.96874 29.0264 8.96874 26.9072C8.96874 24.788 7.24418 23.0635 5.12499 23.0635ZM5.12499 28.1885C4.41774 28.1885 3.84375 27.6132 3.84375 26.9072C3.84375 26.2013 4.41774 25.626 5.12499 25.626C5.83224 25.626 6.40624 26.2013 6.40624 26.9072C6.40624 27.6132 5.83224 28.1885 5.12499 28.1885Z" fill="black"/>
<path d="M76.875 64.0635H74.3125V66.626H76.875V64.0635Z" fill="black"/>
<path d="M71.75 64.0635H69.1875V66.626H71.75V64.0635Z" fill="black"/>
<path d="M66.625 64.0635H64.0625V66.626H66.625V64.0635Z" fill="black"/>
<path d="M76.875 58.9385H74.3125V61.501H76.875V58.9385Z" fill="black"/>
<path d="M71.75 58.9385H69.1875V61.501H71.75V58.9385Z" fill="black"/>
<path d="M76.875 74.3135H74.3125V76.876H76.875V74.3135Z" fill="black"/>
<path d="M71.75 74.3135H69.1875V76.876H71.75V74.3135Z" fill="black"/>
<path d="M66.625 74.3135H64.0625V76.876H66.625V74.3135Z" fill="black"/>
<path d="M76.875 69.1885H74.3125V71.751H76.875V69.1885Z" fill="black"/>
<path d="M71.75 69.1885H69.1875V71.751H71.75V69.1885Z" fill="black"/>
<path d="M82 0.000976562H79.4375V2.56347H82V0.000976562Z" fill="black"/>
<path d="M76.875 0.000976562H74.3125V2.56347H76.875V0.000976562Z" fill="black"/>
<path d="M71.75 0.000976562H69.1875V2.56347H71.75V0.000976562Z" fill="black"/>
<path d="M82 5.12598H79.4375V7.68847H82V5.12598Z" fill="black"/>
<path d="M76.875 5.12598H74.3125V7.68847H76.875V5.12598Z" fill="black"/>
<path d="M66.625 69.1885H64.0625V71.751H66.625V69.1885Z" fill="black"/>
<path d="M61.5 74.3135H58.9375V76.876H61.5V74.3135Z" fill="black"/>
<path d="M61.5 69.1885H58.9375V71.751H61.5V69.1885Z" fill="black"/>
<path d="M20.5 14.0947H17.9375V16.6572H20.5V14.0947Z" fill="black"/>
</svg>
