<svg width="115" height="99" viewBox="0 0 115 99" fill="none" xmlns="http://www.w3.org/2000/svg">
<path d="M83.3196 33.7803H77.1086H73.8967H30.7758H21.6453H17.5215V36.689H22.2409H31.37H73.8967V49.4062V57.2804H77.1086V49.4062V36.689H83.3196V33.7803Z" fill="black"/>
<path d="M73.4096 58.2686H72.9177H26.6434H26.3828V64.1871V66.1427V91.0121H28.7159V91.8376H33.1828V90.5601H30.6635L33.8834 66.1427H69.6101L72.8273 90.5601H71.789V91.8376H76.2559V91.0121H77.1093V64.1871V59.2922V58.8056V58.3177V58.2686H73.8975H73.4096Z" fill="black"/>
<path d="M21.4512 32.8038H30.579L26.6519 13.5645H17.5215L21.4512 32.8038Z" fill="black"/>
<path d="M26.4469 57.2805H72.9166V49.4064H33.97L31.5744 37.6689H22.4453L26.4469 57.2898V57.2805Z" fill="black"/>
<path d="M97.7917 10.248H93.3262V11.5256H97.7917V10.248Z" fill="black"/>
<path d="M104.971 10.248H100.504V11.5256H104.971V10.248Z" fill="black"/>
<path d="M112.15 10.248H107.684V11.5256H112.15V10.248Z" fill="black"/>
<path d="M83.4323 10.248H78.9668V11.5256H83.4323V10.248Z" fill="black"/>
<path d="M54.7188 10.248H50.252V11.5256H54.7188V10.248Z" fill="black"/>
<path d="M69.0762 10.248H64.6094V11.5256H69.0762V10.248Z" fill="black"/>
<path d="M26.0039 10.248H21.5371V11.5256H26.0039V10.248Z" fill="black"/>
<path d="M47.5411 10.248H43.0742V11.5256H47.5411V10.248Z" fill="black"/>
<path d="M33.1817 10.248H28.7148V11.5256H33.1817V10.248Z" fill="black"/>
<path d="M4.46684 10.248H0V11.5256H4.46684V10.248Z" fill="black"/>
<path d="M61.8972 10.248H57.4316V11.5256H61.8972V10.248Z" fill="black"/>
<path d="M40.3614 10.248H35.8945V11.5256H40.3614V10.248Z" fill="black"/>
<path d="M18.8262 10.248H14.3594V11.5256H18.8262V10.248Z" fill="black"/>
<path d="M69.0762 90.5596H64.6094V91.8371H69.0762V90.5596Z" fill="black"/>
<path d="M61.8972 90.5596H57.4316V91.8371H61.8972V90.5596Z" fill="black"/>
<path d="M4.46684 90.5596H0V91.8371H4.46684V90.5596Z" fill="black"/>
<path d="M54.7188 90.5596H50.252V91.8371H54.7188V90.5596Z" fill="black"/>
<path d="M26.0039 90.5596H21.5371V91.8371H26.0039V90.5596Z" fill="black"/>
<path d="M18.8262 90.5596H14.3594V91.8371H18.8262V90.5596Z" fill="black"/>
<path d="M47.5411 90.5596H43.0742V91.8371H47.5411V90.5596Z" fill="black"/>
<path d="M40.3614 90.5596H35.8945V91.8371H40.3614V90.5596Z" fill="black"/>
<path d="M83.4323 90.5596H78.9668V91.8371H83.4323V90.5596Z" fill="black"/>
<path d="M104.971 90.5596H100.504V91.8371H104.971V90.5596Z" fill="black"/>
<path d="M97.7917 90.5596H93.3262V91.8371H97.7917V90.5596Z" fill="black"/>
<path d="M111.831 90.5596H107.684V91.8371H111.831V90.5596Z" fill="black"/>
<path d="M102.751 34.3086H101.475V38.7754H102.751V34.3086Z" fill="black"/>
<path d="M102.751 27.1279H101.475V31.5961H102.751V27.1279Z" fill="black"/>
<path d="M102.751 19.9502H101.475V24.417H102.751V19.9502Z" fill="black"/>
<path d="M102.751 48.6641H101.475V53.1322H102.751V48.6641Z" fill="black"/>
<path d="M102.751 12.7705H101.475V17.2387H102.751V12.7705Z" fill="black"/>
<path d="M102.751 70.2031H101.475V74.67H102.751V70.2031Z" fill="black"/>
<path d="M102.751 41.4863H101.475V45.9545H102.751V41.4863Z" fill="black"/>
<path d="M102.751 84.5586H101.475V89.0268H102.751V84.5586Z" fill="black"/>
<path d="M102.751 77.3799H101.475V81.8481H102.751V77.3799Z" fill="black"/>
<path d="M102.751 63.0225H101.475V67.4906H102.751V63.0225Z" fill="black"/>
<path d="M113.467 58.1233H102.748V55.8447H101.472V58.1233H96.9383C96.5328 58.1233 96.2031 58.453 96.2031 58.8598C96.2031 59.2666 96.5328 59.5963 96.9383 59.5963H101.472V60.3129H102.748V59.5963H113.467C113.874 59.5963 114.203 59.2666 114.203 58.8598C114.203 58.453 113.874 58.1233 113.467 58.1233Z" fill="black"/>
<path d="M96.2051 33.4201C96.2051 33.8269 96.5348 34.1566 96.9402 34.1566H113.469C113.876 34.1566 114.205 33.8269 114.205 33.4201C114.205 33.0133 113.876 32.6836 113.469 32.6836H96.9402C96.5348 32.6836 96.2051 33.0133 96.2051 33.4201Z" fill="black"/>
<path d="M87.6962 79.8672H86.4199V84.334H87.6962V79.8672Z" fill="black"/>
<path d="M87.6939 8.0791H86.4177V10.2487H86.1465V11.5263H86.4177V12.5459H87.6939V11.5263H90.612V10.2487H87.6939V8.0791Z" fill="black"/>
<path d="M87.6962 0.899414H86.4199V5.36758H87.6962V0.899414Z" fill="black"/>
<path d="M87.6962 29.6133H86.4199V34.0815H87.6962V29.6133Z" fill="black"/>
<path d="M87.6962 22.4365H86.4199V26.9034H87.6962V22.4365Z" fill="black"/>
<path d="M87.6962 15.2568H86.4199V19.725H87.6962V15.2568Z" fill="black"/>
<path d="M87.6962 94.2256H86.4199V98.6924H87.6962V94.2256Z" fill="black"/>
<path d="M87.6939 87.0449H86.4177V90.5599H86.1465V91.8375H90.612V90.5599H87.6939V87.0449Z" fill="black"/>
<path d="M87.6962 72.6885H86.4199V77.1566H87.6962V72.6885Z" fill="black"/>
<path d="M87.6962 58.3301H86.4199V62.7969H87.6962V58.3301Z" fill="black"/>
<path d="M87.6962 36.7939H86.4199V41.2621H87.6962V36.7939Z" fill="black"/>
<path d="M87.6962 65.5088H86.4199V69.977H87.6962V65.5088Z" fill="black"/>
<path d="M87.6962 43.9736H86.4199V48.4405H87.6962V43.9736Z" fill="black"/>
<path d="M87.6962 51.1504H86.4199V55.6186H87.6962V51.1504Z" fill="black"/>
<path d="M12.493 29.7617H11.2168V34.2299H12.493V29.7617Z" fill="black"/>
<path d="M12.493 36.9404H11.2168V41.4086H12.493V36.9404Z" fill="black"/>
<path d="M12.493 94.3711H11.2168V96.6577H12.493V94.3711Z" fill="black"/>
<path d="M12.493 44.1191H11.2168V48.586H12.493V44.1191Z" fill="black"/>
<path d="M12.493 1.04688H11.2168V5.51504H12.493V1.04688Z" fill="black"/>
<path d="M12.493 51.2979H11.2168V55.766H12.493V51.2979Z" fill="black"/>
<path d="M11.2171 10.248H7.17969V11.5256H11.2171V12.6928H12.4934V8.22461H11.2171V10.248Z" fill="black"/>
<path d="M12.493 15.4043H11.2168V19.8725H12.493V15.4043Z" fill="black"/>
<path d="M12.493 22.582H11.2168V27.0489H12.493V22.582Z" fill="black"/>
<path d="M12.493 58.4766H11.2168V62.9434H12.493V58.4766Z" fill="black"/>
<path d="M11.2171 90.5598H7.17969V91.8374H11.6465V91.6606H12.4934V87.1924H11.2171V90.5598Z" fill="black"/>
<path d="M12.493 80.0137H11.2168V84.4805H12.493V80.0137Z" fill="black"/>
<path d="M12.493 72.835H11.2168V77.3031H12.493V72.835Z" fill="black"/>
<path d="M12.493 65.6562H11.2168V70.1244H12.493V65.6562Z" fill="black"/>
<path d="M76.0073 11.9967C76.0073 12.3569 76.2984 12.6467 76.6574 12.6467C77.0163 12.6467 77.3061 12.3556 77.3061 11.9967V0.650085C77.3061 0.289813 77.015 0 76.6574 0C76.2971 0 76.0073 0.291142 76.0073 0.650085V10.2485H71.7891V11.526H76.0073V11.9967Z" fill="black"/>
</svg>
