<svg width="105" height="109" viewBox="0 0 105 109" fill="none" xmlns="http://www.w3.org/2000/svg">
<path d="M8.42876 70.4106C8.54308 70.4106 8.64712 70.3862 8.73704 70.3451C8.9721 70.2423 9.13908 70.0163 9.13908 69.7478C9.13908 69.383 8.81539 69.0889 8.41848 69.0889C8.02157 69.0889 7.69531 69.383 7.69531 69.7478C7.69531 70.006 7.86744 70.2321 8.09993 70.3451C8.21039 70.3862 8.31444 70.4106 8.42876 70.4106Z" fill="black"/>
<path d="M13.2951 65.2083H13.4466H13.647H13.9977V61.1416H10.0723V65.2083H10.4216H10.6606H10.7749V62.3888V61.7851H13.2951V61.9958V65.2083Z" fill="black"/>
<path d="M11.8672 68.9174C12.6649 68.9174 13.4395 68.8224 14.1331 68.6618C16.2602 68.1532 17.7553 66.938 17.7553 65.5264H14.0098H13.6578H13.5191H10.6701H10.4325H10.0818H5.97656C5.97656 66.9689 7.53337 68.2032 9.74012 68.6965C10.3991 68.8391 11.1171 68.9174 11.8672 68.9174Z" fill="black"/>
<path d="M12.9565 83.452C12.9565 83.4032 12.9475 83.3634 12.9475 83.3223C12.8319 83.3544 12.7176 83.3788 12.5955 83.3788C12.4697 83.3788 12.3502 83.3544 12.2436 83.3223C12.2436 83.3621 12.2346 83.4096 12.2346 83.452L11.4806 85.9272C11.4511 85.9991 11.4434 86.0724 11.4434 86.1533C11.4434 86.8777 11.9546 87.4596 12.5878 87.4596C13.2211 87.4596 13.7285 86.8713 13.7285 86.1533C13.7285 86.0724 13.7208 85.9991 13.7118 85.9272L12.9565 83.452Z" fill="black"/>
<path d="M12.0398 60.6807C15.8791 60.3018 12.0398 55.0059 12.0398 55.0059C12.0398 55.0059 8.20173 60.3018 12.0398 60.6807Z" fill="black"/>
<path d="M7.28711 73.5136C7.28711 74.2394 7.79448 74.82 8.42774 74.82C9.06099 74.82 9.57222 74.2317 9.57222 73.5136C9.57222 73.4314 9.56066 73.3595 9.55424 73.2876L8.79639 70.8111C8.79639 70.7623 8.7874 70.7212 8.7874 70.6826C8.67308 70.7147 8.56133 70.7404 8.43673 70.7404C8.31213 70.7404 8.19139 70.7147 8.08606 70.6826C8.08606 70.7199 8.07579 70.7725 8.07579 70.8111L7.31922 73.2876C7.29225 73.3595 7.28711 73.4301 7.28711 73.5136Z" fill="black"/>
<path d="M11.8672 82.3868C11.8672 82.645 12.0329 82.8723 12.2692 82.9841C12.3669 83.0252 12.4709 83.0496 12.5801 83.0496C12.6803 83.0496 12.7959 83.0252 12.8845 82.9841C13.1234 82.88 13.2878 82.6552 13.2878 82.3868C13.2878 82.0258 12.9629 81.7266 12.5672 81.7266C12.1716 81.7266 11.8672 82.0258 11.8672 82.3868Z" fill="black"/>
<path d="M14.9672 80.8491C14.9672 80.5113 14.6589 80.2197 14.2902 80.2197C13.9036 80.2197 13.5799 80.5126 13.5684 80.8671C13.5684 81.2126 13.8612 81.4927 14.2466 81.4927C14.6319 81.4927 14.9672 81.1959 14.9672 80.8491Z" fill="black"/>
<path d="M35.6592 80.8736C35.6463 80.5422 35.3419 80.2686 34.99 80.2686C34.611 80.2686 34.2745 80.5833 34.2938 80.9378C34.2938 81.2679 34.602 81.5415 34.9527 81.5415C35.3303 81.5428 35.6669 81.2191 35.6592 80.8736Z" fill="black"/>
<path d="M12.762 78.986C12.7517 79.3277 13.069 79.6231 13.4376 79.6231C13.823 79.6231 14.1492 79.3277 14.1595 78.9706C14.1685 78.6225 13.8615 78.3438 13.48 78.3438C13.0985 78.3438 12.762 78.6392 12.762 78.986Z" fill="black"/>
<path d="M12.2148 76.9463C12.2148 77.2944 12.5231 77.5757 12.902 77.5667C13.2784 77.5602 13.6034 77.2533 13.6034 76.8974C13.5957 76.5506 13.2874 76.2783 12.911 76.2783C12.5154 76.286 12.2148 76.5763 12.2148 76.9463Z" fill="black"/>
<path d="M31.785 35.9074C31.7786 35.5606 31.4626 35.2805 31.094 35.2882C30.7163 35.2959 30.426 35.585 30.4337 35.9433C30.4337 36.2863 30.7484 36.5599 31.1274 36.5535C31.5076 36.5458 31.7966 36.2555 31.785 35.9074Z" fill="black"/>
<path d="M27.634 46.5986C27.9936 46.5986 28.3199 46.307 28.3276 45.9692C28.3353 45.6314 28.0296 45.3334 27.6584 45.3244C27.2782 45.3167 26.9725 45.5826 26.957 45.9294C26.9275 46.2993 27.2358 46.6063 27.634 46.5986Z" fill="black"/>
<path d="M32.9064 31.9829C32.9141 31.6438 32.6097 31.3458 32.2397 31.338C31.866 31.3303 31.5435 31.6142 31.5333 31.952C31.5281 32.2924 31.8338 32.5956 32.2025 32.6058C32.5724 32.6135 32.8974 32.3233 32.9064 31.9829Z" fill="black"/>
<path d="M15.5292 82.9764C15.9158 82.9764 16.2523 82.6784 16.2523 82.3315C16.2523 81.9937 15.9454 81.7021 15.5767 81.7021C15.1875 81.7021 14.8612 81.995 14.8535 82.3482C14.851 82.7015 15.1425 82.9764 15.5292 82.9764Z" fill="black"/>
<path d="M32.3186 33.952C32.307 33.6103 31.982 33.3213 31.6211 33.3303C31.2627 33.3303 30.9455 33.6283 30.9455 33.9648C30.9377 34.3065 31.2524 34.5942 31.6147 34.6045C31.9923 34.6122 32.325 34.3052 32.3186 33.952Z" fill="black"/>
<path d="M19.044 59.5603C19.1596 59.5603 19.2663 59.5334 19.3536 59.4948C19.5938 59.3895 19.7557 59.1609 19.7557 58.8975C19.7557 58.5366 19.4332 58.2373 19.0376 58.2373C18.6394 58.2373 18.3145 58.5353 18.3145 58.8975C18.3145 59.1531 18.4814 59.3818 18.7191 59.4948C18.8257 59.5346 18.9336 59.5603 19.044 59.5603Z" fill="black"/>
<path d="M26.6028 48.6934C26.9804 48.7114 27.326 48.4031 27.326 48.0486C27.326 47.7108 27.0177 47.4192 26.649 47.4141C26.2791 47.4141 25.9631 47.6967 25.9541 48.0332C25.9336 48.3787 26.2329 48.678 26.6028 48.6934Z" fill="black"/>
<path d="M17.9317 52.5885C18.493 52.6926 19.098 52.7478 19.7235 52.7478C20.5585 52.7478 21.3484 52.6528 22.0587 52.4678C24.1525 51.9424 25.6117 50.7479 25.6117 49.3555H21.9226H21.5681H21.4884H21.2148H18.6921H18.6086H18.3414H17.9933H13.8419C13.8303 50.8712 15.5567 52.1518 17.9317 52.5885Z" fill="black"/>
<path d="M21.3587 49.0235H21.5603H21.911V45.1777H17.9805V49.0235H18.3311H18.597V49.0312H18.6869V46.1141V45.8225H19.6516H21.2084V49.0235H21.3587Z" fill="black"/>
<path d="M17.9023 62.6689C17.9023 63.3959 18.4123 63.9752 19.0443 63.9752C19.6775 63.9752 20.1887 63.3882 20.1887 62.6689C20.1887 62.5893 20.1785 62.5186 20.1682 62.4454L19.4168 59.9689C19.4168 59.9214 19.4026 59.8803 19.4026 59.8379C19.2934 59.8713 19.1766 59.8983 19.0558 59.8983C18.9325 59.8983 18.8079 59.8713 18.7013 59.8379C18.7013 59.879 18.691 59.9278 18.691 59.9689L17.9396 62.4454C17.9101 62.5109 17.9023 62.5906 17.9023 62.6689Z" fill="black"/>
<path d="M31.1812 37.9871C31.1735 37.6493 30.8575 37.3616 30.4889 37.3693C30.1112 37.3693 29.7952 37.6827 29.8132 38.0437C29.8286 38.3828 30.1575 38.6589 30.5248 38.6409C30.8948 38.6255 31.1928 38.3262 31.1812 37.9871Z" fill="black"/>
<path d="M19.9522 44.5652C23.7929 44.1876 19.9522 38.8916 19.9522 38.8916C19.9522 38.8916 16.109 44.1876 19.9522 44.5652Z" fill="black"/>
<path d="M17.9983 83.4616C17.9983 83.107 17.7016 82.8399 17.315 82.8489C16.9271 82.8489 16.6291 83.1302 16.6213 83.4757C16.6111 83.8302 16.9116 84.1218 17.2893 84.1218C17.6721 84.1231 17.9983 83.8148 17.9983 83.4616Z" fill="black"/>
<path d="M31.5088 82.0587C31.1196 82.051 30.7856 82.3632 30.7972 82.7215C30.8023 83.0504 31.0939 83.324 31.4638 83.324C31.8517 83.324 32.1741 83.017 32.1741 82.6637C32.1664 82.3323 31.8646 82.0587 31.5088 82.0587Z" fill="black"/>
<path d="M29.0451 83.5488C29.0374 83.8969 29.3559 84.1782 29.722 84.1692C30.1009 84.1615 30.4285 83.8468 30.4182 83.5C30.4092 83.1531 30.0855 82.8885 29.7143 82.904C29.3559 82.9219 29.0451 83.2174 29.0451 83.5488Z" fill="black"/>
<path d="M28.5482 77.1173C28.1615 77.1237 27.8533 77.4217 27.8635 77.7865C27.87 78.132 28.1885 78.4056 28.5559 78.3915C28.9245 78.3645 29.2238 78.0755 29.2238 77.739C29.2225 77.3922 28.9232 77.1109 28.5482 77.1173Z" fill="black"/>
<path d="M27.5267 78.2687C27.5177 77.9296 27.1914 77.6483 26.8215 77.6637C26.4619 77.6804 26.1484 77.9784 26.1484 78.3175C26.1484 78.6566 26.4696 78.9546 26.8331 78.9443C27.1992 78.9302 27.5267 78.6155 27.5267 78.2687Z" fill="black"/>
<path d="M28.5478 84.2504C28.5478 83.9036 28.2408 83.6133 27.8695 83.6223C27.4932 83.63 27.1682 83.946 27.1759 84.2915C27.1759 84.646 27.4932 84.9132 27.8695 84.8991C28.2395 84.8785 28.5388 84.5895 28.5478 84.2504Z" fill="black"/>
<path d="M35.0754 71.3203C34.699 71.3203 34.3625 71.6273 34.3754 71.9767C34.3831 72.3055 34.6913 72.5778 35.0343 72.5881C35.4107 72.5958 35.7459 72.2811 35.7356 71.9253C35.7254 71.5939 35.4338 71.3203 35.0754 71.3203Z" fill="black"/>
<path d="M34.7666 73.3519C34.7576 73.0218 34.4673 72.7405 34.1064 72.7405C33.7455 72.7302 33.4218 73.0218 33.4051 73.3583C33.3871 73.7064 33.6864 74.0019 34.0653 74.0134C34.4442 74.0134 34.7756 73.7064 34.7666 73.3519Z" fill="black"/>
<path d="M25.873 84.0724C25.4967 84.0647 25.1602 84.364 25.1602 84.7185C25.1602 85.0576 25.4363 85.3222 25.796 85.3453C26.18 85.3633 26.514 85.0717 26.5333 84.7185C26.5513 84.3717 26.252 84.0801 25.873 84.0724Z" fill="black"/>
<path d="M33.2649 81.3254C32.8873 81.3152 32.5469 81.6234 32.5469 81.978C32.5469 82.3004 32.8359 82.583 33.1955 82.5894C33.5822 82.5997 33.9149 82.3004 33.9149 81.9471C33.9149 81.6119 33.6284 81.3332 33.2649 81.3254Z" fill="black"/>
<path d="M33.5018 74.5619C33.5095 74.2061 33.209 73.9248 32.8326 73.9248C32.4627 73.9248 32.1467 74.2061 32.1377 74.5516C32.1171 74.8985 32.4267 75.1965 32.8056 75.1965C33.1768 75.1965 33.4928 74.9087 33.5018 74.5619Z" fill="black"/>
<path d="M31.5272 75.1173C31.1393 75.1096 30.8027 75.4089 30.8027 75.7609C30.8027 76.0948 31.1033 76.3749 31.4565 76.3838C31.8406 76.3928 32.1746 76.0935 32.1746 75.73C32.1733 75.3999 31.8933 75.125 31.5272 75.1173Z" fill="black"/>
<path d="M30.7867 76.7629C30.7777 76.4161 30.4617 76.1413 30.093 76.1579C29.7334 76.1734 29.4238 76.4637 29.4238 76.8092C29.4238 77.1573 29.7205 77.4399 30.0995 77.4399C30.4797 77.4322 30.7969 77.1175 30.7867 76.7629Z" fill="black"/>
<path d="M25.0128 88.1118C25.0051 88.0386 25.0051 87.9744 24.9948 87.9102C24.8715 87.9487 24.7315 87.9744 24.5915 87.9744C24.4502 87.9744 24.3102 87.9487 24.1882 87.9102C24.1792 87.9744 24.1792 88.0463 24.1702 88.1118L23.298 90.966C23.2813 91.0533 23.2813 91.1432 23.2813 91.2306C23.2736 92.0616 23.8606 92.7398 24.5838 92.7398C25.3108 92.7398 25.8978 92.0629 25.8978 91.2306C25.8978 91.1432 25.8927 91.0533 25.8811 90.966L25.0128 88.1118Z" fill="black"/>
<path d="M19.1776 83.7189C18.791 83.71 18.457 84.0144 18.457 84.3625C18.457 84.7106 18.755 84.9893 19.143 84.9893C19.5077 84.9893 19.8289 84.7093 19.8379 84.3625C19.8533 84.0157 19.554 83.7189 19.1776 83.7189Z" fill="black"/>
<path d="M17.305 77.3927C17.4194 77.3927 17.526 77.3657 17.6108 77.3259C17.8497 77.2205 18.0154 76.9945 18.0154 76.7299C18.0154 76.3664 17.6891 76.0684 17.2935 76.0684C16.8979 76.0684 16.5703 76.3651 16.5703 76.7299C16.5703 76.9868 16.7412 77.2141 16.9749 77.3259C17.0867 77.367 17.1894 77.3927 17.305 77.3927Z" fill="black"/>
<path d="M21.3129 85.3212C21.6969 85.3135 22.0245 85.0091 22.0052 84.652C21.9898 84.3232 21.6892 84.047 21.3386 84.047C20.9506 84.0393 20.627 84.3386 20.627 84.7008C20.627 85.0566 20.9262 85.3302 21.3129 85.3212Z" fill="black"/>
<path d="M17.6723 77.7951C17.6723 77.7463 17.6633 77.7052 17.6633 77.6641C17.5502 77.6949 17.4372 77.7206 17.3152 77.7206C17.1906 77.7206 17.0686 77.6949 16.9632 77.6641C16.9632 77.7039 16.9542 77.7527 16.9542 77.7951L16.1964 80.269C16.1874 80.3409 16.1797 80.4206 16.1797 80.4938C16.1797 81.2182 16.6896 81.8001 17.3216 81.8001C17.9394 81.8001 18.4468 81.2118 18.4468 80.4938C18.4468 80.4142 18.4391 80.3409 18.4288 80.269L17.6723 77.7951Z" fill="black"/>
<path d="M19.7394 76.5946C19.3721 76.61 19.0625 76.8977 19.0625 77.2368C19.0625 77.5849 19.3798 77.8739 19.7523 77.8675C20.1376 77.8585 20.4626 77.5438 20.4523 77.1983C20.442 76.8502 20.1184 76.5766 19.7394 76.5946Z" fill="black"/>
<path d="M23.6151 84.3057C23.2272 84.3057 22.8996 84.6216 22.9125 84.9672C22.9125 85.2973 23.2169 85.5735 23.5688 85.5812C23.9478 85.5902 24.2843 85.2832 24.2907 84.9376C24.2894 84.5805 23.9889 84.3057 23.6151 84.3057Z" fill="black"/>
<path d="M23.1756 77.8322C22.7967 77.8412 22.473 78.1636 22.4909 78.5104C22.5076 78.8405 22.8082 79.1077 23.1679 79.1077C23.5455 79.1077 23.8692 78.8097 23.8692 78.4539C23.8602 78.1161 23.5455 77.8245 23.1756 77.8322Z" fill="black"/>
<path d="M23.7559 86.8945C23.7559 87.1925 23.9485 87.4584 24.2196 87.5791C24.3275 87.6279 24.4495 87.6536 24.5831 87.6536C24.7141 87.6536 24.8258 87.6279 24.944 87.5791C25.2202 87.4584 25.4077 87.2002 25.4077 86.8945C25.4077 86.4745 25.0378 86.1379 24.5818 86.1379C24.1271 86.1276 23.7559 86.4745 23.7559 86.8945Z" fill="black"/>
<path d="M21.4705 78.6735C21.8558 78.6864 22.1924 78.3974 22.1988 78.0338C22.2078 77.6883 21.9034 77.3916 21.5296 77.3916C21.1519 77.3916 20.8103 77.7037 20.8205 78.0518C20.8218 78.3819 21.107 78.6568 21.4705 78.6735Z" fill="black"/>
<path d="M25.7224 78.5106C25.7134 78.1779 25.4257 77.9056 25.0725 77.8966C24.6961 77.8902 24.3596 78.1869 24.3596 78.5504C24.3506 78.8972 24.6589 79.1785 25.0365 79.1785C25.4141 79.1708 25.734 78.8677 25.7224 78.5106Z" fill="black"/>
<path d="M13.8224 74.4145C13.8391 74.0702 13.5681 73.7812 13.1815 73.7543C12.7936 73.7311 12.4442 74.0137 12.4275 74.3605C12.4005 74.6984 12.6998 75.0066 13.0684 75.0298C13.4525 75.0529 13.7967 74.769 13.8224 74.4145Z" fill="black"/>
<path d="M46.8153 28.4931C47.1839 28.5008 47.5025 28.2105 47.5115 27.8663C47.5192 27.5259 47.2109 27.2292 46.8423 27.2189C46.4839 27.2112 46.1563 27.5118 46.1486 27.8483C46.1396 28.1951 46.4479 28.4931 46.8153 28.4931Z" fill="black"/>
<path d="M47.2575 30.427C47.6249 30.4193 47.9254 30.1303 47.9254 29.7822C47.9165 29.4367 47.6107 29.1631 47.2305 29.1631C46.8619 29.1708 46.5562 29.4611 46.5626 29.8079C46.5626 30.1444 46.8876 30.4373 47.2575 30.427Z" fill="black"/>
<path d="M52.0548 31.9825C52.0638 32.3242 52.3901 32.6132 52.76 32.6042C53.121 32.594 53.4369 32.2908 53.4267 31.9504C53.419 31.6049 53.0901 31.3223 52.7228 31.3364C52.3567 31.3454 52.0471 31.6434 52.0548 31.9825Z" fill="black"/>
<path d="M47.1775 25.9367C47.1686 25.5988 46.8423 25.3098 46.4839 25.3175C46.1153 25.3252 45.8044 25.6232 45.8147 25.9649C45.825 26.3015 46.1397 26.5892 46.5083 26.584C46.8603 26.584 47.1775 26.2758 47.1775 25.9367Z" fill="black"/>
<path d="M53.1643 35.9076C53.154 36.2557 53.4559 36.5447 53.822 36.5524C54.2035 36.5601 54.5195 36.2853 54.5195 35.9423C54.5272 35.5929 54.2279 35.3026 53.8592 35.2872C53.488 35.2808 53.1746 35.5544 53.1643 35.9076Z" fill="black"/>
<path d="M52.6447 33.9518C52.6357 34.296 52.9658 34.6043 53.3473 34.6043C53.7057 34.594 54.0217 34.3063 54.0153 33.9646C54.0153 33.6281 53.6993 33.3378 53.3383 33.3301C52.9671 33.3301 52.6511 33.6204 52.6447 33.9518Z" fill="black"/>
<path d="M49.1974 26.5886C49.2963 26.5886 49.3837 26.5655 49.462 26.536C49.665 26.446 49.8075 26.2521 49.8075 26.0337C49.8075 25.728 49.5339 25.4775 49.1974 25.4775C48.8647 25.4775 48.5898 25.7267 48.5898 26.0337C48.5898 26.2521 48.7324 26.4448 48.9379 26.536C49.0163 26.5732 49.1036 26.5886 49.1974 26.5886Z" fill="black"/>
<path d="M48.4961 36.135C48.8557 36.135 49.182 35.8383 49.173 35.4967C49.173 35.1601 48.848 34.8621 48.4871 34.8673C48.1274 34.8673 47.8025 35.1755 47.8127 35.5069C47.8127 35.846 48.1274 36.135 48.4961 36.135Z" fill="black"/>
<path d="M47.6671 32.3302C48.037 32.3225 48.3453 32.0296 48.3299 31.6828C48.3209 31.336 48.0152 31.0547 47.6363 31.0637C47.265 31.0714 46.9568 31.3694 46.967 31.7098C46.9837 32.054 47.2984 32.3379 47.6671 32.3302Z" fill="black"/>
<path d="M48.0833 34.199C48.4506 34.1913 48.7589 33.8997 48.7525 33.5516C48.7525 33.2061 48.4326 32.9248 48.064 32.9248C47.6954 32.9325 47.3896 33.2228 47.3986 33.5722C47.3986 33.9087 47.7146 34.199 48.0833 34.199Z" fill="black"/>
<path d="M53.7815 37.9879C53.7712 38.3282 54.068 38.6262 54.4392 38.6417C54.8078 38.6596 55.1366 38.3835 55.1521 38.0367C55.17 37.6834 54.8541 37.3687 54.4751 37.3623C54.1039 37.3687 53.7879 37.65 53.7815 37.9879Z" fill="black"/>
<path d="M48.2305 29.2174C48.2305 29.8301 48.6621 30.3208 49.1964 30.3208C49.7333 30.3208 50.1662 29.8289 50.1662 29.2174C50.1662 29.1545 50.1585 29.0903 50.1469 29.0248L49.5047 26.9298C49.5047 26.9041 49.5047 26.8899 49.4983 26.8643C49.4006 26.8964 49.2953 26.9118 49.1887 26.9118C49.0847 26.9118 48.9806 26.8964 48.8817 26.8643C48.8817 26.8797 48.8817 26.9041 48.8727 26.9298L48.2305 29.0248V29.2174V29.2174Z" fill="black"/>
<path d="M64.7715 62.6689C64.7715 63.3959 65.2801 63.9752 65.9185 63.9752C66.5479 63.9752 67.0579 63.3882 67.0579 62.6689C67.0579 62.5893 67.0527 62.5186 67.0399 62.4454L66.2846 59.9689C66.2846 59.9214 66.2769 59.8803 66.2769 59.8379C66.1613 59.8713 66.0457 59.8983 65.9237 59.8983C65.8029 59.8983 65.6809 59.8713 65.5756 59.8379C65.5756 59.879 65.5627 59.9278 65.5627 59.9689L64.81 62.4454C64.7818 62.5109 64.7715 62.5906 64.7715 62.6689Z" fill="black"/>
<path d="M66.7775 49.3555H66.5039H63.9799H63.8951H63.6292H63.2785H59.1309C59.1206 50.8712 60.8444 52.1518 63.213 52.5885C63.7795 52.6926 64.387 52.7478 65.0087 52.7478C65.8437 52.7478 66.6349 52.6528 67.3439 52.4678C69.4364 51.9424 70.8968 50.7479 70.8968 49.3555H67.2065H66.8558H66.7775Z" fill="black"/>
<path d="M48.8883 38.1421C49.2608 38.1498 49.5743 37.8673 49.582 37.5217C49.5935 37.1839 49.2775 36.8859 48.914 36.8782C48.5557 36.8679 48.2294 37.1608 48.223 37.4973C48.2114 37.8441 48.5197 38.1344 48.8883 38.1421Z" fill="black"/>
<path d="M65.9177 59.5603C66.0307 59.5603 66.1335 59.5334 66.2234 59.4948C66.4598 59.3895 66.6267 59.1609 66.6267 58.8975C66.6267 58.5366 66.3005 58.2373 65.9061 58.2373C65.5092 58.2373 65.1855 58.5353 65.1855 58.8975C65.1855 59.1531 65.3538 59.3818 65.5889 59.4948C65.6968 59.5346 65.8021 59.5603 65.9177 59.5603Z" fill="black"/>
<path d="M63.2695 49.0235H63.6241H63.8874V49.0312H63.9721V46.1141V45.8225H64.9432H66.4962V49.0235H66.6439H66.8468H67.1962V45.1777H63.2695V49.0235Z" fill="black"/>
<path d="M74.3497 65.2083H74.5H74.7016H75.0549V61.1416H71.123V65.2083H71.475H71.7126H71.8282V62.3888V61.7851H74.3497V61.9958V65.2083Z" fill="black"/>
<path d="M72.9182 60.6807C76.7588 60.3018 72.9182 55.0059 72.9182 55.0059C72.9182 55.0059 69.0724 60.3018 72.9182 60.6807Z" fill="black"/>
<path d="M65.0105 38.8916C65.0105 38.8916 61.1724 44.1876 65.0105 44.5652C68.8511 44.1876 65.0105 38.8916 65.0105 38.8916Z" fill="black"/>
<path d="M56.4803 44.6645C56.8464 44.6722 57.1623 44.3884 57.1726 44.0493C57.1778 43.696 56.8618 43.3865 56.4803 43.3967C56.1091 43.3967 55.8008 43.6806 55.8008 44.0261C55.8008 44.3652 56.1091 44.6555 56.4803 44.6645Z" fill="black"/>
<path d="M58.356 48.6942C58.7273 48.6788 59.0278 48.3898 59.0188 48.0417C59.0086 47.7026 58.6926 47.4149 58.3214 47.42C57.945 47.42 57.6367 47.7129 57.6367 48.0494C57.6354 48.4039 57.9668 48.7006 58.356 48.6942Z" fill="black"/>
<path d="M30.6103 39.98C30.6206 39.6242 30.3213 39.3416 29.9449 39.3352C29.566 39.3262 29.2577 39.6088 29.25 39.9543C29.25 40.3152 29.539 40.5991 29.9179 40.6094C30.2943 40.6171 30.6026 40.3358 30.6103 39.98Z" fill="black"/>
<path d="M55.7102 39.9709C55.6999 39.6177 55.4019 39.3428 55.0153 39.3518C54.6389 39.3428 54.3384 39.6331 54.3499 39.9902C54.3576 40.3421 54.6659 40.6183 55.0423 40.6183C55.4199 40.6106 55.7205 40.3267 55.7102 39.9709Z" fill="black"/>
<path d="M55.7923 42.6877C56.1789 42.6954 56.5052 42.3974 56.4846 42.0364C56.4795 41.6896 56.1584 41.416 55.7923 41.416C55.439 41.416 55.1231 41.7127 55.1231 42.0518C55.1218 42.3974 55.4313 42.68 55.7923 42.6877Z" fill="black"/>
<path d="M57.3387 46.599C57.7227 46.599 58.0387 46.301 58.0182 45.9297C58.0027 45.5829 57.6868 45.3106 57.3181 45.3247C56.9315 45.3337 56.6258 45.6305 56.6412 45.9696C56.6515 46.3074 56.97 46.599 57.3387 46.599Z" fill="black"/>
<path d="M37.5616 33.5723C37.5616 33.2242 37.2623 32.9327 36.8911 32.925C36.5173 32.9173 36.209 33.1998 36.209 33.5518C36.209 33.8999 36.5096 34.1915 36.8808 34.1992C37.2456 34.1992 37.5616 33.9089 37.5616 33.5723Z" fill="black"/>
<path d="M34.3559 41.506C34.3623 41.8503 34.6796 42.1226 35.0495 42.1226C35.4092 42.1149 35.7252 41.8169 35.7252 41.4868C35.7162 41.1477 35.3899 40.8587 35.0328 40.8664C34.6616 40.8664 34.3418 41.1644 34.3559 41.506Z" fill="black"/>
<path d="M35.2426 43.5593C35.2336 43.2177 34.9189 42.9197 34.5489 42.9299C34.188 42.9377 33.863 43.2459 33.8733 43.5748C33.881 43.9113 34.1957 44.2042 34.5669 44.1939C34.933 44.1875 35.2426 43.8984 35.2426 43.5593Z" fill="black"/>
<path d="M34.9417 39.5374C34.9494 39.8842 35.2666 40.1655 35.6353 40.1578C36.0155 40.1475 36.3045 39.8598 36.3045 39.5104C36.2955 39.1636 35.9782 38.8746 35.6096 38.8913C35.2409 38.899 34.9314 39.197 34.9417 39.5374Z" fill="black"/>
<path d="M33.4492 45.5169C33.4492 45.856 33.7742 46.145 34.1441 46.145C34.5128 46.145 34.8185 45.8547 34.8185 45.5092C34.8185 45.1637 34.5038 44.8721 34.1364 44.8811C33.7742 44.8811 33.4492 45.1778 33.4492 45.5169Z" fill="black"/>
<path d="M37.1487 35.4968C37.1487 35.1603 36.8327 34.8623 36.4717 34.8623C36.1159 34.8623 35.7871 35.1603 35.7871 35.4891C35.7871 35.8282 36.1031 36.1262 36.464 36.1262C36.8327 36.1352 37.1487 35.8462 37.1487 35.4968Z" fill="black"/>
<path d="M27.7932 44.0408C27.8009 44.3876 28.1168 44.6702 28.4868 44.6625C28.8567 44.6535 29.1611 44.3645 29.1611 44.0254C29.1611 43.6786 28.8567 43.396 28.4868 43.3857C28.1001 43.387 27.7842 43.6876 27.7932 44.0408Z" fill="black"/>
<path d="M29.8265 42.0518C29.8265 41.7127 29.5131 41.4237 29.1534 41.416C28.7809 41.416 28.4752 41.6973 28.4572 42.0364C28.4482 42.3974 28.7758 42.6954 29.1598 42.6877C29.5285 42.68 29.8265 42.3884 29.8265 42.0518Z" fill="black"/>
<path d="M36.734 37.5053C36.725 37.1662 36.4001 36.8772 36.0391 36.8849C35.6718 36.8926 35.3648 37.1893 35.3712 37.5297C35.3815 37.8765 35.6975 38.1591 36.0674 38.1489C36.4283 38.1334 36.7443 37.8431 36.734 37.5053Z" fill="black"/>
<path d="M32.7749 30.5879C33.1423 30.5879 33.4608 30.3065 33.4608 29.961C33.4608 29.6155 33.1525 29.3329 32.7826 29.3252C32.405 29.3252 32.1057 29.6078 32.1057 29.9533C32.0967 30.3065 32.3972 30.5879 32.7749 30.5879Z" fill="black"/>
<path d="M33.6972 25.1388C33.317 25.1478 33.0203 25.4471 33.0357 25.7914C33.0537 26.1382 33.3684 26.413 33.7383 26.4066C34.107 26.3976 34.414 26.1009 34.3986 25.7541C34.3896 25.4073 34.0659 25.1311 33.6972 25.1388Z" fill="black"/>
<path d="M49.3197 40.1582C49.6909 40.1659 50.0082 39.8769 50.0159 39.5378C50.0249 39.1974 49.7076 38.8917 49.3479 38.884C48.9806 38.875 48.662 39.1653 48.6543 39.5031C48.6556 39.8602 48.942 40.1479 49.3197 40.1582Z" fill="black"/>
<path d="M33.2395 28.4773C33.6107 28.4773 33.9138 28.1793 33.9138 27.83C33.9138 27.4857 33.6107 27.2031 33.2318 27.2031C32.8503 27.2031 32.5471 27.4947 32.5548 27.8377C32.5548 28.1883 32.8682 28.4773 33.2395 28.4773Z" fill="black"/>
<path d="M51.043 27.8302C51.043 28.1783 51.3423 28.4673 51.7186 28.4776C52.0911 28.4776 52.4045 28.1873 52.4122 27.8482C52.4238 27.5001 52.1155 27.2111 51.7379 27.2111C51.3615 27.2034 51.0545 27.4873 51.043 27.8302Z" fill="black"/>
<path d="M50.3937 44.1958C50.7624 44.2061 51.0874 43.912 51.0874 43.5767C51.0989 43.2479 50.7726 42.9396 50.4143 42.9319C50.0508 42.9216 49.7296 43.2209 49.7168 43.5613C49.7168 43.8991 50.0161 44.1881 50.3937 44.1958Z" fill="black"/>
<path d="M50.8163 46.1362C51.1862 46.1362 51.5125 45.8472 51.5125 45.5093C51.5125 45.1779 51.1862 44.8812 50.8253 44.8722C50.4566 44.8645 50.1406 45.1561 50.1406 45.5016C50.1406 45.8472 50.4463 46.1362 50.8163 46.1362Z" fill="black"/>
<path d="M49.9094 42.1225C50.2781 42.1302 50.5954 41.8489 50.6018 41.5059C50.6133 41.1643 50.2948 40.8663 49.9261 40.8585C49.5665 40.8508 49.2441 41.1399 49.2325 41.479C49.2261 41.8168 49.5421 42.1148 49.9094 42.1225Z" fill="black"/>
<path d="M52.1853 30.5879C52.5629 30.5879 52.8635 30.3065 52.8635 29.9533C52.8635 29.5975 52.5629 29.3252 52.1853 29.3252C51.8089 29.3329 51.502 29.6155 51.502 29.961C51.502 30.3065 51.8089 30.5879 52.1853 30.5879Z" fill="black"/>
<path d="M51.2581 25.1388C50.8856 25.1311 50.5619 25.4073 50.5452 25.7541C50.5349 26.0906 50.8445 26.3899 51.2131 26.4066C51.592 26.4143 51.908 26.1382 51.9157 25.7914C51.9337 25.4471 51.6344 25.1465 51.2581 25.1388Z" fill="black"/>
<path d="M36.6232 31.6836C36.6155 32.0304 36.9148 32.3233 37.2834 32.331C37.6508 32.3387 37.9693 32.0548 37.977 31.7106C37.986 31.3612 37.679 31.0722 37.3078 31.0645C36.9507 31.0645 36.6309 31.3381 36.6232 31.6836Z" fill="black"/>
<path d="M39.143 25.9639C39.152 25.6223 38.836 25.3243 38.4738 25.3166C38.1154 25.3088 37.7917 25.5991 37.7814 25.9357C37.7724 26.2761 38.0897 26.5728 38.4507 26.5831C38.8193 26.5895 39.143 26.3005 39.143 25.9639Z" fill="black"/>
<path d="M34.7949 29.2174C34.7949 29.8301 35.2265 30.3208 35.7621 30.3208C36.2978 30.3208 36.7281 29.8289 36.7281 29.2174C36.7281 29.1545 36.7204 29.0903 36.7101 29.0248L36.0704 26.9298C36.0704 26.9041 36.0704 26.8899 36.0627 26.8643C35.9612 26.8964 35.8585 26.9118 35.7532 26.9118C35.6453 26.9118 35.5425 26.8964 35.4449 26.8643C35.4449 26.8797 35.4449 26.9041 35.4346 26.9298L34.7949 29.0248C34.8026 29.0916 34.7949 29.1558 34.7949 29.2174Z" fill="black"/>
<path d="M37.0353 29.7822C37.0276 30.1303 37.3294 30.4193 37.7032 30.427C38.0745 30.4373 38.3879 30.1444 38.3981 29.8079C38.4097 29.4675 38.1014 29.1708 37.7289 29.1631C37.35 29.1618 37.0443 29.4367 37.0353 29.7822Z" fill="black"/>
<path d="M37.4453 27.8663C37.4543 28.2118 37.7716 28.4931 38.1415 28.4931C38.5102 28.4854 38.8171 28.1951 38.8094 27.8483C38.8017 27.5105 38.4729 27.2112 38.1145 27.2189C37.7536 27.2292 37.4453 27.5259 37.4453 27.8663Z" fill="black"/>
<path d="M35.7625 26.5886C35.8589 26.5886 35.9475 26.5655 36.0271 26.536C36.2275 26.446 36.3688 26.2521 36.3688 26.0337C36.3688 25.728 36.0952 25.4775 35.7625 25.4775C35.4273 25.4775 35.1562 25.7267 35.1562 26.0337C35.1562 26.2521 35.2975 26.4448 35.4992 26.536C35.5776 26.5732 35.6662 26.5886 35.7625 26.5886Z" fill="black"/>
<path d="M36.0784 80.3246C36.4638 80.3336 36.799 80.0356 36.799 79.6824C36.799 79.3433 36.5177 79.0684 36.1555 79.0607C35.7791 79.053 35.4439 79.3523 35.4336 79.7055C35.4336 80.0356 35.7252 80.3156 36.0784 80.3246Z" fill="black"/>
<path d="M21.4621 59.4777C21.0845 59.47 20.7402 59.7757 20.7402 60.1251C20.7402 60.4719 21.0485 60.7532 21.4236 60.7532C21.8141 60.7532 22.1288 60.4539 22.1223 60.0917C22.1121 59.7616 21.8205 59.4854 21.4621 59.4777Z" fill="black"/>
<path d="M70.7678 68.984C70.7858 69.0893 70.8282 69.1908 70.9104 69.3051C71.0478 69.5068 70.9926 69.8138 71.0337 70.1272C69.3356 68.7091 67.7878 69.2409 66.8462 70.6988C66.7936 70.5973 66.7512 70.5151 66.7062 70.4252C66.1513 69.2473 65.2239 68.4124 63.9291 67.9448C62.7102 67.4978 61.5477 67.7573 60.6781 68.6372C59.8046 69.5158 59.6325 70.6358 60.2118 71.7071C60.6331 72.4881 61.2959 73.0276 62.181 73.3127C62.8527 73.5285 63.5078 73.481 64.0448 73.0147C64.5919 72.5395 64.7191 71.9332 64.5817 71.1843C64.4481 71.368 64.3607 71.4913 64.2734 71.6121C63.8868 72.1258 63.3858 72.3134 62.7705 72.1695C62.0936 72.0154 61.6543 71.5787 61.5939 70.9827C61.5233 70.2967 61.784 69.7251 62.3839 69.3154C62.9439 68.9159 63.5451 69.0071 64.1526 69.2576C65.924 69.9987 66.3209 71.562 65.0903 72.9415C64.0949 74.0526 62.2426 74.5856 60.7577 74.1271C59.9549 73.8779 59.3358 73.3461 58.7809 72.7719C57.7495 71.6981 56.8811 70.4984 56.1695 69.2242C55.4849 68.0078 55.0186 66.7027 54.2377 65.5326C53.4721 64.3868 52.4625 63.3875 51.2397 62.6386C49.6739 61.6791 47.9629 61.1858 46.0811 61.5095C45.4055 61.6226 44.7645 61.9193 44.1043 62.1299C44.0221 61.8949 43.9168 61.6071 43.8037 61.2912C44.1403 61.0728 44.0953 60.8467 43.7241 60.6553C45.042 59.8641 45.4582 58.6644 45.6161 57.3593C45.6765 56.8173 45.6585 56.2624 45.5982 55.7229C45.5532 55.3517 45.6162 55.0305 45.7741 54.6991C46.5641 53.064 47.5455 51.5637 49.1472 50.4847C49.9564 49.9324 50.862 49.5817 51.8909 49.6447C53.0842 49.7179 53.9846 50.3075 54.605 51.2002C55.1368 51.9606 55.571 52.7737 55.9871 53.5855C56.5921 54.7724 57.1008 56.0055 58.0346 57.0202C58.3763 57.3991 58.7642 57.7627 59.1855 58.0607C60.3968 58.9226 61.6993 58.9328 62.9439 58.1095C63.8701 57.5045 64.5675 56.7145 65.1096 55.8192C65.5836 55.037 65.9702 54.2085 66.4121 53.4018C66.4622 53.3003 66.5405 53.195 66.6458 53.1269C66.7358 53.0704 66.8141 53.0165 66.8848 52.9497C66.3607 53.0293 65.8058 53.0781 65.2419 53.0781C64.4134 53.0781 63.626 52.9921 62.8861 52.8135C62.9465 52.942 63.1071 53.0473 63.373 53.1847C63.4834 53.2502 63.6337 53.3607 63.644 53.466C63.739 54.4923 63.7146 55.4981 63.2407 56.4576C62.4404 58.0722 60.5586 58.36 59.2497 57.0613C59.0237 56.8353 58.8387 56.5784 58.6499 56.3292C57.8728 55.2322 57.4836 53.9837 57.0764 52.7416C56.7604 51.7679 56.4637 50.784 56.0077 49.8656C55.6994 49.2349 55.2152 48.6402 54.6808 48.138C53.1857 46.7456 51.0598 46.6133 49.3014 47.7359C48.2108 48.427 47.4388 49.3647 46.8737 50.4436C46.347 51.452 45.8743 52.4757 45.3785 53.4981C45.3387 53.5932 45.286 53.6985 45.1961 53.8771C45.0625 53.538 44.9418 53.2811 44.8519 53.0062C44.5179 51.9747 44.166 50.951 43.8769 49.9016C43.683 49.1848 43.796 48.4681 44.1852 47.7976C44.2469 47.6961 44.2906 47.5895 44.3394 47.4854C44.6772 46.865 44.8249 46.251 44.175 45.7283C44.6836 44.8728 44.6309 44.7675 43.5854 44.4939C44.5873 42.6159 44.5988 40.7457 43.5417 38.8678C44.3779 37.853 44.4113 37.4497 43.7267 36.4876C43.8667 36.3271 44.0375 36.1652 44.1416 35.9803C44.2469 35.7773 44.3689 35.5435 44.3535 35.3431C44.3162 35.0374 44.3162 34.8037 44.5988 34.575C44.6682 34.5198 44.5179 34.2308 44.4742 34.0458C44.437 34.0535 44.4036 34.0535 44.3676 34.0535C44.4819 33.8994 44.5988 33.7478 44.7119 33.5949C45.4415 32.5866 45.6072 31.4832 45.2655 30.3465C44.9932 29.4615 44.6772 28.5726 44.2546 27.7364C43.85 26.9297 43.7652 26.1372 43.9309 25.292C44.0542 24.6729 44.1852 24.0422 44.3394 23.4321C44.4588 22.9966 44.4049 22.6408 43.999 22.3441C43.9142 22.2786 43.859 22.0936 43.8936 21.9973C44.5166 20.199 46.4883 19.0776 48.4896 19.3666C49.8524 19.5606 50.8273 20.4289 50.9853 21.6248C51.029 21.9074 51.011 22.2131 50.9224 22.4892C50.6051 23.495 49.3219 23.8007 48.4973 23.084C48.2134 22.8502 48.04 22.5676 47.9539 22.2542C48.2969 22.2799 48.6283 22.2066 48.8839 21.9562C49.8408 21.0198 48.5319 19.6428 47.3464 20.1694C47.1087 20.2709 46.8801 20.4507 46.7234 20.6511C45.9681 21.6171 46.0991 23.0917 46.9173 23.9959C47.864 25.0287 49.6225 24.818 50.704 23.9959C53.2769 22.0294 51.3527 18.4585 48.3136 18.3134C48.0182 18.2954 47.7163 18.3134 47.4183 18.3134C47.4003 18.2735 47.381 18.2324 47.3631 18.19C47.7523 17.9987 48.1389 17.806 48.523 17.6107C49.0701 17.3448 49.6289 15.8214 50.1607 15.5234H34.7866C35.3132 15.8214 35.8771 17.3448 36.4205 17.6107C36.8084 17.797 37.1937 17.9987 37.5791 18.19C37.5624 18.2311 37.547 18.2722 37.5264 18.3134C37.2284 18.3134 36.9304 18.2954 36.6311 18.3134C34.7596 18.4007 33.3094 19.5786 33.0628 21.2214C32.8971 22.3133 33.5047 23.5194 34.4693 24.1488C35.4635 24.8026 36.9137 24.9786 37.836 24.1886C38.8469 23.3267 39.0408 21.6826 38.238 20.6511C38.0813 20.4507 37.854 20.2709 37.6163 20.1694C36.5117 19.6723 35.3582 20.7321 35.9375 21.7468C36.1559 22.1347 36.5335 22.3338 36.9574 22.3826C36.8521 22.6408 36.6941 22.8759 36.4552 23.0775C35.6202 23.7853 34.3422 23.4796 34.03 22.4802C33.9491 22.2066 33.9324 21.9009 33.9658 21.6171C34.1277 20.4148 35.1 19.5555 36.4629 19.3615C38.4667 19.0776 40.4268 20.1913 41.0613 21.9883C41.096 22.0936 41.0421 22.2696 40.9547 22.3338C40.5501 22.6267 40.4962 22.9876 40.6105 23.4243C40.771 24.037 40.9021 24.6639 41.0215 25.2881C41.2014 26.1333 41.1024 26.9207 40.6991 27.7287C40.2778 28.5585 39.9605 29.4537 39.6882 30.3413C39.3453 31.4858 39.5097 32.5802 40.2444 33.5885C40.3497 33.7414 40.4731 33.8942 40.5861 34.0471C40.5501 34.0394 40.5154 34.0394 40.4795 34.0394C40.4358 34.2256 40.2868 34.5134 40.3574 34.5699C40.6375 34.796 40.6375 35.0297 40.6028 35.3367C40.5758 35.5448 40.7055 35.7786 40.8122 35.9738C40.9175 36.1601 41.087 36.3206 41.2232 36.4825C40.5321 37.442 40.5681 37.8453 41.4107 38.8614C40.3562 40.7393 40.3639 42.6082 41.3671 44.4874C40.3202 44.761 40.2675 44.8664 40.7788 45.7193C40.1249 46.2433 40.2765 46.8586 40.6092 47.4777C40.6606 47.5831 40.7043 47.6884 40.7698 47.7912C41.1538 48.4591 41.2771 49.1707 41.078 49.8951C40.7839 50.9382 40.4332 51.9658 40.1005 52.9998C40.0132 53.2747 39.8886 53.5315 39.7576 53.8707C39.6702 53.6921 39.6227 53.5868 39.5701 53.4917C39.0807 52.477 38.6054 51.4442 38.0775 50.4372C37.5149 49.3569 36.7429 48.4206 35.6536 47.7282C33.8952 46.6081 31.7758 46.7379 30.2742 48.1303C29.7463 48.6312 29.253 49.2272 28.9473 49.8566C28.4887 50.775 28.1895 51.7577 27.876 52.7339C27.4791 53.9747 27.0835 55.2245 26.2987 56.3189C26.115 56.5784 25.93 56.8353 25.7014 57.0536C24.3848 58.3433 22.5133 58.0607 21.7644 56.4486C21.2905 55.4904 21.2635 54.4821 21.3611 53.4583C21.3688 53.353 21.5191 53.2297 21.6347 53.1757C21.9006 53.046 22.0547 52.9343 22.1202 52.8058C21.3817 52.9818 20.5801 53.0704 19.7645 53.0704C19.2019 53.0704 18.6457 53.0216 18.119 52.9407C18.1807 52.9985 18.2693 53.064 18.3567 53.1192C18.4543 53.1847 18.5416 53.2888 18.5956 53.3941C19.0233 54.1995 19.4202 55.0305 19.8968 55.8141C20.4401 56.7068 21.135 57.4968 22.0573 58.1018C23.3148 58.9174 24.6057 58.9174 25.8196 58.0542C26.2409 57.746 26.6314 57.3914 26.9705 57.0138C27.903 55.9901 28.4142 54.7634 29.0192 53.5778C29.4303 52.7647 29.8709 51.9491 30.4001 51.1925C31.0141 50.2998 31.9209 49.7102 33.1116 49.6383C34.1431 49.5817 35.0486 49.9285 35.8566 50.4745C37.4545 51.556 38.4397 53.055 39.2322 54.6914C39.3889 55.0203 39.4506 55.344 39.4069 55.7152C39.3465 56.2547 39.3273 56.8109 39.3889 57.3503C39.5495 58.658 39.9515 59.8577 41.2784 60.6463C40.9085 60.839 40.8751 61.0728 41.2014 61.2835C41.087 61.6071 40.9894 61.8884 40.9021 62.1222C40.2444 61.9116 39.6009 61.6136 38.9252 61.5018C37.0345 61.1781 35.3274 61.6701 33.7667 62.6309C32.5529 63.3797 31.542 64.3791 30.7649 65.5236C29.9762 66.6925 29.5202 67.9975 28.8356 69.2139C28.1201 70.4907 27.2608 71.6904 26.2255 72.763C25.6693 73.3358 25.0463 73.8663 24.2486 74.1181C22.7612 74.5767 20.9051 74.0436 19.9135 72.9325C18.6855 71.5542 19.0875 69.9897 20.8524 69.2473C21.4613 68.9994 22.0573 68.9159 22.6212 69.3051C23.2082 69.7238 23.4831 70.289 23.4124 70.9749C23.3482 71.5722 22.9115 71.9974 22.2333 72.1592C21.6257 72.3044 21.1196 72.1194 20.7304 71.6018C20.6431 71.4797 20.5557 71.3603 20.4247 71.1753C20.2847 71.9242 20.4131 72.5279 20.9591 73.0057C21.496 73.472 22.1549 73.5208 22.8216 73.3024C23.7104 73.0134 24.3668 72.4727 24.7894 71.6981C25.3726 70.6268 25.194 69.5068 24.3257 68.6269C23.4535 67.7483 22.3039 67.4901 21.0747 67.9346C19.7825 68.4008 18.8512 69.2396 18.2976 70.4162C18.2552 70.5061 18.2077 70.5883 18.155 70.6911C17.216 69.2319 15.6682 68.7001 13.9727 70.122C14.0177 69.8048 13.9637 69.4991 14.096 69.2961C14.1757 69.1831 14.2206 69.079 14.236 68.9737C13.509 69.1522 12.7165 69.2396 11.9085 69.2396C11.2714 69.2396 10.6664 69.1831 10.0781 69.079C10.1192 69.2576 10.2695 69.377 10.6048 69.5068C10.7294 69.5556 10.8784 69.571 10.9927 69.6365C11.1507 69.7328 11.3536 69.8228 11.4307 69.9666C12.3902 71.7174 13.7376 73.1586 15.4756 74.2864C17.5076 75.6004 19.7362 76.3107 22.2435 75.9177C25.3957 75.4231 27.7168 73.7469 29.4136 71.3295C30.1894 70.2248 30.7058 69.0071 31.3737 67.8562C32.3602 66.1555 33.5175 64.5114 35.1591 63.277C35.8656 62.7542 36.6376 62.3432 37.5598 62.2121C38.4384 62.094 39.52 62.4485 39.9413 63.0175C39.5546 63.0175 39.1847 63.0124 38.8161 63.0175C38.5091 63.0175 38.1224 62.9071 37.9477 63.223C37.7692 63.5519 38.0518 63.8178 38.2342 64.0836C38.2804 64.1492 38.3408 64.2044 38.3947 64.2596C39.0537 64.9468 39.8167 65.5043 40.7775 65.7997C41.019 65.8806 41.1294 65.9783 41.0588 66.212C40.8289 66.9686 40.6259 67.7265 40.3883 68.4766C40.1532 69.2499 39.6702 69.8793 38.9933 70.3699C38.22 70.9364 37.3042 70.9364 36.5849 70.3956C35.9003 69.8806 35.6703 68.8812 36.0672 68.1388C36.4526 67.4208 37.7178 67.1497 38.4114 67.6314C38.7647 67.8793 38.9137 68.3469 38.7557 68.7271C38.6067 69.0816 38.1777 69.3257 37.7628 69.2846C37.6754 69.2756 37.5958 69.2601 37.5354 69.2357C37.9131 68.9146 37.7718 68.1748 37.1051 68.1748C36.7172 68.1748 36.5078 68.4162 36.4693 68.6885C36.3318 69.1728 36.7249 69.7431 37.3761 69.833C38.1134 69.9384 38.7814 69.7367 39.2759 69.1946C39.9361 68.4779 39.7666 67.4477 38.9317 66.9301C38.0441 66.3906 36.7776 66.4214 35.9259 67.011C35.0474 67.6224 34.7314 68.6218 35.1077 69.6391C35.4879 70.6615 36.4359 71.3397 37.4982 71.3462C38.4718 71.3462 39.2541 70.9531 39.967 70.3892C40.2226 70.1875 40.4718 69.9923 40.7338 69.7919C40.8404 69.8793 40.9881 70.009 41.1114 70.113C40.6606 70.3802 36.197 73.3782 35.917 73.6942C35.6716 73.9678 35.759 74.1528 36.0236 74.3198C36.4886 74.6126 41.7717 75.0237 42.1223 75.2163C41.9361 75.4488 41.8051 75.7314 42.1056 75.9729C42.3497 76.1746 42.306 76.2966 42.0954 76.488C41.85 76.7128 41.8552 76.9889 42.1121 77.1996C42.3433 77.3846 42.3227 77.504 42.1223 77.6916C41.85 77.933 41.8667 78.2002 42.1326 78.4571C42.2187 78.538 42.2546 78.6678 42.3137 78.7718C42.2713 78.7538 42.22 78.7307 42.1763 78.7153C41.868 78.9247 41.5263 79.1006 41.2784 79.3601C41.2181 79.432 41.457 79.739 41.5623 79.9484C40.3908 80.6664 40.3651 81.9792 41.7074 82.6805C41.4801 83.0119 41.3593 83.3818 41.6753 83.6953C41.8076 83.8417 41.886 83.9779 41.9194 84.1166C42.1069 84.0498 42.2893 84.0112 42.5 84.0112C42.7132 84.0112 42.9059 84.0498 43.0818 84.1166C43.1152 83.9689 43.1833 83.8327 43.3259 83.6953C43.6419 83.3818 43.5186 83.0119 43.2887 82.6805C44.6361 81.9792 44.6104 80.6664 43.4428 79.9484C43.5456 79.739 43.7858 79.423 43.7215 79.3601C43.4775 79.1006 43.1319 78.9247 42.8262 78.7153C42.7838 78.7307 42.7312 78.7538 42.6849 78.7718C42.7453 78.6678 42.7839 78.538 42.8699 78.4571C43.1332 78.2002 43.1525 77.942 42.8802 77.6916C42.6785 77.504 42.6631 77.3846 42.8905 77.1996C43.1525 76.9889 43.1525 76.7063 42.9084 76.488C42.6952 76.2966 42.6515 76.1746 42.8982 75.9729C43.1987 75.7314 43.0652 75.4488 42.8802 75.2163C43.2296 75.0237 48.514 74.6113 48.9815 74.3198C49.2448 74.1605 49.3309 73.9678 49.0856 73.6942C48.8055 73.3782 44.3368 70.3802 43.8911 70.113C44.0144 70.009 44.1621 69.8793 44.2687 69.7919C44.532 70.0013 44.7864 70.1875 45.0356 70.3892C45.7485 70.9608 46.5384 71.3462 47.5044 71.3462C48.5679 71.3462 49.5146 70.6692 49.8922 69.6391C50.2724 68.6218 49.9642 67.6224 49.074 67.011C48.225 66.415 46.9572 66.3829 46.0683 66.9301C45.2295 67.4464 45.0677 68.4779 45.7266 69.1946C46.2186 69.7367 46.8775 69.9307 47.6251 69.833C48.4074 69.7367 48.83 68.9313 48.3817 68.415C48.347 68.3726 48.311 68.3417 48.2686 68.3173C48.1607 68.2441 48.0284 68.2043 47.873 68.2043C47.2102 68.2043 47.0599 68.93 47.4209 69.2601C47.3695 69.2756 47.3078 69.2846 47.2359 69.2923C46.8249 69.3295 46.3946 69.0919 46.2443 68.7348C46.0786 68.3456 46.225 67.8896 46.5872 67.6378C47.2821 67.1536 48.5486 67.4272 48.9378 68.1465C49.3309 68.8876 49.1035 69.887 48.4151 70.4033C47.6932 70.9364 46.7825 70.9441 46.0079 70.3789C45.3336 69.878 44.848 69.2486 44.6117 68.4843C44.374 67.7355 44.1711 66.975 43.9425 66.2198C43.8718 65.977 43.9861 65.8794 44.2238 65.8087C45.1704 65.503 45.9475 64.9532 46.6052 64.2699C46.6579 64.2108 46.7195 64.1556 46.7619 64.0901C46.9546 63.8242 47.2359 63.5583 47.0535 63.2269C46.8762 62.9109 46.4909 63.0355 46.1852 63.0278H45.06C45.4826 62.4549 46.5564 62.0978 47.4414 62.2224C48.3637 62.3432 49.1395 62.7606 49.8396 63.2834C51.485 64.5191 52.6462 66.162 53.6275 67.8626C54.2967 69.0161 54.8144 70.2325 55.5864 71.3372C57.2819 73.7546 59.603 75.4231 62.759 75.9215C65.265 76.3171 67.4962 75.6094 69.5282 74.2941C71.2687 73.174 72.6136 71.7212 73.5693 69.9743C73.6425 69.8292 73.8506 69.7328 74.0111 69.6416C74.1242 69.5774 74.2744 69.562 74.3978 69.5145C74.7291 69.3809 74.8794 69.2653 74.9244 69.088C74.3322 69.1895 73.7183 69.246 73.0978 69.246C72.2886 69.2473 71.4987 69.1522 70.7678 68.984ZM14.9412 72.3288C14.4403 71.7803 14.5559 71.1419 15.2225 70.7335C15.9354 70.2967 16.8654 70.3789 17.3856 71.0058C17.6746 71.3616 17.9341 71.7957 18.0189 72.2248C18.2372 73.2793 18.7767 74.0937 19.7953 74.6268C19.8223 74.6435 19.8454 74.6833 19.925 74.7693C17.911 74.4469 16.2257 73.7392 14.9412 72.3288ZM42.4756 67.1292H41.8282C41.8693 66.7991 41.913 66.4754 41.9502 66.1465H42.4756H43.0035C43.0485 66.4754 43.0844 66.7991 43.1268 67.1292H42.4756ZM70.0279 72.3378C68.746 73.7392 67.0569 74.4482 65.0351 74.7706C65.116 74.6923 65.1327 74.6512 65.1777 74.6357C66.1988 74.1027 66.7332 73.2896 66.9516 72.2337C67.0389 71.806 67.2958 71.3693 67.5861 71.0173C68.105 70.3892 69.0363 70.307 69.7466 70.7437C70.4171 71.1419 70.5366 71.7803 70.0279 72.3378Z" fill="black"/>
<path d="M31.8086 54.4665C31.8086 55.0792 32.2389 55.5686 32.7732 55.5686C33.3089 55.5686 33.7392 55.0779 33.7392 54.4665C33.7392 54.401 33.7302 54.3355 33.7225 54.2712L33.0802 52.1762C33.0802 52.1518 33.0802 52.1338 33.07 52.1133C32.9749 52.1441 32.867 52.1608 32.7617 52.1608C32.6589 52.1608 32.5536 52.1441 32.456 52.1133V52.1762L31.8137 54.2712C31.8124 54.3355 31.8086 54.401 31.8086 54.4665Z" fill="black"/>
<path d="M69.9923 80.8491C69.9923 81.1972 70.3289 81.4927 70.7168 81.4927C71.1008 81.4927 71.3911 81.2191 71.3911 80.8671C71.3834 80.5126 71.0546 80.2197 70.668 80.2197C70.3006 80.2197 69.9846 80.5113 69.9923 80.8491Z" fill="black"/>
<path d="M77.6732 73.5136C77.6732 73.4314 77.6629 73.3595 77.6552 73.2876L76.8999 70.8111C76.8999 70.7623 76.8896 70.7212 76.8896 70.6826C76.774 70.7147 76.661 70.7404 76.539 70.7404C76.4182 70.7404 76.2936 70.7147 76.1883 70.6826C76.1883 70.7199 76.1806 70.7725 76.1806 70.8111L75.4253 73.2876C75.3983 73.3595 75.3906 73.4301 75.3906 73.5136C75.3906 74.2394 75.898 74.82 76.5325 74.82C77.1671 74.82 77.6732 74.2304 77.6732 73.5136Z" fill="black"/>
<path d="M29.6183 63.1391C29.6273 62.7781 29.3383 62.502 28.9491 62.502C28.5791 62.502 28.2619 62.7935 28.2542 63.1314C28.2439 63.4782 28.5599 63.7685 28.9285 63.7762C29.301 63.7685 29.608 63.4859 29.6183 63.1391Z" fill="black"/>
<path d="M24.6609 63.3316C24.6532 63.0002 24.3437 62.7343 23.9853 62.7266C23.5987 62.7266 23.2737 63.0258 23.2814 63.3804C23.2917 63.7272 23.5987 64.0085 23.9763 64.0085C24.3527 64.0021 24.6776 63.6784 24.6609 63.3316Z" fill="black"/>
<path d="M31.7972 61.987C31.8088 61.6389 31.4967 61.3486 31.1203 61.3486C30.7427 61.3486 30.4357 61.6312 30.4357 61.9767C30.428 62.3236 30.7337 62.6216 31.1049 62.6164C31.4723 62.6216 31.7972 62.3236 31.7972 61.987Z" fill="black"/>
<path d="M26.9806 63.5879C26.9716 63.2437 26.6569 62.9637 26.287 62.9688C25.9273 62.9791 25.619 63.2758 25.6113 63.6149C25.6113 63.9617 25.9196 64.2507 26.287 64.2507C26.6646 64.2507 26.9922 63.9476 26.9806 63.5879Z" fill="black"/>
<path d="M21.6818 61.9767C21.6728 62.3184 21.9811 62.6216 22.3421 62.6318C22.7197 62.6395 23.0537 62.3338 23.0537 61.9767C23.0537 61.6299 22.7454 61.3486 22.369 61.3486C21.9978 61.3486 21.6908 61.6312 21.6818 61.9767Z" fill="black"/>
<path d="M72.355 81.7266C71.9786 81.7356 71.6523 82.0246 71.6523 82.3868C71.6523 82.645 71.818 82.8723 72.0557 82.9841C72.1507 83.0252 72.2586 83.0496 72.3614 83.0496C72.4667 83.0496 72.5849 83.0252 72.6697 82.9841C72.906 82.88 73.0756 82.6552 73.0756 82.3868C73.0781 82.0258 72.7493 81.7266 72.355 81.7266Z" fill="black"/>
<path d="M70.1047 82.3482C70.0944 81.995 69.7707 81.7021 69.3815 81.7021C69.0154 81.7021 68.6995 81.995 68.7072 82.3315C68.7072 82.6861 69.0411 82.9764 69.4303 82.9764C69.8144 82.9764 70.1047 82.7015 70.1047 82.3482Z" fill="black"/>
<path d="M70.8008 78.9783C70.8085 79.3341 71.1373 79.6321 71.5214 79.6321C71.89 79.6321 72.206 79.3354 72.1957 78.9937C72.188 78.6469 71.8566 78.3438 71.4751 78.3438C71.1001 78.3502 70.8008 78.6315 70.8008 78.9783Z" fill="black"/>
<path d="M68.7791 80.269L68.0238 77.7951C68.0238 77.7463 68.0109 77.7052 68.0109 77.6641C67.903 77.6949 67.7849 77.7206 67.6641 77.7206C67.5408 77.7206 67.4162 77.6949 67.3109 77.6641C67.3109 77.7039 67.3006 77.7527 67.3006 77.7951L66.5453 80.269C66.5351 80.3409 66.5273 80.4206 66.5273 80.4938C66.5273 81.2182 67.036 81.8001 67.6718 81.8001C68.2794 81.8001 68.7958 81.2118 68.7958 80.4938C68.797 80.4142 68.7868 80.3397 68.7791 80.269Z" fill="black"/>
<path d="M67.6534 77.3927C67.7665 77.3927 67.8744 77.3657 67.9617 77.3259C68.2006 77.2205 68.365 76.9945 68.365 76.7299C68.365 76.3664 68.0413 76.0684 67.6444 76.0684C67.2501 76.0684 66.9238 76.3651 66.9238 76.7299C66.9238 76.9868 67.0895 77.2141 67.3259 77.3259C67.4351 77.367 67.543 77.3927 67.6534 77.3927Z" fill="black"/>
<path d="M72.7314 83.3242C72.6184 83.3563 72.5028 83.3807 72.3833 83.3807C72.26 83.3807 72.1354 83.3563 72.0301 83.3242C72.0301 83.364 72.0224 83.4116 72.0224 83.4539L71.2671 85.9292C71.2594 86.0011 71.2466 86.082 71.2466 86.1552C71.2286 86.8797 71.7385 87.4616 72.3705 87.4616C73.0076 87.4616 73.515 86.8733 73.515 86.1552C73.515 86.0743 73.5073 86.0011 73.497 85.9292L72.7443 83.4539C72.7443 83.4039 72.7314 83.364 72.7314 83.3242Z" fill="black"/>
<path d="M71.7658 73.7545C71.3921 73.7815 71.1082 74.0705 71.139 74.4148C71.1621 74.7693 71.5051 75.0531 71.8917 75.03C72.2629 75.0069 72.5519 74.6986 72.534 74.3608C72.507 74.014 72.155 73.7391 71.7658 73.7545Z" fill="black"/>
<path d="M72.0531 76.2786C71.6742 76.2683 71.3659 76.5522 71.3556 76.8977C71.3479 77.2458 71.6819 77.5605 72.0608 77.5669C72.4397 77.5759 72.7351 77.3036 72.748 76.9465C72.748 76.5766 72.4397 76.2863 72.0531 76.2786Z" fill="black"/>
<path d="M50.5971 58.5752C50.2272 58.5752 49.9202 58.8668 49.9279 59.22C49.9407 59.5758 50.2362 59.8391 50.6151 59.8391C50.9953 59.8391 51.292 59.5604 51.2817 59.2046C51.2804 58.8655 50.9657 58.5752 50.5971 58.5752Z" fill="black"/>
<path d="M67.6533 82.8489C67.2692 82.8386 66.9609 83.1058 66.9609 83.4616C66.9609 83.8149 67.2872 84.1231 67.6738 84.1231C68.0502 84.1231 68.3508 83.8316 68.3392 83.477C68.3315 83.1302 68.0348 82.8566 67.6533 82.8489Z" fill="black"/>
<path d="M55.338 63.1393C55.3483 63.4874 55.6565 63.7687 56.0252 63.7687C56.3938 63.7687 56.7124 63.4719 56.7021 63.1213C56.6918 62.7847 56.3759 62.4932 56.0072 62.4932C55.6219 62.5022 55.3316 62.7847 55.338 63.1393Z" fill="black"/>
<path d="M52.3355 60.1554C51.9669 60.1477 51.6406 60.447 51.6406 60.7848C51.6406 61.1226 51.9566 61.4219 52.3265 61.4296C52.7055 61.4373 53.0137 61.156 53.0137 60.8028C53.0137 60.465 52.7055 60.1631 52.3355 60.1554Z" fill="black"/>
<path d="M53.1643 61.987C53.1746 62.3236 53.488 62.6164 53.8592 62.6164C54.2279 62.6164 54.5336 62.3223 54.5272 61.9767C54.5207 61.6312 54.2112 61.3486 53.84 61.3486C53.4559 61.3486 53.154 61.6389 53.1643 61.987Z" fill="black"/>
<path d="M75.8047 69.7478C75.8047 70.006 75.9678 70.2321 76.208 70.3451C76.3134 70.3862 76.4187 70.4106 76.5317 70.4106C76.6447 70.4106 76.7526 70.3862 76.84 70.3451C77.0763 70.2423 77.242 70.0163 77.242 69.7478C77.242 69.383 76.9183 69.0889 76.5214 69.0889C76.1284 69.0889 75.8047 69.383 75.8047 69.7478Z" fill="black"/>
<path d="M46.9674 55.6584C46.9841 55.9963 47.3168 56.2788 47.679 56.2621C48.0463 56.2544 48.3469 55.9564 48.3302 55.6096C48.3032 55.2628 47.986 54.9879 47.616 55.0046C47.2474 55.0123 46.952 55.3193 46.9674 55.6584Z" fill="black"/>
<path d="M78.7964 65.5244H75.056H74.7027H74.5602H71.715H71.4761H71.1254H67.0215C67.0318 66.9669 68.5873 68.2013 70.785 68.6945C71.4478 68.8384 72.162 68.9168 72.9096 68.9168C73.7098 68.9168 74.4857 68.8217 75.178 68.6611C77.3038 68.1525 78.7964 66.9374 78.7964 65.5244Z" fill="black"/>
<path d="M48.4062 57.5775C48.4062 57.9243 48.712 58.2146 49.0832 58.2223C49.4531 58.23 49.7678 57.9397 49.7768 57.6019C49.7768 57.264 49.4595 56.966 49.1024 56.9583C48.7222 56.9468 48.4062 57.2396 48.4062 57.5775Z" fill="black"/>
<path d="M52.1851 51.837C52.284 51.837 52.3726 51.8139 52.4497 51.7817C52.6501 51.6931 52.7926 51.4979 52.7926 51.2795C52.7926 50.9738 52.5203 50.7246 52.1851 50.7246C51.8511 50.7246 51.5801 50.9725 51.5801 51.2795C51.5801 51.4979 51.7175 51.6918 51.9218 51.7817C52.0014 51.8139 52.0913 51.837 52.1851 51.837Z" fill="black"/>
<path d="M58.665 62.9688C58.2938 62.9637 57.9778 63.245 57.965 63.5879C57.9573 63.9463 58.2835 64.2507 58.665 64.2507C59.0337 64.2507 59.3394 63.9604 59.333 63.6149C59.3407 63.2758 59.0337 62.9791 58.665 62.9688Z" fill="black"/>
<path d="M37.9909 55.6579C38.0101 55.3175 37.7019 55.0118 37.3422 55.0041C36.9723 54.9951 36.655 55.27 36.6396 55.6091C36.6203 55.9559 36.9119 56.2539 37.2895 56.2616C37.6415 56.2796 37.9742 55.9958 37.9909 55.6579Z" fill="black"/>
<path d="M36.5521 57.5774C36.5521 57.2396 36.2259 56.948 35.8572 56.9583C35.4976 56.966 35.1777 57.264 35.1777 57.6018C35.1777 57.9409 35.5079 58.2299 35.8752 58.2222C36.2452 58.2145 36.5521 57.9229 36.5521 57.5774Z" fill="black"/>
<path d="M32.7755 51.837C32.8693 51.837 32.9592 51.8139 33.0389 51.7817C33.2405 51.6931 33.3844 51.4979 33.3844 51.2795C33.3844 50.9738 33.1134 50.7246 32.7755 50.7246C32.4428 50.7246 32.168 50.9725 32.168 51.2795C32.168 51.4979 32.308 51.6918 32.5122 51.7817C32.5893 51.8139 32.6766 51.837 32.7755 51.837Z" fill="black"/>
<path d="M34.3386 59.8391C34.7162 59.8391 35.0142 59.5681 35.0219 59.22C35.0335 58.8732 34.7239 58.5829 34.3553 58.5752C33.993 58.5752 33.6771 58.8668 33.6681 59.2046C33.6617 59.5604 33.9507 59.8391 34.3386 59.8391Z" fill="black"/>
<path d="M31.9473 60.8028C31.9473 61.156 32.2555 61.4296 32.6332 61.4296C33.0031 61.4219 33.3178 61.1226 33.3178 60.7848C33.3178 60.4457 32.9928 60.1477 32.6242 60.1554C32.2555 60.1631 31.9473 60.465 31.9473 60.8028Z" fill="black"/>
<path d="M64.2188 60.1339C64.2188 59.7781 63.872 59.4788 63.4944 59.4865C63.136 59.4967 62.847 59.7691 62.8341 60.1017C62.8264 60.4653 63.1424 60.771 63.5316 60.7633C63.9002 60.762 64.2188 60.4717 64.2188 60.1339Z" fill="black"/>
<path d="M60.2898 63.3318C60.2718 63.6786 60.6083 64.001 60.9744 64.0087C61.343 64.019 61.659 63.7261 61.6667 63.3806C61.6796 63.0158 61.3507 62.7178 60.9667 62.7268C60.6083 62.7345 60.3077 63.0004 60.2898 63.3318Z" fill="black"/>
<path d="M61.8984 61.9767C61.8984 62.3236 62.2427 62.6395 62.6113 62.6318C62.9723 62.6216 63.2793 62.3236 63.269 61.9767C63.2613 61.6299 62.9556 61.3563 62.5741 61.3486C62.217 61.3486 61.8984 61.6312 61.8984 61.9767Z" fill="black"/>
<path d="M53.1356 54.2693L52.4947 52.1743C52.4947 52.1499 52.4947 52.1319 52.4844 52.1113C52.3893 52.1422 52.2853 52.1589 52.1774 52.1589C52.0721 52.1589 51.968 52.1422 51.8704 52.1113C51.8704 52.1267 51.8704 52.1499 51.8614 52.1743L51.2204 54.2693C51.2114 54.3348 51.2012 54.4003 51.2012 54.4645C51.2012 55.0772 51.6328 55.5666 52.1697 55.5666C52.7066 55.5666 53.1343 55.0759 53.1343 54.4645C53.1523 54.4003 53.1472 54.3348 53.1356 54.2693Z" fill="black"/>
<path d="M58.4202 84.7175C58.4356 85.0708 58.7811 85.3624 59.16 85.3444C59.5184 85.329 59.7894 85.0554 59.7894 84.7175C59.7894 84.363 59.458 84.0637 59.0791 84.0714C58.7105 84.0804 58.4099 84.381 58.4202 84.7175Z" fill="black"/>
<path d="M59.8846 77.8985C59.5339 77.9075 59.2346 78.1798 59.2346 78.5125C59.2243 78.8683 59.5429 79.1728 59.927 79.1817C60.3059 79.1817 60.6065 78.8992 60.6065 78.5536C60.5872 78.1875 60.2584 77.8921 59.8846 77.8985Z" fill="black"/>
<path d="M59.5449 86.8943C59.5449 87.1923 59.7376 87.4582 60.0086 87.5789C60.114 87.6277 60.2373 87.6534 60.3696 87.6534C60.5006 87.6534 60.6149 87.6277 60.7279 87.5789C61.0067 87.4582 61.1942 87.2 61.1942 86.8943C61.1942 86.4742 60.8256 86.1377 60.3683 86.1377C59.911 86.1377 59.5449 86.4742 59.5449 86.8943Z" fill="black"/>
<path d="M55.9227 83.5488C55.9227 83.2174 55.617 82.9219 55.2547 82.904C54.8758 82.8885 54.5624 83.1531 54.5495 83.5C54.5316 83.8481 54.8578 84.1692 55.2342 84.1692C55.6054 84.1795 55.9227 83.8879 55.9227 83.5488Z" fill="black"/>
<path d="M65.1253 84.3715C65.133 84.7106 65.449 84.9893 65.8176 84.9893C66.1991 84.9893 66.5048 84.7093 66.5048 84.3625C66.5048 84.0092 66.1606 83.71 65.7842 83.7189C65.4079 83.7254 65.115 84.0157 65.1253 84.3715Z" fill="black"/>
<path d="M49.5042 79.704C49.5042 79.3507 49.1716 79.0437 48.7862 79.0592C48.4304 79.0681 48.1504 79.343 48.1504 79.6808C48.1504 80.0341 48.4856 80.3398 48.8633 80.3231C49.2165 80.3154 49.5132 80.0354 49.5042 79.704Z" fill="black"/>
<path d="M56.4152 77.1106C56.0389 77.1016 55.7383 77.3829 55.7383 77.7284C55.7383 78.0739 56.0389 78.3642 56.4075 78.3822C56.7839 78.3989 57.0947 78.124 57.0998 77.7785C57.1101 77.4163 56.8018 77.117 56.4152 77.1106Z" fill="black"/>
<path d="M56.4122 84.2497C56.42 84.5978 56.7205 84.8778 57.0917 84.8971C57.4655 84.9125 57.7841 84.6453 57.7841 84.2895C57.7918 83.9363 57.4655 83.628 57.0917 83.6203C56.7218 83.6126 56.4045 83.9041 56.4122 84.2497Z" fill="black"/>
<path d="M58.1462 77.657C57.7776 77.6403 57.4513 77.9216 57.4436 78.262C57.4333 78.6088 57.7699 78.9312 58.1462 78.9312C58.4994 78.9389 58.8231 78.6396 58.8231 78.3121C58.8231 77.9704 58.5046 77.6737 58.1462 77.657Z" fill="black"/>
<path d="M49.3131 80.8732C49.2964 81.2188 49.6278 81.5425 50.0093 81.5425C50.3587 81.5425 50.6682 81.2689 50.676 80.9388C50.6862 80.5842 50.36 80.2695 49.981 80.2695C49.6278 80.2695 49.3195 80.5418 49.3131 80.8732Z" fill="black"/>
<path d="M50.8441 72.7405C50.4934 72.7456 50.1915 73.0218 50.1838 73.3519C50.1735 73.7064 50.5088 74.0224 50.8839 74.0147C51.2654 74.0032 51.5621 73.7077 51.5441 73.3596C51.5287 73.0218 51.2011 72.7302 50.8441 72.7405Z" fill="black"/>
<path d="M51.043 81.9375C51.043 82.2985 51.3782 82.5978 51.7661 82.5875C52.1258 82.5811 52.4135 82.2985 52.4135 81.9684C52.4135 81.6126 52.0718 81.3081 51.6929 81.3146C51.3345 81.3248 51.043 81.6074 51.043 81.9375Z" fill="black"/>
<path d="M55.5368 76.8018C55.5368 76.4627 55.2285 76.1647 54.8689 76.1493C54.4977 76.1313 54.1842 76.4062 54.174 76.753C54.1663 77.1088 54.4797 77.4158 54.8586 77.4222C55.235 77.4312 55.5368 77.1473 55.5368 76.8018Z" fill="black"/>
<path d="M49.8732 71.3204C49.5135 71.3204 49.2258 71.594 49.2168 71.9254C49.2168 72.2799 49.5418 72.5946 49.9181 72.5882C50.2701 72.5779 50.5707 72.3056 50.5796 71.9768C50.5861 71.6274 50.2547 71.314 49.8732 71.3204Z" fill="black"/>
<path d="M53.461 82.0587C53.1026 82.0587 52.8033 82.3413 52.7931 82.6637C52.7866 83.0157 53.1193 83.324 53.4982 83.324C53.8566 83.324 54.1559 83.0504 54.1662 82.7215C54.1739 82.3632 53.8374 82.051 53.461 82.0587Z" fill="black"/>
<path d="M52.1264 73.9248C51.7461 73.9248 51.4507 74.2061 51.4571 74.5619C51.4674 74.9087 51.7834 75.1965 52.1533 75.1965C52.5207 75.1965 52.8392 74.8985 52.8187 74.5516C52.8123 74.2061 52.495 73.9248 52.1264 73.9248Z" fill="black"/>
<path d="M61.3445 84.3057C60.9579 84.3057 60.6599 84.5805 60.6702 84.9363C60.6779 85.2896 61.0093 85.5889 61.3908 85.5799C61.7389 85.5722 62.0407 85.296 62.051 84.9659C62.0574 84.6216 61.7235 84.3057 61.3445 84.3057Z" fill="black"/>
<path d="M42.4737 86.4992C42.6613 86.4992 42.8257 86.4594 42.9824 86.3939C43.3819 86.2153 43.6516 85.8556 43.6516 85.4266C43.6516 85.0246 43.4088 84.6701 43.0569 84.4851C42.8899 84.3965 42.6947 84.3477 42.4866 84.3477C42.2734 84.3477 42.0807 84.3965 41.9137 84.4851C41.554 84.6714 41.3164 85.0143 41.3164 85.4266C41.3164 85.8556 41.5887 86.2256 41.9856 86.3939C42.1244 86.4594 42.3003 86.4992 42.4737 86.4992Z" fill="black"/>
<path d="M62.9619 84.6535C62.9413 85.0093 63.2676 85.315 63.6542 85.3227C64.0434 85.3317 64.3414 85.0581 64.3414 84.7036C64.3414 84.3491 64.0151 84.0498 63.6285 84.0498C63.2676 84.0485 62.9721 84.3247 62.9619 84.6535Z" fill="black"/>
<path d="M65.2107 76.5947C64.8292 76.5754 64.5081 76.8503 64.5004 77.1984C64.4875 77.5452 64.8164 77.8676 65.203 77.8676C65.5716 77.8741 65.885 77.5838 65.885 77.237C65.885 76.8991 65.5793 76.6101 65.2107 76.5947Z" fill="black"/>
<path d="M47.4585 77.3037C47.1066 77.3037 46.8086 77.585 46.7996 77.9074C46.7816 78.2774 47.0976 78.5766 47.4932 78.5689C47.8528 78.5689 48.1431 78.3043 48.1508 77.9652C48.1598 77.6081 47.8361 77.3037 47.4585 77.3037Z" fill="black"/>
<path d="M44.3344 91.572C44.3344 91.441 44.3254 91.3215 44.31 91.1982L43.0807 87.152H43.073C43.0615 86.9992 43.0538 86.8579 43.0358 86.7256C42.8598 86.7911 42.6761 86.8232 42.4732 86.8232C42.2715 86.8232 42.0878 86.7911 41.9106 86.7256C41.9029 86.8579 41.8939 86.9992 41.8772 87.152H41.8669L40.6274 91.1982C40.6197 91.3215 40.6094 91.4474 40.6094 91.572C40.6094 92.746 41.4443 93.7055 42.4719 93.7055C43.4995 93.7055 44.3344 92.746 44.3344 91.572Z" fill="black"/>
<path d="M63.4258 77.3916C63.0598 77.3916 62.7515 77.6883 62.7579 78.0338C62.7682 78.3974 63.1022 78.6864 63.4901 78.6735C63.8484 78.6555 64.1375 78.373 64.1375 78.0518C64.1387 77.7037 63.7971 77.3916 63.4258 77.3916Z" fill="black"/>
<path d="M38.7829 75.7234C38.4245 75.7401 38.115 76.0381 38.1252 76.3746C38.1252 76.7227 38.4502 76.995 38.8189 76.9809C39.1785 76.9655 39.4868 76.6675 39.4791 76.3284C39.4675 75.9803 39.1516 75.7067 38.7829 75.7234Z" fill="black"/>
<path d="M38.1659 77.921C38.1607 77.5832 37.8614 77.3096 37.5108 77.3096C37.1319 77.3096 36.8069 77.6127 36.8146 77.9685C36.8261 78.3102 37.1152 78.5671 37.4735 78.5748C37.8602 78.5748 38.18 78.2768 38.1659 77.921Z" fill="black"/>
<path d="M53.4998 76.3833C53.8582 76.373 54.1472 76.093 54.1472 75.7603C54.1472 75.4083 53.8133 75.1014 53.4266 75.1168C53.0683 75.1245 52.7754 75.3994 52.7754 75.7385C52.7754 76.0943 53.1106 76.4 53.4998 76.3833Z" fill="black"/>
<path d="M46.175 75.7234C45.7986 75.7067 45.4929 75.9803 45.4826 76.3284C45.4736 76.6675 45.7806 76.9655 46.1416 76.9809C46.5102 76.9963 46.8365 76.7124 46.8455 76.3746C46.8455 76.0445 46.5385 75.7388 46.175 75.7234Z" fill="black"/>
<path d="M60.801 88.1118C60.7933 88.0386 60.7933 87.9744 60.7804 87.9102C60.6571 87.9487 60.5197 87.9744 60.3784 87.9744C60.2358 87.9744 60.0945 87.9487 59.9725 87.9102C59.9622 87.9744 59.9622 88.0463 59.9519 88.1118L59.0849 90.966C59.0669 91.0533 59.0669 91.1432 59.0669 91.2306C59.0464 92.0616 59.6462 92.7398 60.3694 92.7398C61.0964 92.7398 61.686 92.0629 61.686 91.2306C61.686 91.1432 61.6783 91.0533 61.6654 90.966L60.801 88.1118Z" fill="black"/>
<path d="M61.7844 77.842C61.4157 77.833 61.092 78.1169 61.092 78.4637C61.0818 78.8105 61.4157 79.1175 61.8049 79.1175C62.153 79.1175 62.4626 78.8413 62.4703 78.5215C62.4896 78.1734 62.1607 77.8497 61.7844 77.842Z" fill="black"/>
<path d="M45.9331 9.38867H41.6172V10.6231H45.9331V9.38867Z" fill="black"/>
<path d="M38.9988 9.38867H34.6816V10.6231H38.9988V9.38867Z" fill="black"/>
<path d="M52.8731 9.38867H48.5547V10.6231H52.8731V9.38867Z" fill="black"/>
<path d="M87.5535 9.38867H83.2363V10.6231H87.5535V9.38867Z" fill="black"/>
<path d="M18.1902 9.38867H13.873V10.6231H18.1902V9.38867Z" fill="black"/>
<path d="M25.1245 9.38867H20.8086V10.6231H25.1245V9.38867Z" fill="black"/>
<path d="M80.616 9.38867H76.2988V10.6231H80.616V9.38867Z" fill="black"/>
<path d="M4.31718 9.38867H0V10.6231H4.31718V9.38867Z" fill="black"/>
<path d="M73.6766 9.38867H69.3594V10.6231H73.6766V9.38867Z" fill="black"/>
<path d="M66.743 9.38867H62.4258V10.6231H66.743V9.38867Z" fill="black"/>
<path d="M32.0613 9.38867H27.7441V10.6231H32.0613V9.38867Z" fill="black"/>
<path d="M101.425 9.38867H97.1074V10.6231H101.425V9.38867Z" fill="black"/>
<path d="M59.8068 9.38867H55.4922V10.6231H59.8068V9.38867Z" fill="black"/>
<path d="M80.616 96.1709H76.2988V97.4053H80.616V96.1709Z" fill="black"/>
<path d="M38.9988 96.1709H34.6816V97.4053H38.9988V96.1709Z" fill="black"/>
<path d="M101.425 96.1709H97.1074V97.4053H101.425V96.1709Z" fill="black"/>
<path d="M87.5535 96.1709H83.2363V97.4053H87.5535V96.1709Z" fill="black"/>
<path d="M66.743 96.1709H62.4258V97.4053H66.743V96.1709Z" fill="black"/>
<path d="M52.8731 96.1709H48.5547V97.4053H52.8731V96.1709Z" fill="black"/>
<path d="M25.1245 96.1709H20.8086V97.4053H25.1245V96.1709Z" fill="black"/>
<path d="M18.1902 96.1709H13.873V97.4053H18.1902V96.1709Z" fill="black"/>
<path d="M45.9331 96.1709H41.6172V97.4053H45.9331V96.1709Z" fill="black"/>
<path d="M32.0613 96.1709H27.7441V97.4053H32.0613V96.1709Z" fill="black"/>
<path d="M11.2534 96.1709H6.9375V97.4053H11.2534V96.1709Z" fill="black"/>
<path d="M59.8068 96.1709H55.4922V97.4053H59.8068V96.1709Z" fill="black"/>
<path d="M73.6766 96.1709H69.3594V97.4053H73.6766V96.1709Z" fill="black"/>
<path d="M4.31718 96.1709H0V97.4053H4.31718V96.1709Z" fill="black"/>
<path d="M82.4981 13.8721H81.2637V18.1892H82.4981V13.8721Z" fill="black"/>
<path d="M82.4981 20.8105H81.2637V25.1264H82.4981V20.8105Z" fill="black"/>
<path d="M82.4981 6.9375H81.2637V11.2534H82.4981V6.9375Z" fill="black"/>
<path d="M82.4981 0H81.2637V4.31718H82.4981V0Z" fill="black"/>
<path d="M82.4981 27.7451H81.2637V32.0623H82.4981V27.7451Z" fill="black"/>
<path d="M82.4981 69.3623H81.2637V73.6795H82.4981V69.3623Z" fill="black"/>
<path d="M82.4981 90.1729H81.2637V94.4887H82.4981V90.1729Z" fill="black"/>
<path d="M82.4981 97.1074H81.2637V101.425H82.4981V97.1074Z" fill="black"/>
<path d="M82.4981 76.2998H81.2637V80.6157H82.4981V76.2998Z" fill="black"/>
<path d="M82.4981 34.6816H81.2637V38.9988H82.4981V34.6816Z" fill="black"/>
<path d="M82.4981 104.044H81.2637V108.361H82.4981V104.044Z" fill="black"/>
<path d="M82.4981 83.2344H81.2637V87.5516H82.4981V83.2344Z" fill="black"/>
<path d="M82.4981 41.6191H81.2637V45.935H82.4981V41.6191Z" fill="black"/>
<path d="M82.4981 62.4268H81.2637V66.7439H82.4981V62.4268Z" fill="black"/>
<path d="M82.4981 48.5537H81.2637V52.8709H82.4981V48.5537Z" fill="black"/>
<path d="M82.4981 55.4912H81.2637V59.8071H82.4981V55.4912Z" fill="black"/>
<path d="M95.3067 16.1846H94.0723V20.5005H95.3067V16.1846Z" fill="black"/>
<path d="M95.3067 30.0566H94.0723V34.3725H95.3067V30.0566Z" fill="black"/>
<path d="M94.0703 13.5662H95.3047V9.24902H94.0703V9.38903H90.1719V10.6234H94.0703V13.5662Z" fill="black"/>
<path d="M95.3067 23.1191H94.0723V27.4363H95.3067V23.1191Z" fill="black"/>
<path d="M95.3067 36.9922H94.0723V41.3094H95.3067V36.9922Z" fill="black"/>
<path d="M95.3067 50.8662H94.0723V55.1821H95.3067V50.8662Z" fill="black"/>
<path d="M95.3067 85.5469H94.0723V89.8628H95.3067V85.5469Z" fill="black"/>
<path d="M95.3067 78.6113H94.0723V82.9285H95.3067V78.6113Z" fill="black"/>
<path d="M94.0703 96.1715H90.1719V97.4059H94.4865V96.8009H95.3047V92.4824H94.0703V96.1715Z" fill="black"/>
<path d="M95.3067 57.8008H94.0723V62.118H95.3067V57.8008Z" fill="black"/>
<path d="M95.3067 71.6729H94.0723V75.99H95.3067V71.6729Z" fill="black"/>
<path d="M7.51679 14.4352C7.86489 14.4352 8.1449 14.1539 8.1449 13.8071V10.6228H11.2521V9.38842H8.1449V2.84394C8.1449 2.49584 7.8636 2.21582 7.51679 2.21582C7.16998 2.21582 6.88867 2.49712 6.88867 2.84394V13.8058C6.88867 14.1539 7.16998 14.4352 7.51679 14.4352Z" fill="black"/>
<path d="M89.5228 49.2372H103.682C104.021 49.2372 104.298 48.9598 104.298 48.6207C104.298 48.2815 104.02 48.0041 103.682 48.0041H95.3056V43.9297H94.0712V48.0041H89.5228C89.1837 48.0041 88.9062 48.2815 88.9062 48.6207C88.9062 48.9598 89.1837 49.2372 89.5228 49.2372Z" fill="black"/>
<path d="M103.682 65.8006H95.3056V64.7383H94.0712V65.8006H89.5228C89.1837 65.8006 88.9062 66.078 88.9062 66.4171C88.9062 66.7562 89.185 67.0337 89.5228 67.0337H94.0712V69.0529H95.3056V67.0337H103.682C104.021 67.0337 104.298 66.7562 104.298 66.4171C104.298 66.078 104.021 65.8006 103.682 65.8006Z" fill="black"/>
</svg>
