<svg width="89" height="85" viewBox="0 0 89 85" fill="none" xmlns="http://www.w3.org/2000/svg">
<path d="M2.85714 72.8571H0C0 79.5714 5.42857 85 12.1429 85H88.5714V10.7143H13.5714V0H12.1429C5.42857 0 0 5.42857 0 12.1429V72.8571H2.85714C2.85714 67.7143 7 63.5714 12.1429 63.5714H13.5714V13.5714H85.7143V82.1429H12.1429C7 82.1429 2.85714 78 2.85714 72.8571ZM10.7143 60.7857C7.57143 61.1429 4.78571 62.7143 2.85714 65V12.1429C2.85714 7.5 6.28571 3.64286 10.7143 3V60.7857Z" fill="black"/>
<path d="M72.1437 19.2861H63.5723V67.5004L67.858 76.0718L72.1437 67.5004V19.2861ZM69.2866 22.1433V30.0004H66.4294V22.1433H69.2866ZM67.858 69.6433L66.4294 66.7861V32.8576H69.2866V66.7861L67.858 69.6433Z" fill="black"/>
<path d="M28.5723 53.5718V56.429H34.2866L30.7151 76.2147L33.5008 76.7147L37.1437 56.429H45.7151L49.358 76.7147L52.1437 76.2147L48.5723 56.429H54.2865V53.5718H48.0723L46.4294 44.1433C48.6437 42.5718 50.0008 39.929 50.0008 37.1433C50.0008 32.929 46.9294 29.3576 42.858 28.7147V19.2861H40.0008V28.7147C35.9294 29.429 32.858 32.929 32.858 37.1433C32.858 39.929 34.2151 42.5004 36.4294 44.1433L34.7866 53.5718H28.5723ZM38.7151 42.1433C36.858 41.1433 35.7151 39.2147 35.7151 37.1433C35.7151 34.0004 38.2866 31.429 41.4294 31.429C44.5723 31.429 47.1437 34.0004 47.1437 37.1433C47.1437 39.2147 46.0008 41.1433 44.1437 42.1433L43.2151 42.6433L45.2151 53.5718H37.6437L39.5723 42.6433L38.7151 42.1433Z" fill="black"/>
</svg>
