<svg width="107" height="122" viewBox="0 0 107 122" fill="none" xmlns="http://www.w3.org/2000/svg">
<path d="M10 122H0V42C0 22.7 15.7 7 35 7H107V17H35C21.2 17 10 28.2 10 42V122ZM4 118H6V42C6 26 19 13 35 13H103V11H35C17.9 11 4 24.9 4 42V118Z" fill="black"/>
<path d="M42.8008 122H38.8008V22.0002C38.8008 19.5002 39.2008 17.0002 40.0008 14.7002L43.8008 16.0002C43.1008 17.9002 42.8008 19.9002 42.8008 22.0002V122Z" fill="black"/>
<path d="M74.4 10.1C71 6.2 66.1 4 60.9 4C55.8 4 50.9 6.2 47.5 10L44.5 7.3C48.7 2.7 54.7 0 60.9 0C67.2 0 73.3 2.7 77.4 7.5L74.4 10.1Z" fill="black"/>
<path d="M79.0004 36.2998L78.9004 21.9998C78.9004 19.9998 78.5004 17.9998 77.9004 16.0998L81.7004 14.7998C82.5004 17.0998 82.9004 19.5998 83.0004 22.0998V36.2998H79.0004Z" fill="black"/>
<path d="M83 54.7002H79V79.5002H83V54.7002Z" fill="black"/>
<path d="M92.0012 56.6998H69.7012V45.4998C69.7012 39.2998 74.7012 34.2998 80.9012 34.2998C87.1012 34.2998 92.1012 39.2998 92.1012 45.4998V56.6998H92.0012ZM73.7012 52.6998H88.0012V45.4998C88.0012 41.4998 84.8012 38.2998 80.8012 38.2998C76.8012 38.2998 73.6012 41.4998 73.6012 45.4998V52.6998H73.7012Z" fill="black"/>
<path d="M81.0008 109C80.5008 109 79.9008 109 79.4008 108.9C67.0008 108.2 57.0008 98.2998 56.1008 85.9998C55.5008 78.1998 58.5008 70.6998 64.4008 65.4998C67.8008 62.4998 69.7008 58.0998 69.7008 53.4998H71.7008V52.7998H90.0008V53.2998H92.0008C92.0008 57.8998 94.1008 62.3998 97.6008 65.5998C102.901 70.1998 106.001 76.9998 106.001 83.9998C106.001 90.6998 103.401 96.8998 98.7008 101.6C93.9008 106.4 87.7008 109 81.0008 109ZM73.4008 56.6998C72.7008 61.1998 70.4008 65.3998 67.0008 68.4998C62.1008 72.8998 59.6008 79.1998 60.1008 85.6998C60.9008 95.9998 69.3008 104.3 79.6008 105C85.7008 105.4 91.5008 103.2 95.8008 98.8998C99.8008 94.8998 101.901 89.6998 101.901 84.0998C101.901 78.1998 99.4008 72.4998 94.9008 68.4998C91.4008 65.2998 89.1008 61.1998 88.3008 56.6998H73.4008V56.6998Z" fill="black"/>
<path d="M89.1 77.5H73V81.5H89.1V77.5Z" fill="black"/>
</svg>
