<svg width="126" height="125" viewBox="0 0 126 125" fill="none" xmlns="http://www.w3.org/2000/svg">
<path d="M34.5996 74.2998H86.5996V77.4998L59.5996 80.4998V92.7998H56.0996V116.8H67.0996V92.7998H63.5996V84.0998L90.5996 81.0998V74.2998V72.2998V52.7998H34.5996V74.2998ZM63.0996 112.8H60.0996V96.7998H63.0996V112.8ZM38.5996 56.7998H86.5996V70.2998H38.5996V56.7998Z" fill="black"/>
<path d="M15.8 62.6V124.8H109.8V62.6L117.8 70.6L125.6 62.8L109.8 47V10.8H90.8V28L62.8 0L0 62.8L7.8 70.6L15.8 62.6ZM105.8 58.8V120.8H19.8V58.8H19.6L62.8 15.6L106 58.8H105.8ZM62.8 5.6L94.8 37.6V14.8H105.8V48.6L120 62.8L117.8 65L62.8 10L7.8 65L5.6 62.8L62.8 5.6Z" fill="black"/>
</svg>
