<svg width="125" height="123" viewBox="0 0 125 123" fill="none" xmlns="http://www.w3.org/2000/svg">
<path d="M117 87.0012C115.9 87.0012 114.6 87.2012 113.2 87.6012L91.9001 95.0012C91.9001 94.9012 91.9001 94.9012 91.9001 94.8012C91.9001 94.7012 91.9001 94.6012 91.9001 94.5012C91.9001 94.3012 91.9001 94.2012 91.9001 94.0012C91.9001 93.9012 91.9001 93.8012 91.9001 93.8012V93.7012V93.6012C91.9001 93.4012 91.8001 93.1012 91.8001 92.9012C91.8001 92.9012 91.8001 92.9012 91.8001 92.8012C90.9001 88.9012 87.3001 86.0012 83.1 86.0012H66.2C58.4 76.1012 40.3 76.0012 39.5 76.0012H26.5V71.2012H0V115.301H26.5V111.101L59.3 121.501C59.5 121.601 64.4 123.001 70 123.001C73.4 123.001 76.4 122.501 79 121.401C85.6001 118.701 112.1 104.501 120.1 100.201C122.3 99.0012 125.3 95.6012 123.6 91.5012C122.3 88.5012 120.1 87.0012 117 87.0012ZM22.5 111.201H4V75.1012H22.5V75.8012V109.601V111.201ZM118.1 96.6012C110.2 100.901 83.8001 114.901 77.4 117.601C75.4 118.401 72.9 118.901 70 118.901C64.9 118.901 60.4 117.601 60.4 117.601L26.4 106.901V79.8012H39.4C39.6 79.8012 57.2 79.9012 63.4 89.0012L64 89.9012H82.9001C85.4001 89.9012 87.5001 91.7012 87.8001 94.1012V94.2012C87.8001 94.4012 87.8001 94.5012 87.8001 94.7012C87.8001 94.9012 87.8 95.1012 87.7 95.3012C87.7 95.4012 87.7 95.5012 87.7 95.6012C87.7 95.8012 87.6001 96.0012 87.5001 96.2012C87.5001 96.3012 87.5001 96.4012 87.4001 96.4012C87.3001 96.7012 87.2001 96.9012 87.0001 97.1012C86.2001 98.3012 84.8 99.1012 83.2 99.1012H57.2V103.101H83.2C85.9 103.101 88.4001 101.801 90.0001 99.8012L114.3 91.4012C115.3 91.1012 116.2 91.0012 117 91.0012C118.5 91.0012 119.2 91.5012 119.8 92.9012C120.6 94.8012 118.7 96.3012 118.1 96.6012Z" fill="black"/>
<path d="M103.398 69.8001V32L108.098 36.7L110.898 33.9L103.398 26.4V6.2H91.2977V14.2L76.9977 0L43.0977 33.9L45.8977 36.7L50.5977 32V69.8001H103.398ZM95.2977 23.9V10.2H99.3977V27.9V28V65.8001H54.5977V28L76.9977 5.6L95.2977 23.9Z" fill="black"/>
</svg>
