<svg width="58" height="57" viewBox="0 0 58 57" fill="none" xmlns="http://www.w3.org/2000/svg">
<path d="M12.2422 27.9277V44.2423H29.0131L25.5155 40.8399H15.7398V31.3301L12.2422 27.9277Z" fill="black"/>
<path d="M57.4827 53.2407L52.4637 48.2901V52.7473H3.4976V45.6873H6.99518V42.9654H3.4976V31.6523H6.99518V28.9304H3.4976V18.0427H6.99518V15.3208H3.4976V5.81101L31.3733 32.7751V27.9777L2.99046 0.503244C2.74585 0.263324 2.43334 0.0997009 2.09277 0.0332353C1.7522 -0.0332303 1.39899 0.000472979 1.07819 0.130048C0.757385 0.259624 0.483515 0.479201 0.291496 0.760784C0.0994772 1.04237 -0.00199043 1.3732 2.95842e-05 1.7111V54.4485C2.95842e-05 54.8997 0.184276 55.3324 0.512238 55.6514C0.840199 55.9705 1.28501 56.1497 1.74882 56.1497H56.241C56.5884 56.1517 56.9285 56.053 57.2179 55.8662C57.5074 55.6794 57.7331 55.413 57.8663 55.1009C57.9995 54.7888 58.0342 54.4452 57.9658 54.1139C57.8975 53.7826 57.7293 53.4786 57.4827 53.2407Z" fill="black"/>
<path d="M38.4741 49.3453H45.4693C46.3969 49.3453 47.2865 48.9868 47.9424 48.3487C48.5984 47.7106 48.9669 46.8452 48.9669 45.9428V13.1096L44.9447 5.91345C44.6336 5.38917 44.1843 4.95512 43.6433 4.65608C43.1023 4.35703 42.489 4.20382 41.8668 4.21224C41.2305 4.21716 40.6076 4.39084 40.0653 4.7146C39.5229 5.03835 39.0816 5.4999 38.7889 6.04955L34.9766 13.1436V45.9428C34.9766 46.8452 35.3451 47.7106 36.001 48.3487C36.6569 48.9868 37.5465 49.3453 38.4741 49.3453ZM38.4741 13.9602L41.8668 7.54661L45.4693 13.9772V39.138H38.4741V13.9602ZM38.4741 41.911H45.4693V46.0619H38.4741V41.911Z" fill="black"/>
</svg>
