<svg width="59" height="59" viewBox="0 0 59 59" fill="none" xmlns="http://www.w3.org/2000/svg">
<path d="M57.2138 30.8166C58.0925 29.9379 58.0925 28.5133 57.2138 27.6346L51.8609 22.2817C51.5327 21.9535 51.3483 21.5084 51.3483 21.0443V7.02607C51.3483 5.78343 50.341 4.77606 49.0983 4.77606H44.2562C43.0135 4.77606 42.0062 5.78342 42.0062 7.02606V8.20211C42.0062 9.76119 40.1212 10.542 39.0187 9.43955L30.8166 1.23744C29.9379 0.358756 28.5133 0.358758 27.6346 1.23744L1.23744 27.6346C0.358758 28.5133 0.358756 29.9379 1.23744 30.8166L2.36271 31.9419C3.06258 32.6418 4.19729 32.6418 4.89716 31.9419C5.71115 31.1279 7.10295 31.7044 7.10295 32.8556V56.079C7.10295 57.3216 8.11031 58.329 9.35295 58.329H49.0983C50.341 58.329 51.3483 57.3216 51.3483 56.079V32.8556C51.3483 31.7044 52.7401 31.1279 53.5541 31.9419C54.254 32.6418 55.3887 32.6418 56.0886 31.9419L57.2138 30.8166ZM3.2948 29.5608C3.10971 29.3757 3.10971 29.0756 3.2948 28.8905L27.9882 4.1971C28.6716 3.51368 29.7797 3.51368 30.4631 4.1971L40.5267 14.2607C41.9441 15.6781 44.3677 14.6743 44.3677 12.6697V8.88757C44.3677 7.92107 45.1512 7.13757 46.1177 7.13757H47.2368C48.2033 7.13757 48.9868 7.92107 48.9868 8.88757V21.7889C48.9868 22.3856 49.2239 22.9579 49.6458 23.3799L55.1565 28.8905C55.3416 29.0756 55.3416 29.3757 55.1565 29.5608C54.9714 29.7459 54.6713 29.7459 54.4862 29.5608L30.8166 5.8912C29.9379 5.01252 28.5133 5.01252 27.6346 5.8912L3.96507 29.5608C3.77998 29.7459 3.47989 29.7459 3.2948 29.5608ZM9.46445 27.3914C9.46445 27.3859 9.46429 27.3805 9.46398 27.3751L27.9882 8.85086C28.6716 8.16745 29.7797 8.16744 30.4631 8.85086L48.9873 27.3751C48.987 27.3805 48.9868 27.3859 48.9868 27.3914V54.2175C48.9868 55.184 48.2033 55.9675 47.2368 55.9675H11.2145C10.248 55.9675 9.46445 55.184 9.46445 54.2175V27.3914Z" fill="black" stroke="black" stroke-width="0.5"/>
<path d="M43.5306 38.5335C43.5306 38.3131 43.5092 38.098 43.4688 37.8896C43.2719 36.8727 43.31 35.6637 43.487 34.6268C43.5156 34.4596 43.5306 34.2878 43.5306 34.1124C43.5306 32.299 42.0691 30.8374 40.2557 30.8374H34.6885V24.5722C34.6885 22.1072 32.715 20.1338 30.2501 20.1338C29.2278 20.1338 28.3713 20.9903 28.3713 22.0126V25.9525C28.3713 26.1514 28.3386 26.346 28.2703 26.5266C27.4194 28.7762 26.031 30.744 24.2131 32.2527C24.1805 32.2404 24.1452 32.2336 24.1082 32.2336H17.1719C15.9292 32.2336 14.9219 33.2409 14.9219 34.4836V48.1679C14.9219 49.4105 15.9292 50.4179 17.1719 50.4179H23.7913C24.1552 50.4179 24.4502 50.1229 24.4502 49.759C24.4502 49.6464 24.5766 49.5515 24.7028 49.6051C25.9533 50.1366 27.2756 50.4179 28.6678 50.4179H37.7426C39.4164 50.4179 40.7849 49.0494 40.7849 47.3756C40.7849 46.7815 41.0448 46.1667 41.4791 45.7732C42.189 45.1298 42.6464 44.1972 42.6464 43.1872C42.6464 42.1061 42.8948 40.8335 43.2886 39.8239C43.4444 39.4247 43.5306 38.9888 43.5306 38.5335ZM22.0887 48.0564H19.0334C18.0669 48.0564 17.2834 47.2729 17.2834 46.3064V36.3451C17.2834 35.3786 18.0669 34.5951 19.0334 34.5951H20.3387C21.3052 34.5951 22.0887 35.3786 22.0887 36.3451V48.0564ZM39.0922 44.3334H38.6268C37.9747 44.3334 37.4461 44.862 37.4461 45.5141C37.4461 45.8533 37.6123 46.1395 37.7807 46.3715C37.852 46.4697 37.93 46.5663 38.0026 46.6563C38.0167 46.6738 38.0306 46.691 38.0442 46.7079C38.1305 46.8153 38.2069 46.9132 38.2688 47.0092C38.3373 47.1154 38.3768 47.241 38.3768 47.3756C38.3768 47.7495 38.0699 48.0564 37.6961 48.0564H28.6213C27.4339 48.0564 26.2734 47.7859 25.202 47.2653C24.6974 47.0201 24.4036 46.4737 24.4036 45.8761V35.9641C24.4036 35.4294 24.6481 34.924 25.0674 34.5921L25.4253 34.3087C25.4254 34.3087 25.4254 34.3086 25.4255 34.3086C27.8848 32.3695 29.6812 29.7687 30.6734 26.792C30.7127 26.674 30.7328 26.5505 30.7328 26.4261V24.4996C30.7328 23.9785 31.0007 23.5375 31.3019 23.3443C31.4497 23.2496 31.5891 23.2236 31.7047 23.2499C31.8165 23.2754 31.9497 23.3597 32.0692 23.5749C32.2332 23.8702 32.327 24.2091 32.327 24.5722V30.8548C32.327 32.1563 33.3696 33.199 34.6711 33.199H40.2557C40.7691 33.199 41.1691 33.5989 41.1691 34.1124C41.1691 34.6258 40.7691 35.0258 40.2557 35.0258C39.9891 35.0258 39.773 35.2419 39.773 35.5085V36.2066C39.773 36.5427 39.9244 36.8237 40.1112 37.0502C40.2966 37.2752 40.5334 37.4664 40.7371 37.624C41.0005 37.828 41.1691 38.1509 41.1691 38.5335C41.1691 39.1865 40.676 39.6796 40.023 39.6796H39.5809C39.5306 39.6796 39.4836 39.6931 39.4431 39.7168C39.418 39.7136 39.3906 39.7097 39.3603 39.7054C39.067 39.6635 38.8422 39.8975 38.8422 40.1636V40.8603C38.8422 41.1965 38.9937 41.4774 39.1804 41.704C39.3658 41.929 39.6026 42.1201 39.8063 42.2778C40.0698 42.4817 40.2383 42.8047 40.2383 43.1872C40.2383 43.8403 39.7453 44.3334 39.0922 44.3334Z" fill="black" stroke="black" stroke-width="0.5"/>
</svg>
