<svg width="59" height="58" viewBox="0 0 59 58" fill="none" xmlns="http://www.w3.org/2000/svg">
<path d="M58.2738 23.71H49.349H30.8822C30.6164 23.71 30.4075 23.9188 30.4075 24.1847V32.0271H21.4447C21.1788 32.0271 20.97 32.236 20.97 32.5019V40.3443H12.5199C12.254 40.3443 12.0452 40.5532 12.0452 40.819V48.6615H2.81652C2.55068 48.6615 2.3418 48.8703 2.3418 49.1362V57.4533C2.3418 57.7192 2.55068 57.9281 2.81652 57.9281H21.2358H21.3402H39.7595H58.2833C58.5491 57.9281 58.758 57.7192 58.758 57.4533V49.1362V40.819V32.5019V24.1847C58.7485 23.9283 58.5301 23.71 58.2738 23.71ZM39.75 48.6709H31.4614V41.3032H39.807H39.9114H48.8742V48.6709H39.75ZM21.8055 49.6204H39.2753V56.9881H21.8055V49.6204ZM57.799 32.9861V40.3538H49.349H40.3862V32.9861H57.799ZM49.8237 48.6709V41.3032H57.799V48.6709H49.8237ZM57.799 32.0366H49.8237V24.6689H57.799V32.0366ZM31.3569 24.6594H48.8742V32.0271H39.9114H39.807H31.3569V24.6594ZM21.9194 32.9861H39.3323V40.3538H30.9866H21.9194V32.9861ZM3.29124 49.6204H20.7611V56.9881H3.29124V49.6204ZM21.2263 48.6709H12.9946V41.3032H21.4447H30.5119V48.6709H21.3308H21.2263ZM40.2248 56.9976V49.6299H49.349H49.8142H57.799V56.9976H40.2248Z" fill="black"/>
<path d="M5.03599 21.9816L15.9167 17.4433C17.1035 16.9495 17.882 15.8956 18.0909 14.7183L20.5405 13.6929L23.1894 20.0447C23.5597 20.9277 24.3383 21.5354 25.2877 21.6778C25.4206 21.6968 25.5536 21.7063 25.6865 21.7063C26.4935 21.7063 27.2436 21.355 27.7658 20.7188L39.6624 6.1733C40.308 5.38526 40.4504 4.35986 40.0611 3.41991C39.6718 2.47995 38.8363 1.86281 37.8204 1.76787L19.1258 0.0113891C18.1858 -0.0740612 17.2649 0.324707 16.6952 1.09376C16.1255 1.86281 16.0116 2.85024 16.3819 3.73322L19.1733 10.4268L16.9041 11.3763C16.6003 11.1104 16.268 10.8921 15.8882 10.7307C14.9862 10.3604 13.9988 10.3604 13.1063 10.7401L2.23512 15.2785C0.383694 16.0476 -0.489798 18.1838 0.279255 20.0352C0.64954 20.9277 1.35213 21.6303 2.25411 22.0006C2.70035 22.181 3.16558 22.2759 3.6403 22.2759C4.10553 22.2664 4.58025 22.1715 5.03599 21.9816ZM25.6295 8.7558C26.0473 8.5849 26.5315 8.78429 26.7024 9.19255C26.8733 9.61031 26.6739 10.0945 26.2656 10.2654L20.6164 12.6201L18.1194 13.6644C18.0814 13.3321 18.0149 12.9998 17.882 12.677C17.7966 12.4776 17.6921 12.2877 17.5782 12.1168L25.6295 8.7558ZM17.2554 3.37243C17.018 2.80277 17.094 2.15714 17.4643 1.66343C17.8345 1.16022 18.4232 0.90387 19.0403 0.960837L37.7445 2.72681C38.3996 2.79327 38.9408 3.19204 39.1971 3.79969C39.4535 4.40733 39.349 5.07195 38.9408 5.58465L27.0347 20.1112C26.6454 20.5954 26.0378 20.8233 25.4301 20.7378C24.813 20.6524 24.3098 20.2536 24.0724 19.6839L21.4235 13.3321L26.6359 11.1579C27.5379 10.7781 27.9652 9.74323 27.5854 8.84125C27.2151 7.93928 26.1707 7.51203 25.2687 7.89181L20.0563 10.066L17.2554 3.37243ZM1.15275 19.665C0.583078 18.2978 1.2287 16.7217 2.59591 16.152L13.4766 11.6136C13.8089 11.4712 14.1602 11.4048 14.5115 11.4048C14.8533 11.4048 15.2046 11.4712 15.5369 11.6041C15.8977 11.7561 16.211 11.9744 16.4673 12.2498C16.4768 12.2593 16.4768 12.2688 16.4863 12.2688C16.6952 12.4966 16.8756 12.753 16.999 13.0473C17.5687 14.4145 16.9231 15.9906 15.5559 16.5603L4.6657 21.1081C4.00109 21.3835 3.27002 21.3835 2.6054 21.1176C1.95028 20.8423 1.42809 20.3296 1.15275 19.665Z" fill="black"/>
</svg>
