<svg width="56" height="56" viewBox="0 0 56 56" fill="none" xmlns="http://www.w3.org/2000/svg">
<path d="M43.2318 41.2538C43.0536 41.4829 38.8281 47.0065 38.8281 49.5011C38.8281 52.1144 40.9493 54.2356 43.5627 54.2356C46.176 54.2356 48.2972 52.1144 48.2972 49.5011C48.2972 47.0065 44.0802 41.4914 43.8936 41.2538C43.7493 41.0417 43.393 41.0417 43.2318 41.2538ZM43.5712 53.3871C41.4245 53.3871 39.6851 51.6393 39.6851 49.5011C39.6851 47.8211 42.239 44.0199 43.5712 42.2211C44.9033 44.0284 47.4572 47.8211 47.4572 49.5011C47.4572 51.6393 45.7178 53.3871 43.5712 53.3871Z" fill="black"/>
<path d="M49.1702 33.3627V28.8657C49.1702 21.7894 43.409 16.0282 36.3326 16.0282H33.049V15.6463C33.049 14.3736 32.0138 13.3385 30.7411 13.3385H27.1859V8.69726C27.2708 8.62089 27.3556 8.53605 27.4405 8.4512C27.9241 8.5615 28.3823 8.70574 28.8065 8.87544C30.9617 9.75786 32.3871 10.1821 33.1593 10.1821C35.4841 10.1821 37.3677 8.28999 37.3677 5.97362C37.3677 3.65726 35.4841 1.76514 33.1593 1.76514C32.3787 1.76514 30.9617 2.19786 28.8065 3.0718C28.3823 3.24999 27.9156 3.38574 27.4405 3.49605C26.7702 2.77483 25.8283 2.31665 24.7677 2.31665C23.8174 2.31665 22.9605 2.68999 22.3071 3.28392C22.1035 3.21605 21.8999 3.14817 21.6962 3.0718C19.5496 2.18938 18.1241 1.76514 17.352 1.76514C15.0271 1.76514 13.1435 3.65726 13.1435 5.97362C13.1435 8.28999 15.0356 10.1821 17.352 10.1821C18.1241 10.1821 19.5496 9.75786 21.6962 8.87544C21.8999 8.79059 22.1035 8.72271 22.3071 8.66332C22.4429 8.78211 22.5702 8.90089 22.7229 9.00271V13.33H18.4974C17.2247 13.33 16.1896 14.3651 16.1896 15.6379V16.0197H10.8865V14.433C10.8865 12.1506 9.02835 10.3009 6.75441 10.3009H4.90471C4.66714 10.3009 4.48047 10.4876 4.48047 10.7251V32.6924C4.48047 32.93 4.66714 33.1166 4.90471 33.1166H6.75441C9.03683 33.1166 10.8865 31.2585 10.8865 28.9845V27.3979H16.1896V27.7797C16.1896 29.0524 17.2247 30.0876 18.4974 30.0876H30.7496C32.0223 30.0876 33.0574 29.0524 33.0574 27.7797V27.3979H35.289C36.9774 27.3979 38.3605 28.7724 38.3605 30.4694V33.3627H37.9956C36.689 33.3627 35.6284 34.4233 35.6284 35.73C35.6284 37.0367 36.689 38.0973 37.9956 38.0973H49.1532C50.4599 38.0973 51.5205 37.0367 51.5205 35.73C51.5205 34.4233 50.4683 33.3712 49.1702 33.3627ZM29.129 3.86089C31.6405 2.83423 32.7096 2.61362 33.1593 2.61362C35.009 2.61362 36.5193 4.12392 36.5193 5.97362C36.5193 7.82332 35.0174 9.33362 33.1593 9.33362C32.7096 9.33362 31.649 9.1215 29.129 8.08635C28.7641 7.93362 28.3653 7.81483 27.9665 7.70453C28.2465 7.18695 28.4247 6.6015 28.4247 5.97362C28.4247 5.34574 28.2465 4.76029 27.9665 4.24271C28.3738 4.13241 28.7641 4.01362 29.129 3.86089ZM27.5762 5.97362C27.5762 7.51786 26.3205 8.78211 24.7677 8.78211C23.9702 8.78211 23.249 8.44271 22.7399 7.90817C22.2647 7.40756 21.9593 6.72877 21.9593 5.98211C21.9593 5.23544 22.2562 4.56514 22.7314 4.06453C22.7314 4.06453 22.7314 4.06453 22.7399 4.05605C23.249 3.5215 23.9702 3.18211 24.7677 3.18211C26.3205 3.17362 27.5762 4.42938 27.5762 5.97362ZM21.3738 8.08635C18.8623 9.1215 17.8017 9.33362 17.352 9.33362C15.5023 9.33362 13.992 7.82332 13.992 5.97362C13.992 4.12392 15.5023 2.61362 17.352 2.61362C17.8017 2.61362 18.8623 2.82574 21.3738 3.86089C21.4841 3.90332 21.6029 3.93726 21.7132 3.97968C21.3399 4.55665 21.1108 5.23544 21.1108 5.97362C21.1108 6.7118 21.3314 7.39908 21.7132 7.96756C21.6029 8.00999 21.4841 8.04392 21.3738 8.08635ZM23.5714 9.40999C23.9447 9.54574 24.3435 9.63059 24.7677 9.63059C25.3362 9.63059 25.8623 9.49483 26.3374 9.25726V13.33H23.5714V9.40999ZM10.038 28.976C10.038 30.7918 8.56168 32.2597 6.75441 32.2597H5.32895V11.1494H6.75441C8.57017 11.1494 10.038 12.6257 10.038 14.433V28.976ZM10.8865 26.5409V16.8682H16.1896V26.5409H10.8865ZM32.209 27.7712C32.209 28.5773 31.5556 29.2306 30.7496 29.2306H18.4974C17.6914 29.2306 17.038 28.5773 17.038 27.7712V15.6379C17.038 14.8318 17.6914 14.1785 18.4974 14.1785H30.7496C31.5556 14.1785 32.209 14.8318 32.209 15.6379V27.7712ZM35.2805 26.5409H33.049V16.8682H36.3326C42.9423 16.8682 48.3217 22.2476 48.3217 28.8573V33.3542H39.2005V30.4609C39.2005 28.2973 37.4441 26.5409 35.2805 26.5409ZM49.1532 37.2488H37.9956C37.1556 37.2488 36.4768 36.57 36.4768 35.73C36.4768 34.89 37.1556 34.2112 37.9956 34.2112H49.1532C49.9932 34.2112 50.672 34.89 50.672 35.73C50.672 36.5615 49.9847 37.2488 49.1532 37.2488Z" fill="black"/>
</svg>
