<svg width="52" height="52" viewBox="0 0 52 52" fill="none" xmlns="http://www.w3.org/2000/svg">
<path d="M48.8331 8.54043H46.6428V6.62588C46.6428 5.64103 45.8471 4.84528 44.8622 4.84528H44.2398V4.0574C44.2398 2.47376 42.9477 1.18164 41.3641 1.18164H11.9604C10.3768 1.18164 9.08467 2.47376 9.08467 4.0574V4.84528H8.46225C7.4774 4.84528 6.68164 5.64103 6.68164 6.62588V11.2429C6.68164 12.2277 7.4774 13.0235 8.46225 13.0235H9.08467V13.8113C9.08467 13.9138 9.10043 14.0083 9.11619 14.1029C9.10043 14.1501 9.08467 14.1974 9.08467 14.2526V23.3368C9.08467 24.9047 10.361 26.1889 11.9368 26.1889C13.5125 26.1889 14.7889 24.9126 14.7889 23.3368V21.2804C14.7889 20.1459 15.7107 19.2162 16.8532 19.2162C17.9877 19.2162 18.9095 20.138 18.9095 21.2804V22.5489C18.9095 24.1168 20.1859 25.401 21.7616 25.401C23.3374 25.401 24.6138 24.1247 24.6138 22.5489V21.3592C24.6138 20.2247 25.5356 19.295 26.678 19.295C27.8125 19.295 28.7344 20.2168 28.7344 21.3592V22.5489C28.7344 24.1168 30.0107 25.401 31.5865 25.401C33.1622 25.401 34.4386 24.1247 34.4386 22.5489V20.1932C34.4386 19.0586 35.3604 18.1289 36.5028 18.1289C37.6374 18.1289 38.5592 19.0507 38.5592 20.1932V20.9022L37.1253 21.3119C36.3374 21.5956 35.8016 22.3441 35.8016 23.1871V30.9871H34.4859C34.1313 30.9871 33.8004 31.1604 33.5956 31.4519C33.3907 31.7435 33.3435 32.1138 33.4616 32.4447L34.1944 34.4774H33.9028C33.115 34.4774 32.4768 35.1156 32.4768 35.9035V47.1071C32.4768 49.1556 34.1392 50.818 36.1877 50.818C38.2362 50.818 39.8986 49.1556 39.8986 47.1071V35.9035C39.8986 35.1156 39.2604 34.4774 38.4725 34.4774H38.181L38.9138 32.4447C39.0319 32.1138 38.9847 31.7435 38.7798 31.4519C38.575 31.1604 38.2441 30.9871 37.8895 30.9871H36.5738V23.1871C36.5738 22.6829 36.8968 22.2259 37.3459 22.0604L38.5356 21.7216V25.7004C38.5356 27.2683 39.8119 28.5526 41.3877 28.5526C42.9635 28.5526 44.2398 27.2762 44.2398 25.7004V20.0907L49.495 18.5859C50.2828 18.3022 50.8186 17.5538 50.8186 16.7107V10.5338C50.8186 9.43073 49.9283 8.54043 48.8331 8.54043ZM9.08467 12.2356H8.46225C7.91073 12.2356 7.46952 11.7865 7.46952 11.2429V6.62588C7.46952 6.07437 7.91861 5.63316 8.46225 5.63316H9.08467V12.2356ZM38.4725 35.2653C38.8271 35.2653 39.1107 35.5489 39.1107 35.9035V47.1071C39.1107 48.7222 37.795 50.0301 36.1877 50.0301C34.5725 50.0301 33.2647 48.7144 33.2647 47.1071V35.9035C33.2647 35.5489 33.5483 35.2653 33.9028 35.2653H34.7538H37.6216H38.4725ZM37.8974 31.775C37.9998 31.775 38.0865 31.8222 38.1416 31.901C38.1968 31.9798 38.2125 32.0822 38.181 32.1768L37.3459 34.4774H35.0295L34.1944 32.1768C34.1628 32.0822 34.1707 31.9877 34.2338 31.901C34.2968 31.8144 34.3756 31.775 34.478 31.775H37.8974ZM44.2398 5.63316H44.8622C45.4138 5.63316 45.855 6.08225 45.855 6.62588V11.2429C45.855 11.7944 45.4059 12.2356 44.8622 12.2356H44.2398V5.63316ZM9.87255 4.0574C9.87255 2.9071 10.8101 1.96952 11.9604 1.96952H41.3641C42.5144 1.96952 43.4519 2.9071 43.4519 4.0574V5.23922V12.6295V13.8113C43.4519 14.9222 42.475 15.8992 41.3641 15.8992H11.9604C11.4562 15.8992 10.9441 15.6944 10.5738 15.3556C10.1483 14.9695 9.88043 14.3944 9.88043 13.8113V4.0574H9.87255ZM43.4519 25.7004C43.4519 26.835 42.5301 27.7647 41.3877 27.7647C40.2453 27.7647 39.3235 26.8429 39.3235 25.7004V21.4932L43.4441 20.3113V25.7004H43.4519ZM43.4519 19.4998L39.3313 20.6816V20.201C39.3313 18.6332 38.055 17.3489 36.4871 17.3489C34.9192 17.3489 33.635 18.6253 33.635 20.201V22.5568C33.635 23.6913 32.7132 24.621 31.5707 24.621C30.4283 24.621 29.5065 23.6992 29.5065 22.5568V21.3671C29.5065 19.7992 28.2301 18.515 26.6465 18.515C25.0786 18.515 23.8022 19.7913 23.8022 21.3671V22.5568C23.8022 23.6913 22.8804 24.621 21.738 24.621C20.5956 24.621 19.6738 23.6992 19.6738 22.5568V21.2883C19.6738 19.7204 18.3974 18.4362 16.8295 18.4362C15.2616 18.4362 13.9774 19.7126 13.9774 21.2883V23.3447C13.9774 24.4792 13.0556 25.4089 11.9132 25.4089C10.7707 25.4089 9.84891 24.4871 9.84891 23.3447V15.7889C9.85679 15.7968 9.87255 15.8047 9.88043 15.8125C10.4083 16.3641 11.1804 16.6871 11.9368 16.6871H41.3641C42.1204 16.6871 42.8925 16.3562 43.4204 15.8125C43.4283 15.8047 43.4441 15.7968 43.4519 15.7889V19.4998ZM50.0307 16.7107C50.0307 17.215 49.7077 17.6719 49.2586 17.8374L44.2398 19.2713V14.2604C44.2398 14.2053 44.2319 14.158 44.2083 14.1107C44.2162 14.0162 44.2398 13.9216 44.2398 13.8192V13.0313H44.8622C45.8471 13.0313 46.6428 12.2356 46.6428 11.2507V9.33619H48.8331C49.495 9.33619 50.0307 9.87194 50.0307 10.5338V16.7107Z" fill="black"/>
<path d="M25.1109 32.2242C25.497 31.8303 25.7334 31.2867 25.7334 30.6957C25.7334 29.4824 24.7485 28.4976 23.5352 28.4976H3.90125C2.68791 28.4976 1.70307 29.4824 1.70307 30.6957C1.70307 31.2945 1.93943 31.8303 2.32549 32.2242C2.0261 32.3345 1.75034 32.5236 1.54549 32.7836C1.21458 33.2091 1.10428 33.7527 1.2461 34.2727C1.75034 36.1794 2.68004 37.9206 3.9564 39.3939L5.01216 48.8563C5.13822 49.9751 6.08367 50.8182 7.20246 50.8182H20.2419C21.3685 50.8182 22.3061 49.9751 22.4322 48.8563L23.4879 39.3939C24.7643 37.9206 25.694 36.1715 26.1982 34.2648C26.3322 33.7448 26.2219 33.2012 25.8988 32.7757C25.6861 32.5157 25.4182 32.3345 25.1109 32.2242ZM2.00246 34.0757C1.93155 33.7921 1.9867 33.5006 2.16791 33.2721C2.38064 32.9963 2.86913 32.8545 3.20792 32.823C3.34185 33.6345 3.40488 34.5327 3.49943 35.3679C3.59398 36.1951 3.68064 37.0224 3.77519 37.8576C3.77519 37.8733 3.77519 37.8891 3.78307 37.897C2.97155 36.7388 2.36488 35.4545 2.00246 34.0757ZM21.6443 48.7697C21.5655 49.4867 20.9588 50.0303 20.234 50.0303H7.19458C6.46973 50.0303 5.86307 49.4867 5.78428 48.7697L4.83882 40.3236C5.31943 40.7806 5.83943 41.1903 6.39094 41.5763C6.24125 42.3485 6.57216 43.1679 7.28125 43.6012C9.23519 44.7909 11.4728 45.3897 13.7103 45.3897C15.9479 45.3897 18.1855 44.7909 20.1394 43.6012C20.8485 43.1679 21.1794 42.3485 21.0297 41.5763C21.5812 41.1982 22.1012 40.7806 22.5819 40.3315L21.6443 48.7697ZM7.31276 41.34C7.52549 40.9933 7.89579 40.7806 8.30549 40.7806C8.51822 40.7806 8.72307 40.8357 8.90428 40.946C11.8273 42.7267 15.6012 42.7267 18.5322 40.946C19.0758 40.6151 19.7928 40.7885 20.1237 41.3321C20.4546 41.8757 20.2812 42.5927 19.7376 42.9236C16.0819 45.1533 11.3546 45.1533 7.69882 42.9236C7.15519 42.6006 6.98185 41.8836 7.31276 41.34ZM22.7316 39.0551C22.1328 39.717 21.4631 40.3157 20.7225 40.8357C20.1394 40.0006 19.0049 39.7406 18.1225 40.2842C15.4516 41.9151 11.9928 41.9151 9.32185 40.2842C9.01458 40.0951 8.66792 40.0006 8.31337 40.0006C7.66731 40.0006 7.09216 40.3157 6.72185 40.8436C5.98125 40.3157 5.30367 39.717 4.70488 39.0551L4.01943 32.9018H23.4249L22.7316 39.0551ZM3.90125 32.106C3.12125 32.106 2.49095 31.4679 2.49095 30.6957C2.49095 29.9236 3.12913 29.2854 3.90125 29.2854H23.5352C24.3152 29.2854 24.9455 29.9236 24.9455 30.6957C24.9455 31.4679 24.3152 32.106 23.5352 32.106H3.90125ZM25.434 34.0679C25.0716 35.4467 24.4649 36.7388 23.6534 37.8891C23.7322 37.1879 23.8109 36.4867 23.8897 35.7854C23.9528 35.2339 24.0158 34.6903 24.0709 34.1388C24.1103 33.7842 24.1261 33.3194 24.2049 32.9727C24.2128 32.9254 24.2206 32.8545 24.2364 32.8073C24.6146 32.9412 25.0006 32.9097 25.2685 33.2642C25.4497 33.4927 25.5049 33.7921 25.434 34.0679Z" fill="black"/>
</svg>
