<svg width="49" height="53" viewBox="0 0 49 53" fill="none" xmlns="http://www.w3.org/2000/svg">
<path d="M48.1003 2.59827L48.0669 0.832805C48.0669 0.640361 47.933 0.481385 47.7489 0.431182L46.0336 0.0128253C45.9081 -0.0206433 45.7743 0.0128253 45.6739 0.0964967L38.294 5.99533L38.0765 5.72758C37.039 4.43068 35.1396 4.2215 33.8427 5.25902L31.3242 7.2755C30.6046 7.85284 30.4875 8.9071 31.0648 9.62667L31.8681 10.6307L29.6508 12.4046L27.4753 9.68524C27.2076 9.34219 26.8143 9.13301 26.3876 9.08281C25.9609 9.04097 25.5341 9.15811 25.1911 9.42586L23.3085 10.9319L22.8567 10.3713C22.5722 10.0116 22.1622 9.78565 21.702 9.73544C21.2418 9.68524 20.79 9.81075 20.4302 10.1036L3.72937 23.4743C-0.554604 26.8965 -1.24908 33.1718 2.17308 37.4474C4.13099 39.899 7.02603 41.1708 9.94616 41.1708C12.1216 41.1708 14.3222 40.4596 16.1462 38.9953L16.5729 38.6523L27.0068 51.6967C27.4586 52.2573 28.0945 52.6087 28.8141 52.6924C28.9145 52.7007 29.0149 52.7091 29.1153 52.7091C29.7261 52.7091 30.3118 52.4999 30.7971 52.115L42.6282 42.6685C43.1888 42.2167 43.5402 41.5808 43.6239 40.8612C43.7076 40.15 43.4984 39.4388 43.0466 38.8782C42.5947 38.3176 41.9588 37.9662 41.2393 37.8825C40.5281 37.7988 39.8169 38.008 39.2563 38.4598L33.575 43.0116L30.1444 38.7192L32.6295 36.7278C33.0813 36.3681 33.3323 35.8326 33.324 35.2636C33.3156 34.6946 33.0478 34.1675 32.596 33.8161L27.4837 29.9421L32.8638 25.6414C33.2235 25.3569 33.4495 24.9385 33.4997 24.4867C33.5499 24.0265 33.416 23.5747 33.1315 23.2149L32.6797 22.6543L34.5623 21.1482C35.2651 20.5876 35.3739 19.5585 34.8133 18.8556L32.6378 16.1363L34.8551 14.3625L35.6584 15.3665C35.9931 15.7765 36.4784 15.9941 36.972 15.9941C37.3402 15.9941 37.7083 15.8769 38.0179 15.6259L40.5364 13.6094C41.8333 12.5719 42.0425 10.6726 41.005 9.37566L40.5699 8.83179L47.9413 2.93296C48.0501 2.84929 48.1087 2.72378 48.1003 2.59827ZM33.1817 43.8567C33.324 44.0407 33.5917 44.0658 33.7674 43.9236L39.775 39.1125C40.1599 38.8029 40.6452 38.6607 41.1389 38.7192C41.6325 38.7778 42.076 39.0204 42.3856 39.4053C42.6952 39.7902 42.8374 40.2755 42.7788 40.7692C42.7203 41.2628 42.4776 41.7063 42.0927 42.0159L30.2783 51.4707C29.8934 51.7803 29.4081 51.9226 28.9145 51.864C28.4208 51.8054 27.9774 51.5628 27.6678 51.1779L17.2339 38.1419L24.1703 32.5945L29.2157 38.8949C29.2241 38.9033 29.2241 38.9117 29.2241 38.92C29.2324 38.9284 29.2408 38.9284 29.2408 38.9368L33.1817 43.8567ZM32.0856 34.4771C32.3366 34.6695 32.4789 34.954 32.4872 35.2636C32.4956 35.5732 32.3534 35.866 32.1107 36.0668L29.6257 38.0582L24.8313 32.059L26.8143 30.4692L32.0856 34.4771ZM32.3366 24.9804L23.9946 31.6574C23.9862 31.6657 23.9779 31.6657 23.9695 31.6741C23.9611 31.6825 23.9611 31.6908 23.9528 31.6992L16.4056 37.7403C16.3972 37.7486 16.3889 37.7486 16.3805 37.7486C16.3721 37.757 16.3721 37.7654 16.3638 37.7737L15.6358 38.3594C11.72 41.4971 5.97177 40.8612 2.83409 36.937C-0.30359 33.0128 0.332313 27.273 4.2565 24.1353L20.9573 10.7646C21.1163 10.6391 21.3087 10.5722 21.5095 10.5722C21.543 10.5722 21.5765 10.5722 21.61 10.5805C21.8442 10.6056 22.0618 10.7228 22.204 10.9068L31.7677 22.8468L32.4789 23.7337C32.6295 23.9177 32.6964 24.152 32.6713 24.3863C32.6378 24.6206 32.5207 24.8298 32.3366 24.9804ZM34.1607 19.3828C34.4368 19.7258 34.3782 20.2195 34.0352 20.4956L32.1526 22.0017L23.8272 11.6013L25.7099 10.0952C25.8772 9.96136 26.0864 9.90279 26.2956 9.92789C26.5047 9.95299 26.6972 10.0534 26.8227 10.2207L29.2408 13.2496C29.2492 13.258 29.2492 13.2664 29.2492 13.2664C29.2575 13.2747 29.2575 13.2747 29.2659 13.2747L31.7091 16.3204C31.7175 16.3288 31.7175 16.3371 31.7175 16.3455C31.7258 16.3539 31.7258 16.3539 31.7342 16.3622L34.1607 19.3828ZM32.1191 15.4837L30.1779 13.0572L32.3952 11.2834L34.3364 13.7098L32.1191 15.4837ZM40.0093 12.9568L37.4908 14.9733C37.131 15.2661 36.5955 15.2076 36.311 14.8394L31.7258 9.10791C31.433 8.74812 31.4916 8.22099 31.8597 7.92814L34.3782 5.91166C34.7798 5.59371 35.2568 5.43473 35.7337 5.43473C36.3696 5.43473 37.0055 5.71085 37.4322 6.25471L40.3524 9.90279C41.097 10.8399 40.9464 12.2121 40.0093 12.9568ZM40.0428 8.17916L38.8212 6.64797L46.0336 0.874641L47.2301 1.16749L47.2552 2.40583L40.0428 8.17916Z" fill="black"/>
<path d="M20.9988 15.1656C20.8566 14.9815 20.5888 14.9564 20.4131 15.0987L14.5059 19.8261C14.3218 19.9683 14.2967 20.2361 14.439 20.4118C14.5227 20.5122 14.6398 20.5708 14.7653 20.5708C14.8573 20.5708 14.9494 20.5373 15.0247 20.4787L20.9319 15.7513C21.1076 15.6091 21.1411 15.3413 20.9988 15.1656Z" fill="black"/>
<path d="M23.3504 18.1026C23.2082 17.9185 22.9404 17.8934 22.7647 18.0357L16.8575 22.7631C16.6734 22.9053 16.6483 23.1731 16.7906 23.3488C16.8742 23.4492 16.9914 23.5078 17.1169 23.5078C17.2089 23.5078 17.3009 23.4743 17.3763 23.4157L23.2835 18.6883C23.4592 18.5461 23.4926 18.2867 23.3504 18.1026Z" fill="black"/>
<path d="M25.7 21.0396C25.5578 20.8555 25.29 20.8304 25.1143 20.9727L19.2071 25.7001C19.023 25.8424 18.9979 26.1101 19.1402 26.2858C19.2238 26.3862 19.341 26.4448 19.4665 26.4448C19.5585 26.4448 19.6506 26.4113 19.7259 26.3528L25.6331 21.6253C25.8088 21.4831 25.8422 21.2237 25.7 21.0396Z" fill="black"/>
<path d="M27.46 23.918L21.5528 28.6454C21.3687 28.7877 21.3436 29.0554 21.4859 29.2311C21.5695 29.3315 21.6867 29.3901 21.8122 29.3901C21.9042 29.3901 21.9963 29.3566 22.0716 29.2981L27.9788 24.5706C28.1628 24.4284 28.1879 24.1606 28.0457 23.9849C27.9035 23.8009 27.6441 23.7758 27.46 23.918Z" fill="black"/>
<path d="M10.633 26.0009C9.2524 25.8419 7.90529 26.2352 6.82593 27.097C5.74657 27.9588 5.06883 29.1888 4.91822 30.5693C4.76762 31.9416 5.16087 33.2887 6.01432 34.368C7.03511 35.6482 8.54956 36.3176 10.0724 36.3176C11.2019 36.3176 12.3399 35.9494 13.2937 35.188C14.3731 34.3262 15.0508 33.0879 15.2014 31.7156C15.3521 30.3434 14.9588 28.988 14.097 27.9086C13.2352 26.8292 12.0052 26.1599 10.633 26.0009ZM6.67532 33.8409C5.95575 32.9372 5.62943 31.8077 5.75494 30.6614C5.88045 29.5067 6.44941 28.4776 7.35306 27.7496C8.12284 27.1305 9.06833 26.8041 10.0473 26.8041C10.064 26.8041 10.0808 26.8041 10.0975 26.8041L9.152 35.3554C8.20651 35.1545 7.31959 34.6525 6.67532 33.8409ZM14.3647 31.6236C14.2392 32.7783 13.6703 33.8074 12.7666 34.5354C11.9466 35.1964 10.9509 35.4809 9.97198 35.4641L10.9175 26.9213C11.9048 27.1221 12.7917 27.6408 13.4276 28.4357C14.1639 29.3394 14.4986 30.4689 14.3647 31.6236Z" fill="black"/>
</svg>
