<svg width="54" height="54" viewBox="0 0 54 54" fill="none" xmlns="http://www.w3.org/2000/svg">
<path d="M7.61574 47.1235C7.64738 46.2165 8.58606 45.3833 9.15559 44.645C9.99934 43.5481 9.85168 42.2509 9.85168 40.9536C9.58801 41.2173 9.32434 41.481 9.06067 41.7446C9.82004 41.7446 10.5794 41.7446 11.3388 41.7446C11.0751 41.481 10.8114 41.2173 10.5478 40.9536C10.5478 42.0505 10.4212 43.2001 10.938 44.2021C11.1489 44.6134 11.5181 44.9931 11.8029 45.3622C12.0665 45.7103 12.4357 46.1638 12.615 46.4485C12.8154 46.7755 12.7943 47.1657 12.7943 47.5243C12.7943 48.0517 12.7943 48.579 12.7943 49.1063C12.7943 49.9817 12.7943 50.8466 12.7943 51.722C13.0579 51.4583 13.3216 51.1946 13.5853 50.931C11.3282 50.931 9.08176 50.931 6.82473 50.931C5.80168 50.931 5.80168 52.513 6.82473 52.513C9.08176 52.513 11.3282 52.513 13.5853 52.513C14.0177 52.513 14.3763 52.1544 14.3763 51.722C14.3763 50.8888 14.3763 50.045 14.3763 49.2118C14.3763 48.2942 14.4607 47.3345 14.2919 46.4274C14.1759 45.8157 13.7751 45.3411 13.4165 44.8665C13.0896 44.4446 12.7626 44.0122 12.4251 43.5903C11.9611 42.9892 12.1404 41.7657 12.1404 40.9536C12.1404 40.5212 11.7818 40.1626 11.3493 40.1626C10.59 40.1626 9.83059 40.1626 9.07121 40.1626C8.63879 40.1626 8.2802 40.5212 8.2802 40.9536C8.2802 41.4177 8.2802 41.8817 8.2802 42.3353C8.2802 42.8415 8.21692 43.3056 7.95324 43.6431C7.13059 44.6978 6.09699 45.7103 6.04426 47.1235C5.99152 48.1466 7.57356 48.1466 7.61574 47.1235Z" fill="black"/>
<path d="M34.393 35.2373C34.393 40.4053 34.393 45.5627 34.393 50.7307C34.393 51.0576 34.393 51.3846 34.393 51.7221C34.6566 51.4584 34.9203 51.1947 35.184 50.931C30.0266 50.931 24.8586 50.931 19.7012 50.931C19.4059 50.931 19.1105 50.931 18.8047 50.931C19.0684 51.1947 19.332 51.4584 19.5957 51.7221C19.5957 46.5541 19.5957 41.3967 19.5957 36.2287C19.5957 35.9018 19.5957 35.5748 19.5957 35.2373C19.332 35.501 19.0684 35.7646 18.8047 36.0283C23.9621 36.0283 29.1301 36.0283 34.2875 36.0283C34.5828 36.0283 34.8781 36.0283 35.184 36.0283C36.207 36.0283 36.207 34.4463 35.184 34.4463C30.0266 34.4463 24.8586 34.4463 19.7012 34.4463C19.4059 34.4463 19.1105 34.4463 18.8047 34.4463C18.3723 34.4463 18.0137 34.8049 18.0137 35.2373C18.0137 40.4053 18.0137 45.5627 18.0137 50.7307C18.0137 51.0576 18.0137 51.3846 18.0137 51.7221C18.0137 52.1545 18.3723 52.5131 18.8047 52.5131C23.9621 52.5131 29.1301 52.5131 34.2875 52.5131C34.5828 52.5131 34.8781 52.5131 35.184 52.5131C35.6164 52.5131 35.975 52.1545 35.975 51.7221C35.975 46.5541 35.975 41.3967 35.975 36.2287C35.975 35.9018 35.975 35.5748 35.975 35.2373C35.975 34.2248 34.393 34.2248 34.393 35.2373Z" fill="black"/>
<path d="M51.5746 50.931C46.4172 50.931 41.2492 50.931 36.0918 50.931C35.7965 50.931 35.5012 50.931 35.1953 50.931C35.459 51.1947 35.7227 51.4584 35.9863 51.7221C35.9863 46.5541 35.9863 41.3967 35.9863 36.2287C35.9863 35.9018 35.9863 35.5748 35.9863 35.2373C35.7227 35.501 35.459 35.7646 35.1953 36.0283C40.3527 36.0283 45.5207 36.0283 50.6781 36.0283C50.9734 36.0283 51.2688 36.0283 51.5746 36.0283C51.3109 35.7646 51.0473 35.501 50.7836 35.2373C50.7836 40.4053 50.7836 45.5627 50.7836 50.7307C50.7836 51.0576 50.7836 51.3846 50.7836 51.7221C50.7836 52.7451 52.3656 52.7451 52.3656 51.7221C52.3656 46.5541 52.3656 41.3967 52.3656 36.2287C52.3656 35.9018 52.3656 35.5748 52.3656 35.2373C52.3656 34.8049 52.007 34.4463 51.5746 34.4463C46.4172 34.4463 41.2492 34.4463 36.0918 34.4463C35.7965 34.4463 35.5012 34.4463 35.1953 34.4463C34.7629 34.4463 34.4043 34.8049 34.4043 35.2373C34.4043 40.4053 34.4043 45.5627 34.4043 50.7307C34.4043 51.0576 34.4043 51.3846 34.4043 51.7221C34.4043 52.1545 34.7629 52.5131 35.1953 52.5131C40.3527 52.5131 45.5207 52.5131 50.6781 52.5131C50.9734 52.5131 51.2688 52.5131 51.5746 52.5131C52.5871 52.5131 52.5871 50.931 51.5746 50.931Z" fill="black"/>
<path d="M18.0141 18.7632C18.0141 23.9312 18.0141 29.0886 18.0141 34.2565C18.0141 34.5835 18.0141 34.9105 18.0141 35.248C18.2777 34.9843 18.5414 34.7206 18.8051 34.4569C13.6477 34.4569 8.47969 34.4569 3.32227 34.4569C3.02695 34.4569 2.73164 34.4569 2.42578 34.4569C2.68945 34.7206 2.95312 34.9843 3.2168 35.248C3.2168 30.08 3.2168 24.9226 3.2168 19.7546C3.2168 19.4276 3.2168 19.1007 3.2168 18.7632C2.95312 19.0269 2.68945 19.2905 2.42578 19.5542C7.5832 19.5542 12.7512 19.5542 17.9086 19.5542C18.2039 19.5542 18.4992 19.5542 18.8051 19.5542C19.8281 19.5542 19.8281 17.9722 18.8051 17.9722C13.6477 17.9722 8.47969 17.9722 3.32227 17.9722C3.02695 17.9722 2.73164 17.9722 2.42578 17.9722C1.99336 17.9722 1.63477 18.3308 1.63477 18.7632C1.63477 23.9312 1.63477 29.0886 1.63477 34.2565C1.63477 34.5835 1.63477 34.9105 1.63477 35.248C1.63477 35.6804 1.99336 36.039 2.42578 36.039C7.5832 36.039 12.7512 36.039 17.9086 36.039C18.2039 36.039 18.4992 36.039 18.8051 36.039C19.2375 36.039 19.5961 35.6804 19.5961 35.248C19.5961 30.08 19.5961 24.9226 19.5961 19.7546C19.5961 19.4276 19.5961 19.1007 19.5961 18.7632C19.5961 17.7401 18.0141 17.7401 18.0141 18.7632Z" fill="black"/>
<path d="M18.8148 17.9721C13.6574 17.9721 8.48945 17.9721 3.33203 17.9721C3.03672 17.9721 2.74141 17.9721 2.43555 17.9721C2.69922 18.2357 2.96289 18.4994 3.22656 18.7631C3.22656 13.5951 3.22656 8.4377 3.22656 3.26973C3.22656 2.94277 3.22656 2.61582 3.22656 2.27832C2.96289 2.54199 2.69922 2.80566 2.43555 3.06934C7.59297 3.06934 12.7609 3.06934 17.9184 3.06934C18.2137 3.06934 18.509 3.06934 18.8148 3.06934C18.5512 2.80566 18.2875 2.54199 18.0238 2.27832C18.0238 7.44629 18.0238 12.6037 18.0238 17.7717C18.0238 18.0986 18.0238 18.4256 18.0238 18.7631C18.0238 19.7861 19.6059 19.7861 19.6059 18.7631C19.6059 13.5951 19.6059 8.4377 19.6059 3.26973C19.6059 2.94277 19.6059 2.61582 19.6059 2.27832C19.6059 1.8459 19.2473 1.4873 18.8148 1.4873C13.6574 1.4873 8.48945 1.4873 3.33203 1.4873C3.03672 1.4873 2.74141 1.4873 2.43555 1.4873C2.00312 1.4873 1.64453 1.8459 1.64453 2.27832C1.64453 7.44629 1.64453 12.6037 1.64453 17.7717C1.64453 18.0986 1.64453 18.4256 1.64453 18.7631C1.64453 19.1955 2.00312 19.5541 2.43555 19.5541C7.59297 19.5541 12.7609 19.5541 17.9184 19.5541C18.2137 19.5541 18.509 19.5541 18.8148 19.5541C19.8273 19.5541 19.8273 17.9721 18.8148 17.9721Z" fill="black"/>
<path d="M35.1957 34.4462C30.0383 34.4462 24.8703 34.4462 19.7129 34.4462C19.4176 34.4462 19.1223 34.4462 18.8164 34.4462C19.0801 34.7099 19.3438 34.9735 19.6074 35.2372C19.6074 30.0692 19.6074 24.9118 19.6074 19.7438C19.6074 19.4169 19.6074 19.0899 19.6074 18.7524C19.3438 19.0161 19.0801 19.2798 18.8164 19.5435C23.9738 19.5435 29.1418 19.5435 34.2992 19.5435C34.5945 19.5435 34.8898 19.5435 35.1957 19.5435C34.932 19.2798 34.6684 19.0161 34.4047 18.7524C34.4047 23.9204 34.4047 29.0778 34.4047 34.2458C34.4047 34.5728 34.4047 34.8997 34.4047 35.2372C34.4047 36.2603 35.9867 36.2603 35.9867 35.2372C35.9867 30.0692 35.9867 24.9118 35.9867 19.7438C35.9867 19.4169 35.9867 19.0899 35.9867 18.7524C35.9867 18.32 35.6281 17.9614 35.1957 17.9614C30.0383 17.9614 24.8703 17.9614 19.7129 17.9614C19.4176 17.9614 19.1223 17.9614 18.8164 17.9614C18.384 17.9614 18.0254 18.32 18.0254 18.7524C18.0254 23.9204 18.0254 29.0778 18.0254 34.2458C18.0254 34.5728 18.0254 34.8997 18.0254 35.2372C18.0254 35.6696 18.384 36.0282 18.8164 36.0282C23.9738 36.0282 29.1418 36.0282 34.2992 36.0282C34.5945 36.0282 34.8898 36.0282 35.1957 36.0282C36.2082 36.0282 36.2082 34.4462 35.1957 34.4462Z" fill="black"/>
<path d="M12.2766 31.0713C12.2766 32.4635 12.2766 33.8557 12.2766 35.2479C12.5402 34.9842 12.8039 34.7205 13.0676 34.4568C9.52383 34.4568 5.96953 34.4568 2.42578 34.4568C2.68945 34.7205 2.95312 34.9842 3.2168 35.2479C3.2168 33.8557 3.2168 32.4635 3.2168 31.0713C2.95312 31.335 2.68945 31.5986 2.42578 31.8623C5.96953 31.8623 9.52383 31.8623 13.0676 31.8623C14.0906 31.8623 14.0906 30.2803 13.0676 30.2803C9.52383 30.2803 5.96953 30.2803 2.42578 30.2803C1.99336 30.2803 1.63477 30.6389 1.63477 31.0713C1.63477 32.4635 1.63477 33.8557 1.63477 35.2479C1.63477 35.6803 1.99336 36.0389 2.42578 36.0389C5.96953 36.0389 9.52383 36.0389 13.0676 36.0389C13.5 36.0389 13.8586 35.6803 13.8586 35.2479C13.8586 33.8557 13.8586 32.4635 13.8586 31.0713C13.8586 30.0482 12.2766 30.0482 12.2766 31.0713Z" fill="black"/>
<path d="M10.1988 30.2801C7.6043 30.2801 5.02031 30.2801 2.42578 30.2801C2.68945 30.5438 2.95312 30.8074 3.2168 31.0711C3.2168 29.6789 3.2168 28.2867 3.2168 26.8945C2.95312 27.1582 2.68945 27.4219 2.42578 27.6855C5.02031 27.6855 7.6043 27.6855 10.1988 27.6855C9.93516 27.4219 9.67148 27.1582 9.40781 26.8945C9.40781 28.2867 9.40781 29.6789 9.40781 31.0711C9.40781 32.0941 10.9898 32.0941 10.9898 31.0711C10.9898 29.6789 10.9898 28.2867 10.9898 26.8945C10.9898 26.4621 10.6312 26.1035 10.1988 26.1035C7.6043 26.1035 5.02031 26.1035 2.42578 26.1035C1.99336 26.1035 1.63477 26.4621 1.63477 26.8945C1.63477 28.2867 1.63477 29.6789 1.63477 31.0711C1.63477 31.5035 1.99336 31.8621 2.42578 31.8621C5.02031 31.8621 7.6043 31.8621 10.1988 31.8621C11.2219 31.8621 11.2219 30.2801 10.1988 30.2801Z" fill="black"/>
<path d="M13.5845 50.9312C11.3274 50.9312 9.08096 50.9312 6.82393 50.9312C5.80088 50.9312 5.80088 52.5132 6.82393 52.5132C9.08096 52.5132 11.3274 52.5132 13.5845 52.5132C14.6075 52.5132 14.6075 50.9312 13.5845 50.9312Z" fill="black"/>
<path d="M18.0141 35.2373C18.0141 40.4053 18.0141 45.5627 18.0141 50.7307C18.0141 51.0576 18.0141 51.3846 18.0141 51.7221C18.2777 51.4584 18.5414 51.1947 18.8051 50.931C13.6477 50.931 8.47969 50.931 3.32227 50.931C3.02695 50.931 2.73164 50.931 2.42578 50.931C2.68945 51.1947 2.95312 51.4584 3.2168 51.7221C3.2168 46.5541 3.2168 41.3967 3.2168 36.2287C3.2168 35.9018 3.2168 35.5748 3.2168 35.2373C2.95312 35.501 2.68945 35.7646 2.42578 36.0283C7.5832 36.0283 12.7512 36.0283 17.9086 36.0283C18.2039 36.0283 18.4992 36.0283 18.8051 36.0283C19.8281 36.0283 19.8281 34.4463 18.8051 34.4463C13.6477 34.4463 8.47969 34.4463 3.32227 34.4463C3.02695 34.4463 2.73164 34.4463 2.42578 34.4463C1.99336 34.4463 1.63477 34.8049 1.63477 35.2373C1.63477 40.4053 1.63477 45.5627 1.63477 50.7307C1.63477 51.0576 1.63477 51.3846 1.63477 51.7221C1.63477 52.1545 1.99336 52.5131 2.42578 52.5131C7.5832 52.5131 12.7512 52.5131 17.9086 52.5131C18.2039 52.5131 18.4992 52.5131 18.8051 52.5131C19.2375 52.5131 19.5961 52.1545 19.5961 51.7221C19.5961 46.5541 19.5961 41.3967 19.5961 36.2287C19.5961 35.9018 19.5961 35.5748 19.5961 35.2373C19.5961 34.2248 18.0141 34.2248 18.0141 35.2373Z" fill="black"/>
<path d="M6.0332 47.1236C6.0332 48.6529 6.0332 50.1928 6.0332 51.7221C6.0332 52.7451 7.61523 52.7451 7.61523 51.7221C7.61523 50.1928 7.61523 48.6529 7.61523 47.1236C7.61523 46.1111 6.0332 46.1111 6.0332 47.1236Z" fill="black"/>
<path d="M30.9973 34.4465C28.3289 34.4465 25.6605 34.4465 22.9922 34.4465C23.2559 34.7101 23.5195 34.9738 23.7832 35.2375C23.7832 32.3266 23.7832 29.4156 23.7832 26.4941C23.5195 26.7578 23.2559 27.0215 22.9922 27.2852C25.6605 27.2852 28.3289 27.2852 30.9973 27.2852C30.7336 27.0215 30.4699 26.7578 30.2062 26.4941C30.2062 29.4051 30.2062 32.316 30.2062 35.2375C30.2062 36.2605 31.7883 36.2605 31.7883 35.2375C31.7883 32.3266 31.7883 29.4156 31.7883 26.4941C31.7883 26.0617 31.4297 25.7031 30.9973 25.7031C28.3289 25.7031 25.6605 25.7031 22.9922 25.7031C22.5598 25.7031 22.2012 26.0617 22.2012 26.4941C22.2012 29.4051 22.2012 32.316 22.2012 35.2375C22.2012 35.6699 22.5598 36.0285 22.9922 36.0285C25.6605 36.0285 28.3289 36.0285 30.9973 36.0285C32.0203 36.0285 32.0203 34.4465 30.9973 34.4465Z" fill="black"/>
<path d="M26.209 26.5046C26.209 29.4155 26.209 32.3265 26.209 35.248C26.209 36.271 27.791 36.271 27.791 35.248C27.791 32.337 27.791 29.4261 27.791 26.5046C27.791 25.4815 26.209 25.4815 26.209 26.5046Z" fill="black"/>
<path d="M23.0036 31.6621C25.672 31.6621 28.3403 31.6621 31.0087 31.6621C32.0317 31.6621 32.0317 30.0801 31.0087 30.0801C28.3403 30.0801 25.672 30.0801 23.0036 30.0801C21.9806 30.0801 21.9806 31.6621 23.0036 31.6621Z" fill="black"/>
<path d="M28.719 25.7135C28.1495 25.7135 27.5694 25.7135 26.9999 25.7135C27.2635 25.9771 27.5272 26.2408 27.7909 26.5045C27.7909 26.0932 27.7909 25.6924 27.7909 25.281C27.7909 24.8592 27.717 24.4057 28.2233 24.2686C28.6241 24.1631 29.1092 24.2896 29.2252 24.701C29.3307 25.1018 29.2041 25.6818 28.719 25.7135C27.7065 25.7662 27.6959 27.3482 28.719 27.2955C30.0479 27.2217 30.8073 26.2197 30.8073 24.9436C30.8073 23.6779 29.9424 22.6865 28.6346 22.6865C27.4428 22.6865 26.2827 23.2982 26.2088 24.6271C26.1772 25.2494 26.1983 25.8822 26.1983 26.5045C26.1983 26.9369 26.5569 27.2955 26.9893 27.2955C27.5588 27.2955 28.1389 27.2955 28.7084 27.2955C29.742 27.2955 29.742 25.7135 28.719 25.7135Z" fill="black"/>
<path d="M27.0098 25.7134C26.4613 25.7134 25.9023 25.7134 25.3539 25.7134C24.7949 25.7134 24.5523 24.8802 24.8898 24.4688C25.2273 24.0575 26.2188 24.2052 26.2188 24.8063C26.2188 25.3759 26.2188 25.9454 26.2188 26.5044C26.2188 27.5274 27.8008 27.5274 27.8008 26.5044C27.8008 25.6817 27.9695 24.5954 27.5793 23.836C26.8727 22.4755 24.9742 22.3489 23.8668 23.2454C23.3078 23.7095 23.2129 24.4477 23.2129 25.1227C23.2129 25.9243 23.582 26.5782 24.2465 27.0106C24.9848 27.4958 26.1871 27.2954 27.0203 27.2954C28.0328 27.2954 28.0328 25.7134 27.0098 25.7134Z" fill="black"/>
<path d="M51.5746 50.9311C48.0098 50.9311 44.4555 50.9311 40.8906 50.9311C41.1543 51.1947 41.418 51.4584 41.6816 51.7221C41.6816 47.7248 41.6816 43.717 41.6816 39.7197C41.418 39.9834 41.1543 40.2471 40.8906 40.5107C44.4555 40.5107 48.0098 40.5107 51.5746 40.5107C51.3109 40.2471 51.0473 39.9834 50.7836 39.7197C50.7836 43.717 50.7836 47.7248 50.7836 51.7221C50.7836 52.7451 52.3656 52.7451 52.3656 51.7221C52.3656 47.7248 52.3656 43.717 52.3656 39.7197C52.3656 39.2873 52.007 38.9287 51.5746 38.9287C48.0098 38.9287 44.4555 38.9287 40.8906 38.9287C40.4582 38.9287 40.0996 39.2873 40.0996 39.7197C40.0996 43.717 40.0996 47.7248 40.0996 51.7221C40.0996 52.1545 40.4582 52.5131 40.8906 52.5131C44.4555 52.5131 48.0098 52.5131 51.5746 52.5131C52.5871 52.5131 52.5871 50.9311 51.5746 50.9311Z" fill="black"/>
<path d="M45.4355 39.7302C45.4355 43.7274 45.4355 47.7247 45.4355 51.7325C45.4355 52.7556 47.0176 52.7556 47.0176 51.7325C47.0176 47.7353 47.0176 43.738 47.0176 39.7302C47.0176 38.7071 45.4355 38.7071 45.4355 39.7302Z" fill="black"/>
<path d="M40.8906 50.931C38.9922 50.931 37.0938 50.931 35.1953 50.931C35.459 51.1946 35.7227 51.4583 35.9863 51.722C35.9863 48.9798 35.9863 46.227 35.9863 43.4849C35.7227 43.7485 35.459 44.0122 35.1953 44.2759C37.0938 44.2759 38.9922 44.2759 40.8906 44.2759C40.627 44.0122 40.3633 43.7485 40.0996 43.4849C40.0996 46.227 40.0996 48.9798 40.0996 51.722C40.0996 52.745 41.6816 52.745 41.6816 51.722C41.6816 48.9798 41.6816 46.227 41.6816 43.4849C41.6816 43.0524 41.323 42.6938 40.8906 42.6938C38.9922 42.6938 37.0938 42.6938 35.1953 42.6938C34.7629 42.6938 34.4043 43.0524 34.4043 43.4849C34.4043 46.227 34.4043 48.9798 34.4043 51.722C34.4043 52.1544 34.7629 52.513 35.1953 52.513C37.0938 52.513 38.9922 52.513 40.8906 52.513C41.9137 52.513 41.9137 50.931 40.8906 50.931Z" fill="black"/>
</svg>
