<svg width="256" height="73" viewBox="0 0 256 73" fill="none" xmlns="http://www.w3.org/2000/svg">
<path d="M13.134 0.251899C7.91046 2.4399 2.16896 8.6134 0.355457 16.3684C-1.94154 26.1909 7.61546 30.3459 8.39996 28.9854C9.32246 27.3849 6.68746 26.8439 6.14496 21.7469C5.44396 15.1639 8.50446 7.8084 12.3565 4.5809C13.0715 3.9809 13.038 4.8159 13.038 6.3594C13.038 9.1199 12.8855 33.9019 12.8855 39.0739C12.8855 46.0719 12.5965 48.2819 12.077 50.4659C11.5515 52.6784 10.7055 54.1739 11.346 54.7499C12.062 55.3939 15.119 53.8614 16.8885 51.3919C19.0105 48.4299 19.7535 44.8719 19.887 41.0094C20.048 36.3524 20.041 28.9624 20.048 24.7474C20.054 20.8819 20.113 9.5624 19.98 2.7574C19.9475 1.0874 15.3185 -0.663601 13.134 0.251899Z" fill="#343433"/>
<path d="M198.606 33.0029C198.437 36.6414 197.632 39.4849 196.632 41.4909C194.697 45.3744 190.682 46.5799 188.977 40.9979C188.048 37.9549 188.005 32.8729 188.672 28.6264C189.352 24.3009 191.251 21.0339 194.395 21.3284C197.496 21.6199 198.947 25.6154 198.606 33.0034V33.0029ZM146.331 55.5759C146.289 61.6209 145.337 66.9209 143.297 68.4609C140.403 70.6439 136.514 69.0059 137.319 64.5949C138.032 60.6914 141.402 56.7049 146.339 51.8339C146.339 51.8339 146.349 52.9449 146.331 55.5759ZM145.541 32.9674C145.364 36.2814 144.505 39.6099 143.567 41.4909C141.632 45.3744 137.588 46.5884 135.912 40.9979C134.766 37.1779 135.041 32.2349 135.607 29.1199C136.343 25.0784 138.127 21.3289 141.33 21.3289C144.444 21.3289 145.98 24.7454 145.541 32.9674ZM115.258 32.9174C115.068 36.4264 114.384 39.3599 113.285 41.4909C111.297 45.3479 107.364 46.5709 105.63 40.9979C104.38 36.9794 104.805 31.5004 105.325 28.5404C106.097 24.1479 108.03 21.0339 111.048 21.3289C114.147 21.6319 115.654 25.6154 115.258 32.9174ZM254.035 37.0164C253.277 37.0164 252.931 37.7974 252.645 39.1114C251.653 43.6834 250.61 44.7149 249.265 44.7149C247.763 44.7149 246.413 42.4519 246.065 37.9209C245.793 34.3579 245.837 27.7989 246.185 21.2744C246.257 19.9339 245.887 18.6074 242.291 17.3014C240.744 16.7394 238.495 15.9119 237.375 18.6149C234.212 26.2519 232.974 32.3149 232.682 34.7769C232.667 34.9044 232.511 34.9309 232.484 34.6329C232.298 32.6604 231.883 29.0754 231.831 21.5444C231.821 20.0749 231.51 18.8244 229.888 17.8004C228.836 17.1354 225.64 15.9604 224.49 17.3589C223.493 18.5019 222.338 21.5789 221.138 25.2269C220.163 28.1919 219.484 30.1969 219.484 30.1969C219.484 30.1969 219.497 22.1979 219.509 19.1634C219.514 18.0189 218.729 17.6374 218.492 17.5684C217.427 17.2594 215.327 16.7429 214.436 16.7429C213.336 16.7429 213.067 17.3569 213.067 18.2529C213.067 18.3704 212.893 28.7844 212.893 36.0664C212.893 36.3829 212.893 36.7279 212.895 37.0949C212.287 40.4419 210.314 44.9849 208.169 44.9849C206.021 44.9849 205.008 43.0859 205.008 34.4044C205.008 29.3399 205.16 27.1374 205.235 23.4744C205.278 21.3644 205.362 19.7444 205.357 19.3769C205.341 18.2494 203.392 17.6809 202.485 17.4709C201.573 17.2594 200.781 17.1769 200.163 17.2124C199.287 17.2624 198.668 17.8359 198.668 18.6259C198.668 19.0499 198.673 19.8549 198.673 19.8549C197.545 18.0829 195.732 16.8499 194.525 16.4924C191.275 15.5274 187.884 16.3824 185.326 19.9619C183.293 22.8054 182.068 26.0269 181.585 30.6544C181.233 34.0379 181.348 37.4684 181.975 40.3699C181.217 43.6439 179.812 44.9849 178.272 44.9849C176.037 44.9849 174.417 41.3379 174.605 35.0289C174.729 30.8794 175.56 27.9674 176.467 23.7544C176.854 21.9584 176.54 21.0184 175.751 20.1174C175.028 19.2909 173.486 18.8684 171.271 19.3874C169.693 19.7579 167.437 20.1564 165.372 20.4624C165.372 20.4624 165.497 19.9649 165.599 19.0889C166.136 14.4939 161.143 14.8664 159.549 16.3339C158.599 17.2104 157.951 18.2439 157.706 20.1019C157.316 23.0509 159.721 24.4419 159.721 24.4419C158.932 28.0539 156.998 32.7719 155.001 36.1834C153.931 38.0109 153.113 39.3654 152.057 40.8049C152.022 35.028 152.06 29.2509 152.17 23.4749C152.213 21.3649 152.298 19.7879 152.293 19.4199C152.281 18.5959 151.8 18.2839 150.798 17.8899C149.912 17.5409 148.865 17.2999 147.779 17.2149C146.408 17.1089 145.582 17.8354 145.604 18.6954C145.608 18.8579 145.608 19.8549 145.608 19.8549C144.48 18.0829 142.667 16.8499 141.46 16.4924C138.21 15.5274 134.819 16.3824 132.261 19.9619C130.229 22.8054 128.898 26.7964 128.52 30.6194C128.169 34.1819 128.234 37.2094 128.713 39.7604C128.196 42.3144 126.71 44.9854 125.031 44.9854C122.883 44.9854 121.661 43.0859 121.661 34.4044C121.661 29.3399 121.813 27.1374 121.888 23.4744C121.931 21.3649 122.015 19.7444 122.01 19.3769C121.994 18.2494 120.045 17.6814 119.137 17.4709C118.188 17.2509 117.369 17.1709 116.739 17.2174C115.909 17.2789 115.325 18.0224 115.325 18.5769V19.8549C114.198 18.0829 112.384 16.8499 111.178 16.4924C107.928 15.5274 104.556 16.3964 101.979 19.9619C100.299 22.2864 98.9384 24.8634 98.2384 30.5684C98.0359 32.2169 97.9464 33.7614 97.9584 35.2039C97.2884 39.3019 94.3284 44.0249 91.9079 44.0249C90.4914 44.0249 89.1419 41.2769 89.1419 35.4214C89.1419 27.6214 89.6249 16.5154 89.7069 15.4454C89.7069 15.4454 92.7654 15.3934 93.3574 15.3864C94.8834 15.3694 96.2649 15.4059 98.2974 15.3014C99.3164 15.2499 100.298 11.5914 99.2464 11.1389C98.7694 10.9339 95.3999 10.7549 94.0639 10.7264C92.9409 10.7014 89.8139 10.4694 89.8139 10.4694C89.8139 10.4694 90.0944 3.09793 90.1599 2.31943C90.2149 1.66993 89.3749 1.33593 88.8939 1.13343C87.7229 0.638425 86.6754 0.400925 85.4339 0.144925C83.7179 -0.209075 82.9399 0.137425 82.7879 1.58493C82.5589 3.78243 82.4404 10.2189 82.4404 10.2189C81.1814 10.2189 76.8804 9.97293 75.6214 9.97293C74.4514 9.97293 73.1884 15.0049 74.8064 15.0669C76.6674 15.1389 79.9109 15.2019 82.0609 15.2659C82.0609 15.2659 81.9649 26.5549 81.9649 30.0409C81.9649 30.4109 81.9669 30.7684 81.9689 31.1149C80.7854 37.2824 76.6174 40.6144 76.6174 40.6144C77.5124 36.5339 75.6839 33.4694 72.3904 30.8754C71.1769 29.9199 68.7814 28.1104 66.1014 26.1274C66.1014 26.1274 67.6534 24.5974 69.0304 21.5194C70.0054 19.3384 70.0479 16.8439 67.6534 16.2934C63.6974 15.3834 60.4359 18.2889 59.4629 21.3909C58.7089 23.7939 59.1109 25.5764 60.5879 27.4284C60.6954 27.5639 60.8129 27.7024 60.9329 27.8414C60.0404 29.5624 58.8134 31.8799 57.7744 33.6769C54.8904 38.6669 52.7119 42.6129 51.0654 42.6129C49.7494 42.6129 49.7669 38.6059 49.7669 34.8544C49.7669 31.6204 50.0059 26.7579 50.1969 21.7244C50.2599 20.0594 49.4269 19.1109 48.0319 18.2519C47.1839 17.7299 45.3744 16.7039 44.3264 16.7039C42.7574 16.7039 38.2314 16.9174 33.9554 29.2874C33.4164 30.8464 32.3574 33.6874 32.3574 33.6874L32.4489 18.8119C32.4489 18.4629 32.2629 18.1259 31.8374 17.8954C31.1169 17.5039 29.1924 16.7039 27.4809 16.7039C26.6659 16.7039 26.2584 17.0829 26.2584 17.8389L26.1094 41.1119C26.1094 42.8804 26.1554 44.9434 26.3304 45.8454C26.5044 46.7484 26.7869 47.4834 27.1359 47.9204C27.4854 48.3569 27.8889 48.6904 28.5544 48.8274C29.1739 48.9549 32.5659 49.3904 32.7424 48.0944C32.9534 46.5404 32.9619 44.8604 34.7429 38.5934C37.5159 28.8364 41.1309 24.0764 42.8309 22.3854C43.1284 22.0904 43.4674 22.0724 43.4509 22.5559C43.3789 24.6949 43.1234 30.0409 42.9519 34.5809C42.4914 46.7334 44.7019 48.9859 47.8614 48.9859C50.2784 48.9859 53.6854 46.5844 57.3374 40.5054C59.3723 37.1177 61.3978 33.7244 63.4139 30.3254C64.5204 31.3499 65.7629 32.4524 67.0039 33.6304C69.8889 36.3684 70.8359 38.9704 70.2074 41.4384C69.7274 43.3249 67.9169 45.2694 64.6954 43.3799C63.7564 42.8284 63.3554 42.4019 62.4114 41.7804C61.9044 41.4469 61.1299 41.3469 60.6654 41.6969C59.4594 42.6059 58.7694 43.7629 58.3754 45.1949C57.9924 46.5884 59.3879 47.3249 60.8349 47.9694C62.0804 48.5239 64.7579 49.0264 66.4649 49.0834C73.1174 49.3059 78.4469 45.8714 82.1569 37.0119C82.8209 44.6634 85.6469 48.9929 90.5574 48.9929C93.8404 48.9929 97.1319 44.7494 98.5714 40.5749C98.9844 42.2764 99.5964 43.7564 100.386 45.0079C104.17 51.0029 111.51 49.7129 115.197 44.6219C116.337 43.0489 116.51 42.4839 116.51 42.4839C117.048 47.2904 120.919 48.9699 123.135 48.9699C125.618 48.9699 128.18 47.7964 129.977 43.7524C130.187 44.1914 130.417 44.6109 130.668 45.0079C134.452 51.0029 141.792 49.7129 145.479 44.6219C145.653 44.3829 145.804 44.1669 145.936 43.9719L146.044 47.1294L142.649 50.2429C136.959 55.4579 132.637 59.4129 132.319 64.0194C131.914 69.8929 136.675 72.0759 140.282 72.3619C144.106 72.6654 147.386 70.5514 149.399 67.5929C151.171 64.9884 152.331 59.3834 152.246 53.8479C152.212 51.6309 152.156 48.8124 152.112 45.7909C154.11 43.4714 156.36 40.5394 158.432 37.1084C160.69 33.3689 163.11 28.3469 164.349 24.4384C164.349 24.4384 166.452 24.4569 168.696 24.3099C169.413 24.2629 169.62 24.4099 169.487 24.9354C169.327 25.5714 166.652 35.8879 169.093 42.7604C170.764 47.4654 174.53 48.9784 176.763 48.9784C179.378 48.9784 181.878 47.0044 183.218 44.0734C183.38 44.3999 183.549 44.7159 183.733 45.0084C187.517 51.0034 194.831 49.7049 198.544 44.6219C199.382 43.4749 199.858 42.4839 199.858 42.4839C200.654 47.4589 204.523 48.9954 206.739 48.9954C209.047 48.9954 211.238 48.0489 213.015 43.8434C213.09 45.6954 213.207 47.2094 213.391 47.6864C213.504 47.9789 214.16 48.3449 214.637 48.5219C216.749 49.3049 218.902 48.9349 219.699 48.7739C220.251 48.6619 220.681 48.2189 220.74 47.0759C220.895 44.0734 220.8 39.0289 221.71 35.2794C223.238 28.9879 224.663 26.5474 225.339 25.3394C225.718 24.6619 226.144 24.5504 226.16 25.2669C226.192 26.7169 226.264 30.9734 226.856 36.6934C227.291 40.8994 227.871 43.3859 228.317 44.1734C229.591 46.4234 231.164 46.5299 232.445 46.5299C233.26 46.5299 234.964 46.3049 234.811 44.8729C234.737 44.1749 234.867 39.8609 236.373 33.6624C237.357 29.6144 238.997 25.9574 239.588 24.6199C239.807 24.1269 239.908 24.5154 239.904 24.5914C239.78 27.3789 239.5 36.4969 240.636 41.4839C242.176 48.2394 246.629 48.9954 248.181 48.9954C251.494 48.9954 254.203 46.4754 255.116 39.8444C255.336 38.2484 255.01 37.0164 254.035 37.0164Z" fill="#343433"/>
</svg>
