<svg width="57" height="57" viewBox="0 0 57 57" fill="none" xmlns="http://www.w3.org/2000/svg">
<circle cx="28.476" cy="28.6499" r="27.7241" fill="black"/>
<path d="M23.518 36.9895C23.3387 36.9895 23.1667 36.9182 23.0399 36.7914C22.913 36.6646 22.8418 36.4926 22.8418 36.3133V21.4368C22.8418 21.3193 22.8725 21.2039 22.9307 21.1018C22.9889 20.9997 23.0728 20.9146 23.1739 20.8548C23.2751 20.795 23.3901 20.7626 23.5076 20.7608C23.625 20.759 23.741 20.7878 23.8439 20.8445L37.3681 28.2827C37.4741 28.3411 37.5625 28.4268 37.6241 28.531C37.6856 28.6352 37.7181 28.754 37.7181 28.875C37.7181 28.9961 37.6856 29.1149 37.6241 29.2191C37.5625 29.3233 37.4741 29.409 37.3681 29.4674L23.8439 36.9056C23.7441 36.9606 23.632 36.9894 23.518 36.9895Z" fill="#F2F2F2"/>
</svg>
