<svg width="25" height="25" viewBox="0 0 25 25" fill="none" xmlns="http://www.w3.org/2000/svg">
<circle cx="12.6016" cy="12.5938" r="12.3907" fill="black"/>
<path d="M10.3862 16.3195C10.306 16.3195 10.2292 16.2877 10.1725 16.231C10.1158 16.1743 10.084 16.0974 10.084 16.0173V9.36857C10.084 9.31605 10.0977 9.26445 10.1237 9.21883C10.1497 9.17322 10.1872 9.13518 10.2324 9.10846C10.2776 9.08173 10.329 9.06725 10.3815 9.06644C10.434 9.06563 10.4859 9.07852 10.5319 9.10383L16.5762 12.4282C16.6236 12.4543 16.6631 12.4926 16.6906 12.5392C16.7181 12.5857 16.7327 12.6388 16.7327 12.6929C16.7327 12.747 16.7181 12.8001 16.6906 12.8467C16.6631 12.8933 16.6236 12.9316 16.5762 12.9577L10.5319 16.282C10.4872 16.3066 10.4371 16.3195 10.3862 16.3195Z" fill="#F2F2F2"/>
</svg>
